<svg xmlns="http://www.w3.org/2000/svg" id="Layer_2" data-name="Layer 2" viewBox="0 0 49.33 38.48"><defs><style>      .cls-1 {        fill: #69c9d3;      }      .cls-2 {        fill: #005e88;      }    </style></defs><g id="Layer_1-2" data-name="Layer 1"><g><polygon class="cls-1" points="45.53 24.2 49.33 20.4 24.01 20.4 5.93 38.48 31.24 38.48 42.14 27.59 27.43 27.59 23.62 31.4 32.49 31.4 29.28 34.61 15.28 34.61 25.74 24.2 45.53 24.2"></polygon><path class="cls-2" d="m39.63,8.39h-2.5v-2.5L31.24,0H5.93l18.08,18.08h19.47s5.84,0,5.84,0l-9.69-9.69Zm-13.89,5.9L15.28,3.87h14l2.64,2.64h0l.58.58h-8.79l3.81,3.81h8.79l3.39,3.39h-13.94Z"></path><polygon class="cls-2" points="3.51 .04 21.58 18.08 18.32 18.08 .28 .04 3.51 .04"></polygon><polygon class="cls-1" points="3.23 38.46 21.28 20.4 18.02 20.4 0 38.46 3.23 38.46"></polygon></g></g></svg>