<svg xmlns="http://www.w3.org/2000/svg" width="41" height="40" viewBox="0 0 41 40" fill="none"><g id="ion:social-buffer"><path id="Vector" d="M3.78252 11.6602L19.2044 19.107C19.606 19.2984 20.1419 19.3984 20.6724 19.3984C21.2028 19.3984 21.7388 19.2984 22.1395 19.107L37.5614 11.6602C38.3724 11.2695 38.3724 10.6305 37.5614 10.2383L22.1395 2.79141C21.7388 2.6 21.202 2.5 20.6724 2.5C20.1427 2.5 19.606 2.6 19.2044 2.79141L3.78252 10.2383C2.97158 10.6305 2.97158 11.268 3.78252 11.6602Z" fill="white"></path><path id="Vector_2" d="M37.5615 19.2891C37.5615 19.2891 34.7451 17.9312 34.3716 17.7484C33.9982 17.5656 33.8974 17.5758 33.5052 17.7578C33.113 17.9398 22.1302 23.2445 22.1302 23.2445C21.6673 23.4444 21.1672 23.544 20.663 23.5367C20.1341 23.5367 19.5966 23.4359 19.1959 23.2445C19.1959 23.2445 8.50444 18.0883 8.00288 17.8398C7.45991 17.5781 7.30366 17.5781 6.80913 17.8125L3.76226 19.2797C2.95132 19.6703 2.95132 20.3102 3.76226 20.7016L19.1865 28.1484C19.5873 28.3398 20.124 28.4398 20.6537 28.4398C21.1833 28.4398 21.7201 28.3398 22.1216 28.1484L37.5435 20.7031C38.3724 20.3188 38.3724 19.6813 37.5615 19.2891Z" fill="white"></path><path id="Vector_3" d="M37.5615 28.3402C37.5615 28.3402 34.7451 26.9823 34.3717 26.7972C33.9982 26.612 33.8975 26.6245 33.5053 26.8066C33.1131 26.9886 22.1396 32.305 22.1396 32.305C21.6766 32.5046 21.1766 32.6039 20.6725 32.5964C20.1436 32.5964 19.6061 32.4964 19.2045 32.305C19.2045 32.305 8.51309 27.1488 8.0123 26.9003C7.46543 26.6355 7.30918 26.6355 6.81777 26.873L3.7709 28.3402C2.95918 28.7308 2.95918 29.3698 3.7709 29.762L19.1928 37.2089C19.5936 37.4089 20.1303 37.5003 20.66 37.5003C21.1896 37.5003 21.7264 37.4003 22.1271 37.2089L37.5521 29.7659C38.3725 29.3698 38.3725 28.7323 37.5615 28.3402Z" fill="white"></path></g></svg>