<svg xmlns="http://www.w3.org/2000/svg" id="Layer_2" data-name="Layer 2" viewBox="0 0 105.67 24.48"><defs><style>      .cls-1 {        fill: #69c9d3;      }      .cls-2 {        fill: #005e88;      }    </style></defs><g id="Layer_1-2" data-name="Layer 1"><g><g><path class="cls-2" d="m35.12,4.15h5.05c1.33,0,2.26.19,2.8.57s.81,1.02.81,1.93v.69c0,.61-.15,1.07-.44,1.4-.29.33-.75.53-1.37.6.63.12,1.12.37,1.48.75.35.38.53.85.53,1.42v.63c0,1.02-.28,1.73-.83,2.14-.55.41-1.57.61-3.05.61h-4.98V4.15Zm2.86,2.38v1.9h2.03c.3,0,.52-.06.65-.18s.21-.3.21-.56v-.43c0-.26-.07-.45-.2-.56s-.35-.17-.66-.17h-2.03Zm0,3.96v2.01h2.14c.32,0,.55-.06.7-.18.15-.12.22-.32.22-.59v-.45c0-.27-.07-.47-.22-.59-.15-.12-.38-.19-.7-.19h-2.14Z"></path><path class="cls-2" d="m46.5,14.89l3.09-10.74h4.43l3.02,10.74h-3.09l-.48-1.88h-3.38l-.49,1.88h-3.09Zm4.1-4.06h2.35l-1.07-4.45h-.19l-1.1,4.45Z"></path><path class="cls-2" d="m69.15,7.51h-2.88c0-.32-.12-.56-.36-.72-.24-.16-.63-.24-1.17-.24h-.72c-.66,0-1.09.12-1.31.36-.21.24-.32.82-.32,1.74v1.77c0,.91.11,1.48.32,1.72.21.24.65.36,1.31.36h.8c.56,0,.95-.08,1.18-.24.23-.16.34-.43.34-.82v-.42h-1.65v-2h4.45v1.83c0,1.45-.32,2.51-.96,3.18s-1.64,1-3.02,1h-1.95c-1.21,0-2.12-.38-2.75-1.15-.63-.77-.94-1.9-.94-3.39v-1.63c0-1.68.33-2.9.99-3.67.66-.77,1.7-1.15,3.12-1.15h1.57c1.15,0,2.1.29,2.84.86.74.57,1.11,1.3,1.11,2.17v.46Z"></path><path class="cls-2" d="m72.46,14.89V4.15h8.06v2.39h-5.19v1.86h5.04v2.07h-5.04v2.02h5.3v2.39h-8.18Z"></path><path class="cls-2" d="m83.92,4.15h2.86v6.26c0,.86.11,1.42.32,1.69.22.26.67.4,1.35.4h.53c.67,0,1.11-.13,1.33-.38.22-.25.33-.82.33-1.7v-6.26h2.86v6.49c0,.97-.06,1.67-.18,2.12-.06.23-.13.44-.23.63s-.22.37-.37.55c-.33.38-.75.66-1.26.83-.51.17-1.19.26-2.04.26h-1.42c-.44,0-.83-.02-1.15-.06-.32-.04-.62-.1-.89-.2-.5-.16-.91-.44-1.25-.84-.28-.32-.49-.72-.61-1.2-.12-.48-.19-1.18-.19-2.1v-6.49Z"></path><path class="cls-2" d="m97.01,14.89V4.15h4.33c1.65,0,2.79.22,3.4.65.62.44.92,1.2.92,2.29v.87c0,.73-.17,1.29-.52,1.7s-.87.66-1.56.75c.72.12,1.25.35,1.58.72.33.36.5.88.5,1.55v2.21h-2.93v-1.93c0-.45-.09-.76-.26-.94-.18-.17-.5-.26-.98-.26h-1.6v3.13h-2.88Zm2.88-5.55h1.61c.48,0,.81-.08.98-.25.17-.17.26-.48.26-.93v-.41c0-.45-.09-.76-.26-.94-.18-.17-.5-.26-.98-.26h-1.61v2.79Z"></path></g><g><path class="cls-1" d="m37.83,19.68h-.78c0-.09-.03-.15-.1-.19-.07-.04-.17-.06-.31-.06h-.2c-.18,0-.3.03-.35.1-.06.06-.09.22-.09.47v.48c0,.25.03.4.09.47.06.06.17.1.35.1h.22c.15,0,.26-.02.32-.06.06-.04.09-.12.09-.22v-.11h-.44v-.54h1.2v.5c0,.39-.09.68-.26.86-.17.18-.44.27-.82.27h-.53c-.33,0-.57-.1-.74-.31-.17-.21-.25-.51-.25-.92v-.44c0-.45.09-.79.27-.99s.46-.31.85-.31h.42c.31,0,.57.08.77.23.2.16.3.35.3.59v.12Z"></path><path class="cls-1" d="m39.93,21.68v-2.91h1.17c.45,0,.75.06.92.18s.25.32.25.62v.23c0,.2-.05.35-.14.46-.09.11-.24.18-.42.2.2.03.34.1.43.19.09.1.14.24.14.42v.6h-.79v-.52c0-.12-.02-.21-.07-.25s-.14-.07-.27-.07h-.43v.85h-.78Zm.78-1.5h.44c.13,0,.22-.02.27-.07.05-.05.07-.13.07-.25v-.11c0-.12-.02-.21-.07-.25-.05-.05-.14-.07-.26-.07h-.44v.75Z"></path><path class="cls-1" d="m44.3,19.93c0-.44.08-.75.25-.92s.45-.26.87-.26h.38c.41,0,.7.09.87.26.17.18.25.48.25.92v.6c0,.44-.08.75-.25.92-.17.18-.45.26-.87.26h-.38c-.41,0-.7-.09-.86-.26-.17-.18-.25-.48-.25-.92v-.6Zm.8.06v.48c0,.25.03.4.08.47.06.06.17.09.35.09h.14c.18,0,.3-.03.35-.1.06-.07.09-.22.09-.47v-.48c0-.25-.03-.4-.09-.47-.06-.07-.17-.1-.35-.1h-.14c-.18,0-.29.03-.35.1-.06.07-.08.22-.08.47Z"></path><path class="cls-1" d="m48.85,18.78h.79l.27,2.23.45-2.23h.87l.42,2.23.3-2.23h.78l-.48,2.91h-1.11l-.36-1.97-.37,1.97h-1.12l-.45-2.91Z"></path><path class="cls-1" d="m54.79,21.68v-2.91h.79v2.91h-.79Z"></path><path class="cls-1" d="m57.78,21.68v-2.91h1.16l.9,2.16v-2.16h.74v2.91h-1.16l-.9-2.18v2.18h-.74Z"></path><path class="cls-1" d="m65.29,19.68h-.78c0-.09-.03-.15-.1-.19-.07-.04-.17-.06-.31-.06h-.2c-.18,0-.3.03-.35.1-.06.06-.09.22-.09.47v.48c0,.25.03.4.09.47.06.06.17.1.35.1h.22c.15,0,.26-.02.32-.06.06-.04.09-.12.09-.22v-.11h-.44v-.54h1.2v.5c0,.39-.09.68-.26.86-.17.18-.44.27-.82.27h-.53c-.33,0-.57-.1-.74-.31-.17-.21-.25-.51-.25-.92v-.44c0-.45.09-.79.27-.99s.46-.31.85-.31h.42c.31,0,.57.08.77.23.2.16.3.35.3.59v.12Z"></path><path class="cls-1" d="m70.95,21.68v-2.26h-.75v-.65h2.28v.65h-.74v2.26h-.79Z"></path><path class="cls-1" d="m74.41,19.93c0-.44.08-.75.25-.92s.45-.26.87-.26h.38c.41,0,.7.09.87.26.17.18.25.48.25.92v.6c0,.44-.08.75-.25.92-.17.18-.45.26-.87.26h-.38c-.41,0-.7-.09-.86-.26-.17-.18-.25-.48-.25-.92v-.6Zm.8.06v.48c0,.25.03.4.08.47.06.06.17.09.35.09h.14c.18,0,.3-.03.35-.1.06-.07.09-.22.09-.47v-.48c0-.25-.03-.4-.09-.47-.06-.07-.17-.1-.35-.1h-.14c-.18,0-.29.03-.35.1-.06.07-.08.22-.08.47Z"></path><path class="cls-1" d="m81.63,19.68h-.78c0-.09-.03-.15-.1-.19-.07-.04-.17-.06-.31-.06h-.2c-.18,0-.3.03-.35.1-.06.06-.09.22-.09.47v.48c0,.25.03.4.09.47.06.06.17.1.35.1h.22c.15,0,.26-.02.32-.06.06-.04.09-.12.09-.22v-.11h-.44v-.54h1.2v.5c0,.39-.09.68-.26.86-.17.18-.44.27-.82.27h-.53c-.33,0-.57-.1-.74-.31-.17-.21-.25-.51-.25-.92v-.44c0-.45.09-.79.27-.99s.46-.31.85-.31h.42c.31,0,.57.08.77.23.2.16.3.35.3.59v.12Z"></path><path class="cls-1" d="m83.72,21.68v-2.91h2.18v.65h-1.4v.5h1.36v.56h-1.36v.55h1.43v.65h-2.21Z"></path><path class="cls-1" d="m88.64,21.68v-2.26h-.75v-.65h2.28v.65h-.74v2.26h-.79Z"></path><path class="cls-1" d="m92.18,21.68v-2.91h.78v1.09h1.02v-1.09h.78v2.91h-.78v-1.14h-1.02v1.14h-.78Z"></path><path class="cls-1" d="m96.95,21.68v-2.91h2.18v.65h-1.4v.5h1.36v.56h-1.36v.55h1.43v.65h-2.21Z"></path><path class="cls-1" d="m101.29,21.68v-2.91h1.17c.45,0,.75.06.92.18s.25.32.25.62v.23c0,.2-.05.35-.14.46-.09.11-.24.18-.42.2.2.03.34.1.43.19.09.1.14.24.14.42v.6h-.79v-.52c0-.12-.02-.21-.07-.25s-.14-.07-.27-.07h-.43v.85h-.78Zm.78-1.5h.44c.13,0,.22-.02.27-.07.05-.05.07-.13.07-.25v-.11c0-.12-.02-.21-.07-.25-.05-.05-.14-.07-.26-.07h-.44v.75Z"></path></g><g><polygon class="cls-1" points="28.97 15.4 31.38 12.98 15.28 12.98 3.78 24.48 19.88 24.48 26.81 17.55 17.45 17.55 15.02 19.98 20.67 19.98 18.63 22.02 9.72 22.02 16.38 15.4 28.97 15.4"></polygon><path class="cls-2" d="m25.21,5.34h-1.59v-1.59l-3.75-3.75H3.78l11.5,11.5h12.39s3.71,0,3.71,0l-6.17-6.17Zm-8.84,3.75l-6.66-6.63h8.91l1.68,1.68h0l.37.37h-5.59l2.42,2.42h5.59l2.16,2.16h-8.87Z"></path><polygon class="cls-2" points="2.23 .02 13.73 11.5 11.65 11.5 .18 .02 2.23 .02"></polygon><polygon class="cls-1" points="2.05 24.47 13.54 12.98 11.46 12.98 0 24.47 2.05 24.47"></polygon></g></g></g></svg>