<svg xmlns="http://www.w3.org/2000/svg" width="36.54" height="47.941" viewBox="0 0 36.54 47.941"><g id="app" transform="translate(-66.979 -8)"><path id="Path_8972" data-name="Path 8972" d="M158.186,456h-5.413a.773.773,0,0,0,0,1.547h5.413a.773.773,0,0,0,0-1.547Z" transform="translate(-76.803 -404.698)" fill="#fff"></path><path id="Path_8973" data-name="Path 8973" d="M233.546,456h-.773a.773.773,0,0,0,0,1.547h.773a.773.773,0,0,0,0-1.547Z" transform="translate(-149.071 -404.698)" fill="#fff"></path><path id="Path_8974" data-name="Path 8974" d="M103.293,42.359l-4.9-4.9V23.2l2.165-2.165a.769.769,0,0,0,.187-.3l1.64-4.922a.773.773,0,0,0-.978-.978l-3.014,1V11.093A3.1,3.1,0,0,0,95.3,8H75.2A3.1,3.1,0,0,0,72.1,11.093v4.5l-4.9,4.9a.773.773,0,0,0,0,1.093l4.9,4.9V40.741L68.3,44.547A3.093,3.093,0,0,0,72.1,49.37v3.479A3.1,3.1,0,0,0,75.2,55.941H95.3a3.1,3.1,0,0,0,3.093-3.093v-4.5l4.9-4.9A.773.773,0,0,0,103.293,42.359ZM100.43,16.79l-.482,1.447-.965-.965Zm-3.088,1.028,2.06,2.06-.065.193-.418.418L96.731,18.3l.418-.418ZM90.17,29.237l-.547-.547,6.561-6.561a.774.774,0,1,0-1.094-1.094L88.529,27.6l-.547-.546,7.655-7.655,2.187,2.188-.748.748,0,0Zm6.677-4.49V35.914l-5.583-5.583Zm-7.98-15.2-.435,1.546H81.987L81.6,9.546ZM73.65,11.093A1.549,1.549,0,0,1,75.2,9.546h4.809l.627,2.507a.773.773,0,0,0,.75.586h7.636a.773.773,0,0,0,.744-.563l.711-2.529H95.3a1.549,1.549,0,0,1,1.546,1.546v5.26l-.361.121a.769.769,0,0,0-.3.187l-9.294,9.3L74.86,13.927a.773.773,0,0,0-1.093,0l-.117.117ZM71.581,47.827a1.547,1.547,0,1,1-2.188-2.187l1.093-1.094,2.188,2.188Zm0-4.375.547-.546,2.186,2.186-.546.547Zm8.748-8.747,2.187,2.187L75.407,44,73.22,41.812Zm-6.678,4.49V28.027l5.584,5.584Zm23.2,13.654A1.549,1.549,0,0,1,95.3,54.395H75.2a1.549,1.549,0,0,1-1.547-1.547v-4.9l9.959-9.958L95.637,50.014a.773.773,0,0,0,1.093,0l.117-.117Zm-.663-4.474L94,46.187l.547-.547a.773.773,0,1,0-1.094-1.093l-.546.546L91.81,44l1.64-1.64a.773.773,0,0,0-1.093-1.093l-1.64,1.64-1.094-1.094.547-.546a.773.773,0,0,0-1.093-1.094l-.547.547-1.093-1.093,1.64-1.64a.774.774,0,0,0-1.094-1.094l-1.64,1.64-1.093-1.093.547-.547A.773.773,0,1,0,84.7,35.8l-.546.546h0l-1.092-1.092,1.64-1.64a.773.773,0,0,0-1.093-1.093l-1.64,1.64-1.091-1.091,0,0,.546-.546a.773.773,0,0,0-1.093-1.094l-.547.547-1.093-1.093,1.64-1.64a.774.774,0,1,0-1.094-1.094l-1.64,1.64L76.5,28.69l.547-.547a.773.773,0,0,0-1.094-1.093l-.546.547L74.313,26.5l1.64-1.64a.773.773,0,0,0-1.093-1.093l-1.64,1.64-1.093-1.094.546-.546a.773.773,0,0,0-1.093-1.094l-.547.547-2.187-2.187,3.828-3.827,27.338,27.338Zm4.921-4.922L73.767,16.114l.546-.547L86.34,27.594l0,0,0,0,1.636,1.637h0l1.638,1.637,0,0,0,0,7.444,7.444.007.007,4.575,4.575Z" fill="#fff"></path></g></svg>