<svg xmlns="http://www.w3.org/2000/svg" width="14.58" height="20.705" viewBox="0 0 14.58 20.705"><g id="mouse" transform="translate(-75.726)"><g id="Group_3217" data-name="Group 3217" transform="translate(75.726)"><g id="Group_3216" data-name="Group 3216" transform="translate(0)"><path id="Path_8961" data-name="Path 8961" d="M83.016,0a7.356,7.356,0,0,0-7.29,7.4v5.9a7.291,7.291,0,1,0,14.58.023V7.4A7.356,7.356,0,0,0,83.016,0Zm5.919,13.323A5.92,5.92,0,1,1,77.1,13.3V7.4a5.92,5.92,0,1,1,11.838,0Z" transform="translate(-75.726)" fill="#242f65"></path></g></g><g id="Group_3219" data-name="Group 3219" transform="translate(82.33 5.667)"><g id="Group_3218" data-name="Group 3218"><path id="Path_8962" data-name="Path 8962" d="M239.732,140.15a.686.686,0,0,0-.686.686v2.4a.686.686,0,0,0,1.371,0v-2.4A.685.685,0,0,0,239.732,140.15Z" transform="translate(-239.046 -140.15)" fill="#242f65"></path></g></g></g></svg>