<svg xmlns="http://www.w3.org/2000/svg" id="wireframe" width="43.793" height="43.793" viewBox="0 0 43.793 43.793"><g id="Group_3221" data-name="Group 3221"><g id="Group_3220" data-name="Group 3220"><path id="Path_8963" data-name="Path 8963" d="M39.944,0H3.849A3.853,3.853,0,0,0,0,3.849v36.1a3.853,3.853,0,0,0,3.849,3.849h36.1a3.853,3.853,0,0,0,3.849-3.849V3.849A3.853,3.853,0,0,0,39.944,0ZM2.566,3.849A1.284,1.284,0,0,1,3.849,2.566H28.312v7.7H2.566Zm38.661,36.1a1.284,1.284,0,0,1-1.283,1.283H3.849a1.284,1.284,0,0,1-1.283-1.283V12.83H41.227Zm0-29.68H30.878v-7.7h9.067a1.284,1.284,0,0,1,1.283,1.283Z" fill="#fff"></path></g></g><g id="Group_3223" data-name="Group 3223" transform="translate(5.132 15.567)"><g id="Group_3222" data-name="Group 3222"><path id="Path_8964" data-name="Path 8964" d="M76.681,182h-15.4A1.282,1.282,0,0,0,60,183.264c0,.007,0,.013,0,.019v10.264c0,.007,0,.013,0,.019a1.27,1.27,0,0,0,1.274,1.246H76.687a1.283,1.283,0,0,0,.137-.008,1.267,1.267,0,0,0,1.138-1.238c0-.007,0-.013,0-.019V183.292A1.284,1.284,0,0,0,76.681,182Zm-4.239,2.566-3.461,2.307-3.461-2.307Zm-9.876,1.114,4.1,2.735-4.1,2.735Zm2.954,6.584,3.461-2.307,3.461,2.307ZM75.4,191.15l-4.1-2.735,4.1-2.735Z" transform="translate(-60 -182)" fill="#fff"></path></g></g><g id="Group_3225" data-name="Group 3225" transform="translate(25.746 15.567)"><g id="Group_3224" data-name="Group 3224"><path id="Path_8965" data-name="Path 8965" d="M312.633,182h-10.35a1.283,1.283,0,0,0,0,2.566h10.35a1.283,1.283,0,0,0,0-2.566Z" transform="translate(-301 -182)" fill="#fff"></path></g></g><g id="Group_3227" data-name="Group 3227" transform="translate(25.746 20.699)"><g id="Group_3226" data-name="Group 3226"><path id="Path_8966" data-name="Path 8966" d="M312.633,242h-10.35a1.283,1.283,0,0,0,0,2.566h10.35a1.283,1.283,0,0,0,0-2.566Z" transform="translate(-301 -242)" fill="#fff"></path></g></g><g id="Group_3229" data-name="Group 3229" transform="translate(25.746 25.831)"><g id="Group_3228" data-name="Group 3228"><path id="Path_8967" data-name="Path 8967" d="M312.633,302h-10.35a1.283,1.283,0,0,0,0,2.566h10.35a1.283,1.283,0,0,0,0-2.566Z" transform="translate(-301 -302)" fill="#fff"></path></g></g><g id="Group_3231" data-name="Group 3231" transform="translate(5.132 30.963)"><g id="Group_3230" data-name="Group 3230"><path id="Path_8968" data-name="Path 8968" d="M92.246,362H61.283A1.283,1.283,0,0,0,60,363.283v5.132a1.283,1.283,0,0,0,1.283,1.283H92.246a1.283,1.283,0,0,0,1.283-1.283v-5.132A1.283,1.283,0,0,0,92.246,362Zm-1.283,5.132h-28.4v-2.566h28.4Z" transform="translate(-60 -362)" fill="#fff"></path></g></g><g id="Group_3233" data-name="Group 3233" transform="translate(5.132 5.132)"><g id="Group_3232" data-name="Group 3232"><path id="Path_8969" data-name="Path 8969" d="M63.849,60H61.283a1.283,1.283,0,1,0,0,2.566h2.566a1.283,1.283,0,0,0,0-2.566Z" transform="translate(-60 -60)" fill="#fff"></path></g></g><g id="Group_3235" data-name="Group 3235" transform="translate(12.83 5.132)"><g id="Group_3234" data-name="Group 3234"><path id="Path_8970" data-name="Path 8970" d="M153.849,60h-2.566a1.283,1.283,0,0,0,0,2.566h2.566a1.283,1.283,0,1,0,0-2.566Z" transform="translate(-150 -60)" fill="#fff"></path></g></g><g id="Group_3237" data-name="Group 3237" transform="translate(20.528 5.132)"><g id="Group_3236" data-name="Group 3236"><path id="Path_8971" data-name="Path 8971" d="M243.935,60h-2.652a1.283,1.283,0,1,0,0,2.566h2.652a1.283,1.283,0,0,0,0-2.566Z" transform="translate(-240 -60)" fill="#fff"></path></g></g></svg>