<svg xmlns="http://www.w3.org/2000/svg" width="100" height="100" viewBox="0 0 100 100" fill="none"><mask id="mask0_4234_1313" style="mask-type:luminance" maskUnits="userSpaceOnUse" x="76" y="46" width="14" height="16"><path d="M76 46.6667H90V61.3334H76V46.6667Z" fill="white"></path></mask><g mask="url(#mask0_4234_1313)"><path d="M83.599 46.7344C83.4063 46.7344 83.2188 46.776 83.0521 46.8698L77.7552 49.9271C77.4115 50.125 77.2031 50.5 77.2031 50.8958V57C77.2031 57.3958 77.4115 57.7708 77.7552 57.9688L79.1406 58.7656C79.8125 59.099 80.0573 59.0938 80.3646 59.0938C81.3594 59.0938 81.9271 58.4896 81.9271 57.4375V51.4115C81.9271 51.3281 81.8542 51.2656 81.7708 51.2656H81.1042C81.0208 51.2656 80.9479 51.3281 80.9479 51.4115V57.4375C80.9479 57.901 80.4635 58.3698 79.6771 57.9792L78.2396 57.1354C78.1875 57.1094 78.151 57.0573 78.151 57V50.8958C78.151 50.8385 78.1875 50.7813 78.2396 50.75L83.5208 47.7031C83.5729 47.6719 83.6302 47.6719 83.6823 47.7031L88.9635 50.75C89.0156 50.7813 89.0521 50.8385 89.0521 50.8958V57C89.0521 57.0573 89.026 57.1198 88.974 57.1458L83.6823 60.1927C83.6354 60.2188 83.5729 60.2188 83.5208 60.1927L82.1615 59.3854C82.1198 59.3594 82.0729 59.3594 82.026 59.3854C81.651 59.599 81.5833 59.6198 81.2292 59.7448C81.1406 59.776 81.0104 59.8229 81.276 59.9688L83.0521 61.0156C83.2188 61.1146 83.4063 61.1615 83.6042 61.1615C83.7969 61.1615 83.9844 61.1146 84.151 61.0156L89.4479 57.9688C89.7917 57.7656 90 57.3958 90 57V50.8958C90 50.5 89.7917 50.125 89.4479 49.9271L84.151 46.8698C83.9844 46.776 83.7969 46.7344 83.6042 46.7344H83.599Z" fill="#83CD29"></path></g><path d="M85.015 51.0989C83.5098 51.0989 82.6139 51.7395 82.6139 52.8072C82.6139 53.9635 83.5046 54.2812 84.9525 54.427C86.6816 54.5937 86.8171 54.8489 86.8171 55.1926C86.8171 55.7812 86.3431 56.0312 85.2337 56.0312C83.8327 56.0312 83.5254 55.6822 83.4212 54.9895C83.4108 54.9114 83.3535 54.8541 83.2754 54.8541H82.5879C82.5046 54.8541 82.4316 54.927 82.4316 55.0103C82.4316 55.901 82.916 56.953 85.2337 56.953C86.9056 56.953 87.8743 56.2968 87.8743 55.1458C87.8743 54.0051 87.0931 53.6978 85.4681 53.4791C83.8275 53.2655 83.666 53.1562 83.666 52.7708C83.666 52.4583 83.8014 52.0312 85.015 52.0312C86.1035 52.0312 86.5046 52.2655 86.6712 52.9999C86.6868 53.0676 86.7441 53.1197 86.8171 53.1197H87.5046C87.5462 53.1197 87.5827 53.0937 87.6139 53.0676C87.6452 53.0312 87.666 52.9947 87.6608 52.953C87.5514 51.6926 86.7129 51.0989 85.015 51.0989Z" fill="#83CD29"></path><mask id="mask1_4234_1313" style="mask-type:luminance" maskUnits="userSpaceOnUse" x="10" y="38" width="64" height="24"><path d="M10 38.6667H73.3333V61.3334H10V38.6667Z" fill="white"></path></mask><g mask="url(#mask1_4234_1313)"><path d="M52.4733 38.7292C52.4108 38.7292 52.3535 38.7449 52.3014 38.7761C52.1921 38.8438 52.1348 38.9376 52.1348 39.0678V47.6667C52.1348 47.7553 52.0931 47.8282 52.0202 47.8699C51.9421 47.9167 51.8639 47.9167 51.7858 47.8699L50.3796 47.0626C50.1556 46.9324 49.9316 46.9324 49.7077 47.0626L44.0983 50.3022C43.8848 50.422 43.7598 50.6511 43.7598 50.8959V57.3699C43.7598 57.6147 43.8848 57.8334 44.0983 57.9584L49.7077 61.1928C49.9316 61.323 50.1556 61.323 50.3796 61.1928L55.9889 57.9584C56.2129 57.8282 56.3275 57.6303 56.3275 57.3699V41.2292C56.3275 40.9636 56.2129 40.7605 55.9785 40.6303L52.64 38.7657C52.5879 38.7345 52.5306 38.7292 52.4733 38.7292ZM16.3848 46.8126C16.2754 46.8178 16.1764 46.8386 16.0827 46.8959L10.4681 50.1303C10.2441 50.2605 10.1348 50.4532 10.1348 50.7136L10.1452 59.4063C10.1452 59.5261 10.2077 59.6407 10.3118 59.698C10.4264 59.7657 10.5358 59.7657 10.6504 59.698L13.9785 57.7865C14.1868 57.6615 14.3275 57.4428 14.3275 57.2032V53.1459C14.3275 52.9011 14.4525 52.6824 14.666 52.5574L16.0827 51.7397C16.1868 51.6772 16.2962 51.6459 16.416 51.6511C16.5358 51.6511 16.6504 51.6772 16.7546 51.7397L18.1712 52.5574C18.3952 52.6876 18.5098 52.8855 18.5098 53.1459V57.2032C18.5098 57.4428 18.6504 57.6615 18.8587 57.7865L22.1868 59.698C22.2962 59.7657 22.4108 59.7657 22.5202 59.698C22.6348 59.6355 22.6921 59.5365 22.6921 59.4063L22.7025 50.7136C22.7025 50.4532 22.5931 50.2605 22.3639 50.1303L16.7546 46.8959C16.6608 46.8386 16.5566 46.8178 16.4525 46.8126H16.3848ZM66.7962 46.8959C66.6764 46.8959 66.5619 46.922 66.4577 46.9845L60.8483 50.2188C60.6191 50.349 60.5098 50.547 60.5098 50.8074V57.2813C60.5098 57.5261 60.6452 57.7449 60.8587 57.8647L66.4212 61.0365C66.6296 61.1511 66.8796 61.1615 67.0879 61.047L70.4577 59.172C70.5671 59.1095 70.64 59.0001 70.64 58.8803C70.64 58.7449 70.5827 58.6511 70.4681 58.5834L64.8275 55.349C64.7233 55.2865 64.6452 55.1667 64.6452 55.0417V53.0209C64.6452 52.9011 64.7233 52.7865 64.8275 52.7292L66.5827 51.7188C66.6921 51.6511 66.8066 51.6511 66.916 51.7188L68.6712 52.7292C68.7858 52.7917 68.8379 52.8907 68.8379 53.0209V54.6147C68.8379 54.7449 68.8952 54.8438 69.0098 54.9115C69.1139 54.9688 69.2389 54.9688 69.3483 54.9115L72.7077 52.9532C72.9316 52.823 73.0462 52.6303 73.0462 52.3699V50.8074C73.0462 50.5626 72.916 50.3438 72.7077 50.2188L67.1296 46.9845C67.0254 46.922 66.916 46.8907 66.7962 46.8959ZM50.0202 51.7292C50.0514 51.7292 50.0827 51.7345 50.1087 51.7501L52.0306 52.8647C52.0827 52.8907 52.1244 52.948 52.1244 53.0105V55.2345C52.1244 55.297 52.0879 55.349 52.0306 55.3803L50.1087 56.4949C50.0566 56.5261 49.9994 56.5261 49.9421 56.4949L48.0202 55.3803C47.9681 55.349 47.9316 55.297 47.9316 55.2345V53.0105C47.9316 52.948 47.9681 52.8959 48.0202 52.8647L49.9421 51.7501C49.9681 51.7345 49.9941 51.7292 50.0202 51.7292Z" fill="#404137"></path></g><path d="M33.2344 46.8594C33.1198 46.8594 33.0052 46.8906 32.901 46.9479L27.2917 50.1771C27.0781 50.2969 26.9531 50.5313 26.9531 50.7708V57.25C26.9531 57.4896 27.0781 57.7083 27.2917 57.8333L32.901 61.0677C33.125 61.1979 33.349 61.1979 33.5729 61.0677L39.1823 57.8333C39.4115 57.7031 39.5208 57.5052 39.5208 57.25V50.7708C39.5208 50.5313 39.3958 50.2969 39.1823 50.1771L33.5729 46.9479C33.4687 46.8906 33.3594 46.8594 33.2344 46.8594ZM66.7813 52.6406C66.7604 52.6406 66.7344 52.6406 66.7135 52.651L65.6354 53.2813C65.5938 53.3021 65.5677 53.3385 65.5677 53.3906V54.6302C65.5677 54.6771 65.5938 54.7187 65.6354 54.7396L66.7135 55.3594C66.7552 55.3802 66.8021 55.3802 66.8385 55.3594L67.9167 54.7396C67.9635 54.7135 67.9844 54.6771 67.9844 54.6302V53.3906C67.9844 53.3385 67.9635 53.3021 67.9167 53.2813L66.8385 52.651C66.8177 52.6354 66.8073 52.6406 66.7813 52.6406Z" fill="#83CD29"></path></svg>