<svg xmlns="http://www.w3.org/2000/svg" xmlns:xlink="http://www.w3.org/1999/xlink" width="1571px" height="603px" style="shape-rendering:geometricPrecision; text-rendering:geometricPrecision; image-rendering:optimizeQuality; fill-rule:evenodd; clip-rule:evenodd"><g><path style="opacity:0.985" fill="#f6a723" d="M 1289.5,-0.5 C 1292.5,-0.5 1295.5,-0.5 1298.5,-0.5C 1318.29,4.83829 1326.79,17.8383 1324,38.5C 1307.19,70.7876 1289.86,102.788 1272,134.5C 1269.83,136.667 1267.67,138.833 1265.5,141C 1302.83,141.5 1340.17,141.667 1377.5,141.5C 1376.37,147.813 1375.37,154.146 1374.5,160.5C 1373.55,161.919 1373.22,163.585 1373.5,165.5C 1306.17,165.333 1238.83,165.5 1171.5,166C 1147.7,172.799 1131.2,187.632 1122,210.5C 1117.94,230.412 1125.77,242.078 1145.5,245.5C 1171.5,246.167 1197.5,246.833 1223.5,247.5C 1215.11,250.909 1206.44,253.409 1197.5,255C 1149.17,255.5 1100.83,255.667 1052.5,255.5C 1052.5,248.167 1052.5,240.833 1052.5,233.5C 1119.79,182.716 1186.96,131.716 1254,80.5C 1243.19,101.533 1232.02,122.533 1220.5,143.5C 1235.11,143.432 1246.61,137.099 1255,124.5C 1268.75,98.6733 1282.75,73.0066 1297,47.5C 1300.31,38.1232 1296.97,32.7899 1287,31.5C 1284.46,31.3836 1282.29,32.217 1280.5,34C 1204.65,91.7519 1128.65,149.252 1052.5,206.5C 1052.5,195.833 1052.5,185.167 1052.5,174.5C 1128.01,117.166 1203.67,59.9988 1279.5,3C 1282.85,1.51368 1286.18,0.347016 1289.5,-0.5 Z"></path></g><g><path style="opacity:1" fill="#fefefd" d="M 1052.5,233.5 C 1042.99,240.835 1033.33,248.002 1023.5,255C 1033.16,255.5 1042.83,255.666 1052.5,255.5C 1100.83,255.667 1149.17,255.5 1197.5,255C 1206.44,253.409 1215.11,250.909 1223.5,247.5C 1224.29,247.217 1224.96,246.717 1225.5,246C 1198.84,245.5 1172.17,245.333 1145.5,245.5C 1125.77,242.078 1117.94,230.412 1122,210.5C 1131.2,187.632 1147.7,172.799 1171.5,166C 1238.83,165.5 1306.17,165.333 1373.5,165.5C 1380.17,165.5 1386.83,165.5 1393.5,165.5C 1402.45,167.606 1404.95,172.94 1401,181.5C 1388.67,191.066 1376.51,200.732 1364.5,210.5C 1277.4,275.759 1190.4,341.259 1103.5,407C 1090.64,411.82 1085.14,407.32 1087,393.5C 1100.94,368.628 1114.6,343.628 1128,318.5C 1134.98,306.514 1145.31,299.514 1159,297.5C 1160.5,297.833 1162,298.167 1163.5,298.5C 1152.07,318.695 1141.24,339.028 1131,359.5C 1207.04,301.95 1283.21,244.617 1359.5,187.5C 1360.04,187.44 1360.38,187.107 1360.5,186.5C 1299.67,185.168 1239,185.168 1178.5,186.5C 1172.25,187.458 1166.59,189.791 1161.5,193.5C 1160.71,193.783 1160.04,194.283 1159.5,195C 1185.83,195.5 1212.16,195.667 1238.5,195.5C 1256.63,198.469 1264.79,209.136 1263,227.5C 1259.05,241.776 1250.89,252.943 1238.5,261C 1227.29,268.737 1214.96,273.737 1201.5,276C 1151.5,276.5 1101.5,276.667 1051.5,276.5C 1030.16,276.667 1008.83,276.5 987.5,276C 985.677,275.003 984.01,273.836 982.5,272.5C 980.864,267.919 981.197,263.586 983.5,259.5C 1006.36,241.58 1029.36,223.913 1052.5,206.5C 1128.65,149.252 1204.65,91.7519 1280.5,34C 1282.29,32.217 1284.46,31.3836 1287,31.5C 1296.97,32.7899 1300.31,38.1232 1297,47.5C 1282.75,73.0066 1268.75,98.6733 1255,124.5C 1246.61,137.099 1235.11,143.432 1220.5,143.5C 1232.02,122.533 1243.19,101.533 1254,80.5C 1186.96,131.716 1119.79,182.716 1052.5,233.5 Z"></path></g><g><path style="opacity:0.99" fill="#212c63" d="M 76.5,70.5 C 127.834,70.3333 179.168,70.5 230.5,71C 246.96,74.1288 257.793,83.6288 263,99.5C 263.667,105.833 263.667,112.167 263,118.5C 258,144.167 253,169.833 248,195.5C 242.688,213.968 232.521,229.134 217.5,241C 231.698,251.734 238.365,266.067 237.5,284C 235.757,303.05 232.591,321.883 228,340.5C 218.777,367.717 201.61,388.217 176.5,402C 161.165,410.222 144.832,415.222 127.5,417C 88.1681,417.5 48.8347,417.667 9.5,417.5C 31.9616,301.859 54.2949,186.192 76.5,70.5 Z M 134.5,135.5 C 152.833,135.5 171.167,135.5 189.5,135.5C 186.067,153.833 182.567,172.167 179,190.5C 174.574,201.652 166.408,208.485 154.5,211C 142.838,211.5 131.171,211.667 119.5,211.5C 124.249,186.087 129.249,160.754 134.5,135.5 Z M 106.5,276.5 C 122.557,276.062 138.557,276.562 154.5,278C 162.059,280.948 166.392,286.448 167.5,294.5C 164.781,308.93 161.614,323.263 158,337.5C 152.344,346.474 144.177,351.307 133.5,352C 119.837,352.5 106.171,352.667 92.5,352.5C 97.0378,327.144 101.704,301.811 106.5,276.5 Z"></path></g><g><path style="opacity:0.989" fill="#212c63" d="M 349.5,70.5 C 380.5,70.5 411.5,70.5 442.5,70.5C 442.607,186.168 442.273,301.835 441.5,417.5C 418.167,417.5 394.833,417.5 371.5,417.5C 371.5,394.167 371.5,370.833 371.5,347.5C 352.164,347.333 332.83,347.5 313.5,348C 304.004,370.989 295.004,394.155 286.5,417.5C 262.833,417.5 239.167,417.5 215.5,417.5C 259.883,301.733 304.549,186.066 349.5,70.5 Z M 381.5,142.5 C 382.124,142.917 382.457,143.584 382.5,144.5C 378.282,190.453 374.615,236.453 371.5,282.5C 360.495,282.667 349.495,282.5 338.5,282C 353.335,235.66 367.669,189.16 381.5,142.5 Z"></path></g><g><path style="opacity:0.99" fill="#212c63" d="M 512.5,70.5 C 563.834,70.3333 615.168,70.5 666.5,71C 691.138,77.3156 701.971,93.149 699,118.5C 693.765,147.343 687.765,176.01 681,204.5C 675.259,219.242 666.092,231.409 653.5,241C 670.598,255.149 677.098,273.315 673,295.5C 669.922,311.558 666.588,327.558 663,343.5C 653.286,369.209 636.453,388.709 612.5,402C 597.165,410.222 580.832,415.222 563.5,417C 524.168,417.5 484.835,417.667 445.5,417.5C 467.962,301.858 490.295,186.191 512.5,70.5 Z M 570.5,135.5 C 588.833,135.5 607.167,135.5 625.5,135.5C 622.067,153.832 618.567,172.166 615,190.5C 610.517,201.644 602.35,208.477 590.5,211C 578.838,211.5 567.171,211.667 555.5,211.5C 560.249,186.087 565.249,160.754 570.5,135.5 Z M 542.5,276.5 C 558.557,276.062 574.557,276.562 590.5,278C 600.767,282.098 604.6,289.598 602,300.5C 599.795,311.861 597.461,323.194 595,334.5C 589.873,345.154 581.373,350.987 569.5,352C 555.837,352.5 542.171,352.667 528.5,352.5C 533.038,327.144 537.704,301.811 542.5,276.5 Z"></path></g><g><path style="opacity:0.988" fill="#212c63" d="M 740.5,70.5 C 763.833,70.5 787.167,70.5 810.5,70.5C 792.629,164.523 774.629,258.523 756.5,352.5C 781.833,352.5 807.167,352.5 832.5,352.5C 824.593,374.15 816.26,395.65 807.5,417C 762.83,417.833 718.163,417.667 673.5,416.5C 696.347,301.265 718.68,185.931 740.5,70.5 Z"></path></g><g><path style="opacity:0.989" fill="#212c63" d="M 1052.5,174.5 C 1052.5,185.167 1052.5,195.833 1052.5,206.5C 1029.36,223.913 1006.36,241.58 983.5,259.5C 984.167,248.167 984.833,236.833 985.5,225.5C 988.253,197.874 990.42,170.207 992,142.5C 981.726,175.821 971.559,209.154 961.5,242.5C 956.625,254.863 952.625,267.53 949.5,280.5C 949.328,281.492 949.662,282.158 950.5,282.5C 960.833,282.5 971.167,282.5 981.5,282.5C 981.253,279.061 981.586,275.728 982.5,272.5C 984.01,273.836 985.677,275.003 987.5,276C 1008.83,276.5 1030.16,276.667 1051.5,276.5C 1051.17,284.352 1051.51,292.018 1052.5,299.5C 1052.5,338.833 1052.5,378.167 1052.5,417.5C 1028.83,417.5 1005.17,417.5 981.5,417.5C 981.5,394.167 981.5,370.833 981.5,347.5C 962.155,347.167 942.822,347.5 923.5,348.5C 914.5,371.167 905.5,393.833 896.5,416.5C 872.833,417.833 849.167,417.833 825.5,416.5C 870.167,301.5 914.833,186.5 959.5,71.5C 990.493,70.5002 1021.49,70.1668 1052.5,70.5C 1052.5,105.167 1052.5,139.833 1052.5,174.5 Z M 985.5,225.5 C 977.482,231.192 969.482,236.858 961.5,242.5C 971.559,209.154 981.726,175.821 992,142.5C 990.42,170.207 988.253,197.874 985.5,225.5 Z"></path></g><g><path style="opacity:0.989" fill="#212c63" d="M 1570.5,70.5 C 1570.5,70.8333 1570.5,71.1667 1570.5,71.5C 1552.41,92.7695 1534.07,113.936 1515.5,135C 1493.17,135.5 1470.84,135.667 1448.5,135.5C 1430.4,229.166 1412.23,322.832 1394,416.5C 1370.91,417.494 1347.74,417.827 1324.5,417.5C 1335.06,361.148 1345.73,304.815 1356.5,248.5C 1359.29,235.885 1361.96,223.218 1364.5,210.5C 1376.51,200.732 1388.67,191.066 1401,181.5C 1404.95,172.94 1402.45,167.606 1393.5,165.5C 1387.36,164.51 1381.02,164.177 1374.5,164.5C 1374.5,163.167 1374.5,161.833 1374.5,160.5C 1375.37,154.146 1376.37,147.813 1377.5,141.5C 1378.15,139.565 1378.48,137.565 1378.5,135.5C 1349.17,135.5 1319.83,135.5 1290.5,135.5C 1300.27,113.955 1310.61,92.6217 1321.5,71.5C 1404.5,70.5 1487.5,70.1667 1570.5,70.5 Z"></path></g><g><path style="opacity:1" fill="#7c7492" d="M 1374.5,160.5 C 1374.5,161.833 1374.5,163.167 1374.5,164.5C 1381.02,164.177 1387.36,164.51 1393.5,165.5C 1386.83,165.5 1380.17,165.5 1373.5,165.5C 1373.22,163.585 1373.55,161.919 1374.5,160.5 Z"></path></g><g><path style="opacity:1" fill="#fde6c4" d="M 1178.5,186.5 C 1239,185.168 1299.67,185.168 1360.5,186.5C 1360.38,187.107 1360.04,187.44 1359.5,187.5C 1299.34,186.501 1239,186.168 1178.5,186.5 Z"></path></g><g><path style="opacity:0.988" fill="#f6a722" d="M 1178.5,186.5 C 1239,186.168 1299.34,186.501 1359.5,187.5C 1283.21,244.617 1207.04,301.95 1131,359.5C 1141.24,339.028 1152.07,318.695 1163.5,298.5C 1162,298.167 1160.5,297.833 1159,297.5C 1145.31,299.514 1134.98,306.514 1128,318.5C 1114.6,343.628 1100.94,368.628 1087,393.5C 1085.14,407.32 1090.64,411.82 1103.5,407C 1190.4,341.259 1277.4,275.759 1364.5,210.5C 1361.96,223.218 1359.29,235.885 1356.5,248.5C 1272.38,311.45 1188.38,374.617 1104.5,438C 1084.13,445.396 1069.63,439.23 1061,419.5C 1058.84,411.287 1059.51,403.287 1063,395.5C 1078.33,367.5 1093.67,339.5 1109,311.5C 1111.81,307.39 1114.98,303.557 1118.5,300C 1096.5,299.5 1074.5,299.333 1052.5,299.5C 1051.51,292.018 1051.17,284.352 1051.5,276.5C 1101.5,276.667 1151.5,276.5 1201.5,276C 1214.96,273.737 1227.29,268.737 1238.5,261C 1250.89,252.943 1259.05,241.776 1263,227.5C 1264.79,209.136 1256.63,198.469 1238.5,195.5C 1212.83,194.833 1187.17,194.167 1161.5,193.5C 1166.59,189.791 1172.25,187.458 1178.5,186.5 Z"></path></g><g><path style="opacity:1" fill="#facf8e" d="M 1161.5,193.5 C 1187.17,194.167 1212.83,194.833 1238.5,195.5C 1212.16,195.667 1185.83,195.5 1159.5,195C 1160.04,194.283 1160.71,193.783 1161.5,193.5 Z"></path></g><g><path style="opacity:0.985" fill="#f5a621" d="M 985.5,225.5 C 984.833,236.833 984.167,248.167 983.5,259.5C 981.197,263.586 980.864,267.919 982.5,272.5C 981.586,275.728 981.253,279.061 981.5,282.5C 971.167,282.5 960.833,282.5 950.5,282.5C 950.672,281.508 950.338,280.842 949.5,280.5C 952.625,267.53 956.625,254.863 961.5,242.5C 969.482,236.858 977.482,231.192 985.5,225.5 Z"></path></g><g><path style="opacity:1" fill="#2d3164" d="M 1052.5,233.5 C 1052.5,240.833 1052.5,248.167 1052.5,255.5C 1042.83,255.666 1033.16,255.5 1023.5,255C 1033.33,248.002 1042.99,240.835 1052.5,233.5 Z"></path></g><g><path style="opacity:1" fill="#f9bc5d" d="M 1145.5,245.5 C 1172.17,245.333 1198.84,245.5 1225.5,246C 1224.96,246.717 1224.29,247.217 1223.5,247.5C 1197.5,246.833 1171.5,246.167 1145.5,245.5 Z"></path></g><g><path style="opacity:0.957" fill="#212c63" d="M 0.5,488.5 C 15.5,488.5 30.5,488.5 45.5,488.5C 45.5,493.167 45.5,497.833 45.5,502.5C 40.5,502.5 35.5,502.5 30.5,502.5C 30.5,523.167 30.5,543.833 30.5,564.5C 25.1667,564.5 19.8333,564.5 14.5,564.5C 14.5,543.833 14.5,523.167 14.5,502.5C 9.83333,502.5 5.16667,502.5 0.5,502.5C 0.5,497.833 0.5,493.167 0.5,488.5 Z"></path></g><g><path style="opacity:0.971" fill="#212c63" d="M 67.5,488.5 C 81.1667,488.5 94.8333,488.5 108.5,488.5C 108.5,493.167 108.5,497.833 108.5,502.5C 100.167,502.5 91.8333,502.5 83.5,502.5C 83.5,508.167 83.5,513.833 83.5,519.5C 90.5,519.5 97.5,519.5 104.5,519.5C 104.5,524.167 104.5,528.833 104.5,533.5C 97.5,533.5 90.5,533.5 83.5,533.5C 83.5,539.167 83.5,544.833 83.5,550.5C 91.8333,550.5 100.167,550.5 108.5,550.5C 108.5,555.167 108.5,559.833 108.5,564.5C 94.8333,564.5 81.1667,564.5 67.5,564.5C 67.5,539.167 67.5,513.833 67.5,488.5 Z"></path></g><g><path style="opacity:0.954" fill="#212c63" d="M 133.5,488.5 C 146.504,488.333 159.504,488.5 172.5,489C 174.624,490.122 176.457,491.622 178,493.5C 179.584,502.758 179.917,512.091 179,521.5C 178.187,524.821 176.687,527.821 174.5,530.5C 176.527,533.221 178.027,536.221 179,539.5C 179.5,547.827 179.666,556.16 179.5,564.5C 174.167,564.5 168.833,564.5 163.5,564.5C 163.938,556.057 163.438,547.723 162,539.5C 158.078,537.688 153.911,537.021 149.5,537.5C 149.5,546.5 149.5,555.5 149.5,564.5C 144.167,564.5 138.833,564.5 133.5,564.5C 133.5,539.167 133.5,513.833 133.5,488.5 Z M 149.5,502.5 C 154.167,502.5 158.833,502.5 163.5,502.5C 163.916,508.952 163.416,515.285 162,521.5C 158.078,523.312 153.911,523.979 149.5,523.5C 149.5,516.5 149.5,509.5 149.5,502.5 Z"></path></g><g><path style="opacity:0.951" fill="#212c63" d="M 207.5,488.5 C 212.833,488.5 218.167,488.5 223.5,488.5C 223.5,498.833 223.5,509.167 223.5,519.5C 228.167,519.5 232.833,519.5 237.5,519.5C 237.5,509.167 237.5,498.833 237.5,488.5C 242.833,488.5 248.167,488.5 253.5,488.5C 253.5,513.833 253.5,539.167 253.5,564.5C 248.167,564.5 242.833,564.5 237.5,564.5C 237.5,554.167 237.5,543.833 237.5,533.5C 232.833,533.5 228.167,533.5 223.5,533.5C 223.5,543.833 223.5,554.167 223.5,564.5C 218.167,564.5 212.833,564.5 207.5,564.5C 207.5,539.167 207.5,513.833 207.5,488.5 Z"></path></g><g><path style="opacity:0.952" fill="#212c63" d="M 281.5,488.5 C 286.833,488.5 292.167,488.5 297.5,488.5C 297.5,509.167 297.5,529.833 297.5,550.5C 301.833,550.5 306.167,550.5 310.5,550.5C 310.5,529.833 310.5,509.167 310.5,488.5C 315.833,488.5 321.167,488.5 326.5,488.5C 326.667,511.502 326.5,534.502 326,557.5C 325.167,561 323,563.167 319.5,564C 309.167,564.667 298.833,564.667 288.5,564C 285.417,563.214 283.251,561.381 282,558.5C 281.5,535.169 281.333,511.836 281.5,488.5 Z"></path></g><g><path style="opacity:0.956" fill="#212c63" d="M 355.5,488.5 C 367.838,488.333 380.171,488.5 392.5,489C 394.624,490.122 396.457,491.622 398,493.5C 399.572,501.755 399.905,510.089 399,518.5C 398.394,521.548 396.894,524.048 394.5,526C 399.717,529.956 402.05,535.29 401.5,542C 402.253,553.845 396.92,561.179 385.5,564C 375.506,564.5 365.506,564.666 355.5,564.5C 355.5,539.167 355.5,513.833 355.5,488.5 Z M 371.5,502.5 C 375.5,502.5 379.5,502.5 383.5,502.5C 383.666,507.179 383.499,511.845 383,516.5C 379.673,519.154 375.839,520.154 371.5,519.5C 371.5,513.833 371.5,508.167 371.5,502.5 Z M 371.5,533.5 C 384.532,531.739 388.532,536.906 383.5,549C 379.605,550.266 375.605,550.766 371.5,550.5C 371.5,544.833 371.5,539.167 371.5,533.5 Z"></path></g><g><path style="opacity:0.952" fill="#212c63" d="M 428.5,488.5 C 433.833,488.5 439.167,488.5 444.5,488.5C 444.5,509.167 444.5,529.833 444.5,550.5C 448.833,550.5 453.167,550.5 457.5,550.5C 457.5,529.833 457.5,509.167 457.5,488.5C 462.833,488.5 468.167,488.5 473.5,488.5C 473.667,511.502 473.5,534.502 473,557.5C 472.167,561 470,563.167 466.5,564C 456.167,564.667 445.833,564.667 435.5,564C 432.417,563.214 430.251,561.381 429,558.5C 428.5,535.169 428.333,511.836 428.5,488.5 Z"></path></g><g><path style="opacity:0.945" fill="#212c63" d="M 502.5,488.5 C 510.087,488.186 517.587,488.519 525,489.5C 528.667,504.167 532.333,518.833 536,533.5C 536.5,518.504 536.667,503.504 536.5,488.5C 541.833,488.5 547.167,488.5 552.5,488.5C 552.5,513.833 552.5,539.167 552.5,564.5C 544.913,564.814 537.413,564.481 530,563.5C 526.489,549.124 522.823,534.791 519,520.5C 518.5,535.163 518.333,549.83 518.5,564.5C 513.167,564.5 507.833,564.5 502.5,564.5C 502.5,539.167 502.5,513.833 502.5,488.5 Z"></path></g><g><path style="opacity:0.957" fill="#212c63" d="M 588.5,488.5 C 599.603,488.046 610.603,488.546 621.5,490C 623.378,491.543 624.878,493.376 626,495.5C 626.5,501.825 626.666,508.158 626.5,514.5C 621.167,514.5 615.833,514.5 610.5,514.5C 610.5,510.5 610.5,506.5 610.5,502.5C 606.167,502.5 601.833,502.5 597.5,502.5C 597.5,518.5 597.5,534.5 597.5,550.5C 601.833,550.5 606.167,550.5 610.5,550.5C 610.5,546.167 610.5,541.833 610.5,537.5C 608.167,537.5 605.833,537.5 603.5,537.5C 603.5,532.833 603.5,528.167 603.5,523.5C 611.167,523.5 618.833,523.5 626.5,523.5C 626.667,534.838 626.5,546.172 626,557.5C 624.878,559.624 623.378,561.457 621.5,563C 615.772,564.123 609.939,564.623 604,564.5C 598.833,564.333 593.667,564.167 588.5,564C 585.417,563.214 583.251,561.381 582,558.5C 581.333,537.167 581.333,515.833 582,494.5C 583.494,491.686 585.66,489.686 588.5,488.5 Z"></path></g><g><path style="opacity:0.957" fill="#212c63" d="M 690.5,488.5 C 705.5,488.5 720.5,488.5 735.5,488.5C 735.5,493.167 735.5,497.833 735.5,502.5C 730.5,502.5 725.5,502.5 720.5,502.5C 720.5,523.167 720.5,543.833 720.5,564.5C 715.167,564.5 709.833,564.5 704.5,564.5C 704.5,543.833 704.5,523.167 704.5,502.5C 699.833,502.5 695.167,502.5 690.5,502.5C 690.5,497.833 690.5,493.167 690.5,488.5 Z"></path></g><g><path style="opacity:0.95" fill="#212c63" d="M 767.5,488.5 C 774.5,488.5 781.5,488.5 788.5,488.5C 793.296,513.811 797.962,539.144 802.5,564.5C 797.167,564.5 791.833,564.5 786.5,564.5C 785.756,559.781 784.756,555.114 783.5,550.5C 779.555,549.509 775.555,549.176 771.5,549.5C 770.943,554.45 769.943,559.283 768.5,564C 763.177,564.499 757.844,564.666 752.5,564.5C 757.249,539.087 762.249,513.754 767.5,488.5 Z M 777.5,509.5 C 779.07,517.961 780.07,526.628 780.5,535.5C 778.5,535.5 776.5,535.5 774.5,535.5C 775.5,526.833 776.5,518.167 777.5,509.5 Z"></path></g><g><path style="opacity:0.945" fill="#212c63" d="M 826.5,488.5 C 834.087,488.186 841.587,488.519 849,489.5C 852.667,504.167 856.333,518.833 860,533.5C 860.5,518.504 860.667,503.504 860.5,488.5C 865.833,488.5 871.167,488.5 876.5,488.5C 876.5,513.833 876.5,539.167 876.5,564.5C 868.913,564.814 861.413,564.481 854,563.5C 850.489,549.124 846.823,534.791 843,520.5C 842.5,535.163 842.333,549.83 842.5,564.5C 837.167,564.5 831.833,564.5 826.5,564.5C 826.5,539.167 826.5,513.833 826.5,488.5 Z"></path></g><g><path style="opacity:0.954" fill="#212c63" d="M 905.5,488.5 C 918.504,488.333 931.504,488.5 944.5,489C 947.756,490.587 949.923,493.087 951,496.5C 951.667,504.833 951.667,513.167 951,521.5C 949.176,529.991 944.009,535.158 935.5,537C 930.845,537.499 926.179,537.666 921.5,537.5C 921.5,546.5 921.5,555.5 921.5,564.5C 916.167,564.5 910.833,564.5 905.5,564.5C 905.5,539.167 905.5,513.833 905.5,488.5 Z M 921.5,502.5 C 926.167,502.5 930.833,502.5 935.5,502.5C 935.916,508.952 935.416,515.285 934,521.5C 930.043,523.219 925.876,523.886 921.5,523.5C 921.5,516.5 921.5,509.5 921.5,502.5 Z"></path></g><g><path style="opacity:0.95" fill="#212c63" d="M 987.5,488.5 C 994.5,488.5 1001.5,488.5 1008.5,488.5C 1013.3,513.811 1017.96,539.144 1022.5,564.5C 1017.17,564.5 1011.83,564.5 1006.5,564.5C 1005.76,559.781 1004.76,555.114 1003.5,550.5C 999.555,549.509 995.555,549.176 991.5,549.5C 990.943,554.45 989.943,559.283 988.5,564C 983.177,564.499 977.844,564.666 972.5,564.5C 977.249,539.087 982.249,513.754 987.5,488.5 Z M 997.5,509.5 C 999.07,517.961 1000.07,526.628 1000.5,535.5C 998.5,535.5 996.5,535.5 994.5,535.5C 995.5,526.833 996.5,518.167 997.5,509.5 Z"></path></g><g><path style="opacity:0.956" fill="#212c63" d="M 1086.5,488.5 C 1098.84,488.333 1111.17,488.5 1123.5,489C 1125.62,490.122 1127.46,491.622 1129,493.5C 1130.57,501.755 1130.91,510.089 1130,518.5C 1129.39,521.548 1127.89,524.048 1125.5,526C 1130.72,529.956 1133.05,535.29 1132.5,542C 1133.25,553.845 1127.92,561.179 1116.5,564C 1106.51,564.5 1096.51,564.666 1086.5,564.5C 1086.5,539.167 1086.5,513.833 1086.5,488.5 Z M 1102.5,502.5 C 1106.5,502.5 1110.5,502.5 1114.5,502.5C 1114.67,507.179 1114.5,511.845 1114,516.5C 1110.67,519.154 1106.84,520.154 1102.5,519.5C 1102.5,513.833 1102.5,508.167 1102.5,502.5 Z M 1102.5,533.5 C 1115.53,531.739 1119.53,536.906 1114.5,549C 1110.6,550.266 1106.6,550.766 1102.5,550.5C 1102.5,544.833 1102.5,539.167 1102.5,533.5 Z"></path></g><g><path style="opacity:0.95" fill="#212c63" d="M 1170.5,488.5 C 1177.5,488.5 1184.5,488.5 1191.5,488.5C 1196.3,513.811 1200.96,539.144 1205.5,564.5C 1200.17,564.5 1194.83,564.5 1189.5,564.5C 1188.76,559.781 1187.76,555.114 1186.5,550.5C 1182.55,549.509 1178.55,549.176 1174.5,549.5C 1173.94,554.45 1172.94,559.283 1171.5,564C 1166.18,564.499 1160.84,564.666 1155.5,564.5C 1160.25,539.087 1165.25,513.754 1170.5,488.5 Z M 1180.5,509.5 C 1182.07,517.961 1183.07,526.628 1183.5,535.5C 1181.5,535.5 1179.5,535.5 1177.5,535.5C 1178.5,526.833 1179.5,518.167 1180.5,509.5 Z"></path></g><g><path style="opacity:0.957" fill="#212c63" d="M 1221.5,488.5 C 1236.5,488.5 1251.5,488.5 1266.5,488.5C 1266.5,493.167 1266.5,497.833 1266.5,502.5C 1261.5,502.5 1256.5,502.5 1251.5,502.5C 1251.5,523.167 1251.5,543.833 1251.5,564.5C 1246.17,564.5 1240.83,564.5 1235.5,564.5C 1235.5,543.833 1235.5,523.167 1235.5,502.5C 1230.83,502.5 1226.17,502.5 1221.5,502.5C 1221.5,497.833 1221.5,493.167 1221.5,488.5 Z"></path></g><g><path style="opacity:0.95" fill="#212c63" d="M 1299.5,488.5 C 1306.5,488.5 1313.5,488.5 1320.5,488.5C 1325.3,513.811 1329.96,539.144 1334.5,564.5C 1329.17,564.5 1323.83,564.5 1318.5,564.5C 1317.76,559.781 1316.76,555.114 1315.5,550.5C 1311.55,549.509 1307.55,549.176 1303.5,549.5C 1302.94,554.45 1301.94,559.283 1300.5,564C 1295.18,564.499 1289.84,564.666 1284.5,564.5C 1289.25,539.087 1294.25,513.754 1299.5,488.5 Z M 1309.5,509.5 C 1311.07,517.961 1312.07,526.628 1312.5,535.5C 1310.5,535.5 1308.5,535.5 1306.5,535.5C 1307.5,526.833 1308.5,518.167 1309.5,509.5 Z"></path></g><g><path style="opacity:0.952" fill="#212c63" d="M 1363.5,488.5 C 1373.84,488.334 1384.17,488.5 1394.5,489C 1397.58,489.786 1399.75,491.619 1401,494.5C 1401.5,501.158 1401.67,507.825 1401.5,514.5C 1396.17,514.5 1390.83,514.5 1385.5,514.5C 1385.5,510.5 1385.5,506.5 1385.5,502.5C 1381.17,502.5 1376.83,502.5 1372.5,502.5C 1372.33,507.179 1372.5,511.845 1373,516.5C 1373.5,517 1374,517.5 1374.5,518C 1382.5,518.265 1389.83,520.599 1396.5,525C 1397.79,526.41 1398.95,527.91 1400,529.5C 1401.59,539.092 1401.92,548.758 1401,558.5C 1399.83,561 1398,562.833 1395.5,564C 1384.83,564.667 1374.17,564.667 1363.5,564C 1360.67,562.5 1358.5,560.333 1357,557.5C 1356.5,551.175 1356.33,544.842 1356.5,538.5C 1361.83,538.5 1367.17,538.5 1372.5,538.5C 1372.5,542.5 1372.5,546.5 1372.5,550.5C 1376.83,550.5 1381.17,550.5 1385.5,550.5C 1385.67,545.489 1385.5,540.489 1385,535.5C 1379.62,533.972 1374.12,532.805 1368.5,532C 1364.05,529.886 1360.55,526.719 1358,522.5C 1356.45,513.562 1356.12,504.562 1357,495.5C 1358.69,492.642 1360.86,490.309 1363.5,488.5 Z"></path></g></svg>