<svg xmlns="http://www.w3.org/2000/svg" width="51" height="59" viewBox="0 0 51 59" fill="none"><path d="M20.5 33H26.75C27.7446 33 28.6984 32.6049 29.4017 31.9017C30.1049 31.1984 30.5 30.2446 30.5 29.25C30.5 28.2554 30.1049 27.3016 29.4017 26.5983C28.6984 25.8951 27.7446 25.5 26.75 25.5H24.25C23.2554 25.5 22.3016 25.1049 21.5983 24.4017C20.8951 23.6984 20.5 22.7446 20.5 21.75C20.5 20.7554 20.8951 19.8016 21.5983 19.0983C22.3016 18.3951 23.2554 18 24.25 18H30.5" stroke="#838383" stroke-width="4.5" stroke-miterlimit="10" stroke-linecap="square"></path><path d="M25.5 13V18" stroke="#838383" stroke-width="4.5" stroke-miterlimit="10" stroke-linecap="square"></path><path d="M25.5 33V38" stroke="#838383" stroke-width="4.5" stroke-miterlimit="10" stroke-linecap="square"></path><path d="M5.5 55.5L12.15 50.5L18.825 55.5L25.475 50.5L32.15 55.5L38.825 50.5L45.5 55.5L48 53V3H3V53L5.5 55.5Z" stroke="#838383" stroke-width="4.5" stroke-miterlimit="10" stroke-linecap="square"></path></svg>