<svg xmlns="http://www.w3.org/2000/svg" width="45" height="54" viewBox="0 0 45 54" fill="none"><path d="M26.5488 18.1879C26.5488 18.1404 26.5647 18.0772 26.5804 18.014L29.5237 8.36126C29.6978 7.80737 30.4098 7.53833 31.1377 7.53833C31.8657 7.53833 32.5778 7.80727 32.7518 8.36126L35.7109 18.014C35.7268 18.0774 35.7425 18.1404 35.7425 18.1879C35.7425 18.7735 34.8406 19.2008 34.16 19.2008C33.7644 19.2008 33.448 19.0742 33.353 18.7419L32.815 16.7639H29.476L28.938 18.7419C28.843 19.0742 28.5266 19.2008 28.131 19.2008C27.4507 19.2007 26.5488 18.7734 26.5488 18.1879ZM32.2929 14.8647L31.1377 10.6239L29.9826 14.8647H32.2929Z" fill="#838383"></path><path d="M36.1049 10.5011V9.37785H34.9817C34.6573 9.37785 34.4375 9.08837 34.4375 8.64846C34.4375 8.23162 34.6576 7.90749 34.9817 7.90749H36.1049V6.79592C36.1049 6.51802 36.429 6.24023 36.8458 6.24023C37.2858 6.24023 37.5753 6.51802 37.5753 6.79592V7.90749H38.6869C38.9648 7.90749 39.2428 8.23162 39.2428 8.64846C39.2428 9.08837 38.9649 9.37785 38.6869 9.37785H37.5753V10.5011C37.5753 10.8253 37.2858 11.0452 36.8458 11.0452C36.429 11.0453 36.1049 10.8254 36.1049 10.5011Z" fill="#838383"></path><path d="M39.4312 53.9352H5.56881C2.49819 53.9352 0 51.437 0 48.3663V12.2324C0 10.5556 0.652595 8.97969 1.83801 7.7947L7.79449 1.83791C8.75394 0.878449 10.0213 0.247976 11.3634 0.0623626C11.6452 0.0208578 11.9375 0 12.2323 0H39.4311C42.5017 0 44.9999 2.49819 44.9999 5.56892V34.2871C44.9999 35.1469 44.3026 35.8442 43.4428 35.8442C42.583 35.8442 41.8858 35.1469 41.8858 34.2871V5.56892C41.8858 4.21548 40.7847 3.11413 39.4312 3.11413H12.2323C12.0864 3.11413 11.9448 3.12414 11.8112 3.14405C11.8053 3.14499 11.7995 3.14573 11.7937 3.14657C11.1183 3.23917 10.48 3.55635 9.99667 4.03988L4.03998 9.99677C3.44301 10.5936 3.11434 11.3876 3.11434 12.2323V48.3663C3.11434 49.7198 4.21538 50.8211 5.56892 50.8211H39.4313C40.7847 50.8211 41.8859 49.72 41.8859 48.3663V43.2394C41.8859 42.3796 42.5831 41.6824 43.4429 41.6824C44.3027 41.6824 45 42.3796 45 43.2394V48.3663C44.9998 51.437 42.5016 53.9352 39.4312 53.9352Z" fill="#838383"></path><path d="M11.583 1.60376V52.3779H5.56947C3.35391 52.3779 1.55762 50.5816 1.55762 48.366V12.2324C1.55762 10.9808 2.05388 9.78116 2.93939 8.89555L8.89607 2.93887C9.62641 2.20863 10.572 1.7425 11.583 1.60376Z" fill="#838383"></path><path d="M11.5823 53.9351H5.56881C2.49819 53.9351 0 51.4369 0 48.3662V12.2323C0 10.5554 0.652701 8.97952 1.83801 7.79453L7.79449 1.83774C8.75594 0.876386 10.0259 0.245491 11.371 0.0612474C11.8157 -0.0003778 12.2669 0.134776 12.6059 0.430472C12.945 0.726168 13.1396 1.15407 13.1396 1.60388V52.378C13.1394 53.2378 12.4423 53.9351 11.5823 53.9351ZM10.0252 4.01158C10.0155 4.02096 10.006 4.03044 9.99656 4.03992L4.03998 9.9966C3.44301 10.5935 3.11434 11.3874 3.11434 12.2322V48.3662C3.11434 49.7196 4.21538 50.8209 5.56892 50.8209H10.0253L10.0252 4.01158Z" fill="#838383"></path><path d="M34.6452 35.8439H11.5825C10.7227 35.8439 10.0254 35.1466 10.0254 34.2868C10.0254 33.427 10.7227 32.7297 11.5825 32.7297H34.6452C35.5051 32.7297 36.2023 33.427 36.2023 34.2868C36.2023 35.1466 35.5053 35.8439 34.6452 35.8439Z" fill="#838383"></path><path d="M34.6452 26.734H11.5825C10.7227 26.734 10.0254 26.0367 10.0254 25.1769C10.0254 24.3171 10.7227 23.6199 11.5825 23.6199H34.6452C35.5051 23.6199 36.2023 24.3171 36.2023 25.1769C36.2024 26.0366 35.5053 26.734 34.6452 26.734Z" fill="#838383"></path><path d="M34.6452 44.9542H11.5825C10.7227 44.9542 10.0254 44.257 10.0254 43.3972C10.0254 42.5373 10.7227 41.8401 11.5825 41.8401H34.6452C35.5051 41.8401 36.2023 42.5373 36.2023 43.3972C36.2023 44.257 35.5053 44.9542 34.6452 44.9542Z" fill="#838383"></path></svg>