<svg xmlns="http://www.w3.org/2000/svg" width="50" height="50"><path d="M0 0 C3.62139968 2.85681389 4.88806311 4.23637373 5.56762695 8.87231445 C5.56684203 10.36953681 5.53898147 11.86691736 5.48828125 13.36328125 C5.48120651 14.15526413 5.47413177 14.94724701 5.46684265 15.76322937 C5.43896244 18.28063389 5.376242 20.79577356 5.3125 23.3125 C5.28740861 25.0240563 5.26459691 26.73564765 5.24414062 28.44726562 C5.18915747 32.63237654 5.10293418 36.81580496 5 41 C4.01 41 3.02 41 2 41 C1.75894531 40.37480469 1.51789062 39.74960937 1.26953125 39.10546875 C-0.32500184 36.46099696 -1.3902846 36.16215254 -4.3125 35.3125 C-5.11171875 35.0753125 -5.9109375 34.838125 -6.734375 34.59375 C-9.14341529 33.9624153 -11.54050483 33.39669277 -14 33 C-14 33.66 -14 34.32 -14 35 C-12.7934375 35.433125 -12.7934375 35.433125 -11.5625 35.875 C-9 37 -9 37 -8 39 C-8 40.98 -8 42.96 -8 45 C-15.26 45 -22.52 45 -30 45 C-30 39 -30 39 -28.125 36.625 C-26 35 -26 35 -24 35 C-24 34.34 -24 33.68 -24 33 C-25.93922422 33.45098238 -27.87633594 33.91105559 -29.8125 34.375 C-30.89144531 34.63023438 -31.97039063 34.88546875 -33.08203125 35.1484375 C-36.15533343 35.88732881 -36.15533343 35.88732881 -39 38 C-39.33 38.99 -39.66 39.98 -40 41 C-40.99 41 -41.98 41 -43 41 C-43.1238722 35.96469037 -43.21446514 30.93027303 -43.2746582 25.89379883 C-43.29975714 24.18172755 -43.33384429 22.46976296 -43.37719727 20.75805664 C-43.43805739 18.29286355 -43.46625432 15.82909015 -43.48828125 13.36328125 C-43.51408768 12.60163162 -43.5398941 11.83998199 -43.56648254 11.05525208 C-43.56861141 6.99447586 -43.19540222 5.23999411 -40.59716797 2.04882812 C-31.08897478 -5.45190108 -10.54913009 -5.9099333 0 0 Z M-25 0 C-25 2.64 -25 5.28 -25 8 C-22.69328085 5.28450846 -22.69328085 5.28450846 -23.375 2.8125 C-23.58125 2.214375 -23.7875 1.61625 -24 1 C-22.68 0.67 -21.36 0.34 -20 0 C-21.65 0 -23.3 0 -25 0 Z M-17 0 C-15.73025028 4.41522109 -15.73025028 4.41522109 -13 8 C-13 5.36 -13 2.72 -13 0 C-14.32 0 -15.64 0 -17 0 Z M-33 1 C-31.47444034 5.81122847 -31.47444034 5.81122847 -28 9 C-28 6.36 -28 3.72 -28 1 C-29.65 1 -31.3 1 -33 1 Z M-10 1 C-10 3.64 -10 6.28 -10 9 C-6.67098753 6.78065836 -6.24976756 5.65316671 -5 2 C-6.65 1.67 -8.3 1.34 -10 1 Z M-23 2 C-22 5 -22 5 -22 5 Z M-1 3 C-0.49287967 6.71888239 0.11608215 9.73454239 2 13 C2.0928125 11.081875 2.0928125 11.081875 2.1875 9.125 C2.22230469 8.40570312 2.25710937 7.68640625 2.29296875 6.9453125 C2.19628906 6.30335937 2.09960938 5.66140625 2 5 C1.01 4.34 0.02 3.68 -1 3 Z M-39 4 C-40.20561184 4.98267859 -40.20561184 4.98267859 -40.09765625 6.84765625 C-40.08605469 7.57855469 -40.07445312 8.30945313 -40.0625 9.0625 C-40.041875 10.361875 -40.02125 11.66125 -40 13 C-38.35173889 10.03312999 -37.55728913 7.34373475 -37 4 C-37.66 4 -38.32 4 -39 4 Z M-25 11 C-25 13.31 -25 15.62 -25 18 C-24.01 18 -23.02 18 -22 18 C-22 15.69 -22 13.38 -22 11 C-22.99 11 -23.98 11 -25 11 Z M-15 11 C-15 12.65 -15 14.3 -15 16 C-12.81509993 13.32357511 -12.81509993 13.32357511 -13 11 C-13.66 11 -14.32 11 -15 11 Z M-10 11 C-10 13.97 -10 16.94 -10 20 C-6.67098753 17.78065836 -6.24976756 16.65316671 -5 13 C-7.475 12.01 -7.475 12.01 -10 11 Z M-32 13 C-31.01 13 -30.02 13 -29 13 C-29.33 14.98 -29.66 16.96 -30 19 C-29.34 19.33 -28.68 19.66 -28 20 C-28 17.03 -28 14.06 -28 11 C-29.46225016 10.90754997 -29.46225016 10.90754997 -32 13 Z M-20 13 C-20 13.99 -20 14.98 -20 16 C-19.34 16 -18.68 16 -18 16 C-18 15.01 -18 14.02 -18 13 C-18.66 13 -19.32 13 -20 13 Z M-31 14 C-30 18 -30 18 -30 18 Z M-1 14 C-0.49287967 17.71888239 0.11608215 20.73454239 2 24 C2.0928125 22.081875 2.0928125 22.081875 2.1875 20.125 C2.22230469 19.40570312 2.25710937 18.68640625 2.29296875 17.9453125 C2.19628906 17.30335937 2.09960938 16.66140625 2 16 C1.01 15.34 0.02 14.68 -1 14 Z M-39 15 C-40.20561184 15.98267859 -40.20561184 15.98267859 -40.09765625 17.84765625 C-40.08605469 18.57855469 -40.07445312 19.30945313 -40.0625 20.0625 C-40.041875 21.361875 -40.02125 22.66125 -40 24 C-38.35173889 21.03312999 -37.55728913 18.34373475 -37 15 C-37.66 15 -38.32 15 -39 15 Z M-16 16 C-15 18 -15 18 -15 18 Z M-14 22 C-14.33 24.64 -14.66 27.28 -15 30 C-14.34 30 -13.68 30 -13 30 C-13 27.36 -13 24.72 -13 22 C-13.33 22 -13.66 22 -14 22 Z M-10 22 C-10 24.97 -10 27.94 -10 31 C-6.39345961 28.59563974 -6.14547068 27.05320393 -5 23 C-6.65 22.67 -8.3 22.34 -10 22 Z M-33 24 C-32.34 24 -31.68 24 -31 24 C-31.061875 24.78375 -31.12375 25.5675 -31.1875 26.375 C-31.0946875 27.674375 -31.0946875 27.674375 -31 29 C-30.01 29.66 -29.02 30.32 -28 31 C-28 28.03 -28 25.06 -28 22 C-29.84046388 22 -31.39629594 23.17228177 -33 24 Z M-1 25 C-0.5020163 28.73487777 -0.12508244 30.81237635 2 34 C2.25015873 30.58357241 2.25015873 30.58357241 2 27 C1.01 26.34 0.02 25.68 -1 25 Z M-39 26 C-40.41577477 27.18424326 -40.41577477 27.18424326 -40.0625 30.5625 C-40.041875 31.696875 -40.02125 32.83125 -40 34 C-38.0549 31.08235 -37.54723683 29.37462715 -37 26 C-37.66 26 -38.32 26 -39 26 Z M-25 28 C-25 28.66 -25 29.32 -25 30 C-24.34 29.67 -23.68 29.34 -23 29 C-23.66 28.67 -24.32 28.34 -25 28 Z M-21 28 C-21 30.64 -21 33.28 -21 36 C-20.67 36 -20.34 36 -20 36 C-20 33.69 -20 31.38 -20 29 C-19.34 29 -18.68 29 -18 29 C-18 31.31 -18 33.62 -18 36 C-17.67 36 -17.34 36 -17 36 C-17 33.36 -17 30.72 -17 28 C-18.32 28 -19.64 28 -21 28 Z M-26 38 C-26 38.99 -26 39.98 -26 41 C-25.34 41 -24.68 41 -24 41 C-24 40.01 -24 39.02 -24 38 C-24.66 38 -25.32 38 -26 38 Z M-14 38 C-14 38.99 -14 39.98 -14 41 C-13.01 40.67 -12.02 40.34 -11 40 C-11.33 39.34 -11.66 38.68 -12 38 C-12.66 38 -13.32 38 -14 38 Z " fill="#055F82" transform="translate(44,4)"></path><path d="M0 0 C0.99 0.33 1.98 0.66 3 1 C2.01 2.32 1.02 3.64 0 5 C0 3.35 0 1.7 0 0 Z " fill="#055D82" transform="translate(35,6)"></path><path d="M0 0 C0.33 0 0.66 0 1 0 C1 1.98 1 3.96 1 6 C0.67 6 0.34 6 0 6 C0 4.02 0 2.04 0 0 Z " fill="#066284" transform="translate(12,43)"></path><path d="M0 0 C0.99 0.495 0.99 0.495 2 1 C1.34 2.32 0.68 3.64 0 5 C0 3.35 0 1.7 0 0 Z " fill="#03567D" transform="translate(35,28)"></path><path d="M0 0 C0.99 0.495 0.99 0.495 2 1 C1.34 2.32 0.68 3.64 0 5 C0 3.35 0 1.7 0 0 Z " fill="#055A7F" transform="translate(35,17)"></path><path d="M0 0 C0.66 0 1.32 0 2 0 C2 1.65 2 3.3 2 5 C0 1.125 0 1.125 0 0 Z " fill="#055D81" transform="translate(13,6)"></path><path d="M0 0 C0.33 0 0.66 0 1 0 C1 1.65 1 3.3 1 5 C0.67 5 0.34 5 0 5 C0 3.35 0 1.7 0 0 Z " fill="#066284" transform="translate(37,43)"></path><path d="M0 0 C0.33 0 0.66 0 1 0 C1 1.65 1 3.3 1 5 C0.67 5 0.34 5 0 5 C0 3.35 0 1.7 0 0 Z " fill="#01567D" transform="translate(14,28)"></path><path d="M0 0 C1 4 1 4 1 4 Z " fill="#045B81" transform="translate(29,5)"></path><path d="M0 0 C4 1 4 1 4 1 Z " fill="#055E82" transform="translate(34,0)"></path><path d="M0 0 C3 1 3 1 3 1 Z " fill="#04577C" transform="translate(13,0)"></path><path d="" fill="#066183" transform="translate(0,0)"></path><path d="" fill="#066183" transform="translate(0,0)"></path><path d="M0 0 C2 1 2 1 2 1 Z " fill="#066284" transform="translate(42,41)"></path><path d="M0 0 C2 1 2 1 2 1 Z " fill="#066284" transform="translate(6,41)"></path><path d="M0 0 C2 1 2 1 2 1 Z " fill="#055A80" transform="translate(39,40)"></path><path d="M0 0 C2 1 2 1 2 1 Z " fill="#035279" transform="translate(9,40)"></path><path d="M0 0 C2 1 2 1 2 1 Z " fill="#055A80" transform="translate(37,39)"></path><path d="M0 0 C2 1 2 1 2 1 Z " fill="#035279" transform="translate(12,39)"></path><path d="M0 0 C2 1 2 1 2 1 Z " fill="#02547D" transform="translate(32,38)"></path><path d="M0 0 C2 1 2 1 2 1 Z " fill="#02547D" transform="translate(16,38)"></path><path d="" fill="#035C81" transform="translate(0,0)"></path><path d="" fill="#066184" transform="translate(0,0)"></path><path d="" fill="#01577D" transform="translate(0,0)"></path><path d="" fill="#01577D" transform="translate(0,0)"></path><path d="" fill="#01577D" transform="translate(0,0)"></path><path d="" fill="#01577D" transform="translate(0,0)"></path><path d="M0 0 C2 1 2 1 2 1 Z " fill="#066284" transform="translate(39,1)"></path><path d="M0 0 C2 1 2 1 2 1 Z " fill="#066284" transform="translate(9,1)"></path><path d="" fill="#00426E" transform="translate(0,0)"></path><path d="" fill="#00426E" transform="translate(0,0)"></path><path d="" fill="#04527D" transform="translate(0,0)"></path><path d="" fill="#04527D" transform="translate(0,0)"></path><path d="" fill="#086687" transform="translate(0,0)"></path><path d="" fill="#086485" transform="translate(0,0)"></path><path d="" fill="#066284" transform="translate(0,0)"></path><path d="" fill="#066284" transform="translate(0,0)"></path><path d="" fill="#066284" transform="translate(0,0)"></path><path d="" fill="#01577D" transform="translate(0,0)"></path><path d="" fill="#04527D" transform="translate(0,0)"></path><path d="" fill="#066284" transform="translate(0,0)"></path><path d="" fill="#066284" transform="translate(0,0)"></path><path d="" fill="#066284" transform="translate(0,0)"></path><path d="" fill="#066284" transform="translate(0,0)"></path><path d="" fill="#066284" transform="translate(0,0)"></path><path d="" fill="#00426E" transform="translate(0,0)"></path><path d="" fill="#04527D" transform="translate(0,0)"></path><path d="" fill="#04527D" transform="translate(0,0)"></path><path d="" fill="#04527D" transform="translate(0,0)"></path></svg>