<svg xmlns="http://www.w3.org/2000/svg" width="126" height="119" viewBox="0 0 126 119" fill="none"><path d="M37.5 9V2H45H120.5L123.5 4V95L105.5 113H65.5" stroke="#367CFF" stroke-width="4" stroke-linejoin="round"></path><path d="M75 48.5V17.5H108.5V20V48.5H75Z" stroke="#367CFF" stroke-width="4" stroke-linejoin="round"></path><rect x="77" y="19.5" width="30" height="27" fill="#55ABF6"></rect><path d="M85.5 40V29V27H100V29V40H85.5Z" stroke="#367CFF" stroke-width="4" stroke-linejoin="round"></path><path d="M70 63H112" stroke="#367CFF" stroke-width="4" stroke-linejoin="round"></path><path d="M70 73.5H112" stroke="#367CFF" stroke-width="4" stroke-linejoin="round"></path><path d="M70 84.5H112" stroke="#367CFF" stroke-width="4" stroke-linejoin="round"></path><path d="M1 94H50.5" stroke="#367CFF" stroke-width="4" stroke-linejoin="round"></path><path d="M25 106H37.5M54.5 9H47.5M47.5 9H2.5V114V116.5H59.5V9H47.5Z" stroke="#367CFF" stroke-width="4" stroke-linejoin="round"></path><path d="M24.5 20H36" stroke="#367CFF" stroke-width="4" stroke-linejoin="round"></path><rect x="5" y="33.5" width="52" height="58" fill="#55ABFA"></rect><path d="M1.5 31H50.5" stroke="#367CFF" stroke-width="4" stroke-linejoin="round"></path><path d="M14.5 45.5V79H49.5V47H13" stroke="#367CFF" stroke-width="4" stroke-linejoin="round"></path><path d="M31.5 51.5V75.5" stroke="white" stroke-width="4" stroke-linejoin="round"></path><path d="M19.5 62.5H44.5" stroke="white" stroke-width="4" stroke-linejoin="round"></path><circle cx="31.5" cy="62.5" r="6" fill="white"></circle><rect x="17.5" y="49.5" width="8" height="6" fill="white"></rect><rect x="17.5" y="70.5" width="8" height="6" fill="white"></rect><rect x="37.5" y="70.5" width="8" height="6" fill="white"></rect><rect x="37.5" y="49.5" width="8" height="6" fill="white"></rect><path d="M105 112V95H123" stroke="#367CFF" stroke-width="4" stroke-linejoin="round"></path><rect x="87" y="29" width="11" height="9" fill="white"></rect></svg>