<svg xmlns="http://www.w3.org/2000/svg" width="128" height="128" viewBox="0 0 128 128" fill="none"><path d="M50.5 94.5L45.5 118.5H78H40.5L37.5 126H29.5H92.5M100.5 126H92.5M92.5 126L89 118.5H85L78 94.5" stroke="#367CFF" stroke-width="4" stroke-linejoin="round"></path><path d="M103.5 9.5H106.5V12.5H103.5V9.5Z" fill="#367CFF" stroke="#367CFF"></path><path d="M71.5 49.5H74.5V52.5H71.5V49.5Z" fill="#367CFF" stroke="#367CFF"></path><path d="M87.5 49.5H90.5V52.5H87.5V49.5Z" fill="#367CFF" stroke="#367CFF"></path><path d="M54 34H40V44.5H54V34Z" stroke="#367CFF" stroke-width="4" stroke-linejoin="round"></path><rect x="1" y="1" width="127" height="93" fill="white"></rect><rect x="4" y="5" width="13" height="60" fill="#56AAFB"></rect><rect x="4" y="5" width="13" height="60" fill="#56AAFB"></rect><rect x="4" y="5" width="13" height="60" fill="#56AAFB"></rect><rect x="4" y="5" width="13" height="60" fill="#56AAFB"></rect><rect x="115" y="5" width="9" height="60" fill="#56AAFB"></rect><rect x="115" y="5" width="9" height="60" fill="#56AAFB"></rect><rect x="115" y="5" width="9" height="60" fill="#56AAFB"></rect><rect x="115" y="5" width="9" height="60" fill="#56AAFB"></rect><rect x="104.5" y="9.5" width="3" height="3" fill="#367CFF" stroke="#367CFF"></rect><path d="M10.5 3H2.5V23V90V94.5H126V3H120" stroke="#367CFF" stroke-width="4" stroke-linejoin="round"></path><path d="M18 2.5H113V66.5H125.5H103.5" stroke="#367CFF" stroke-width="4" stroke-linejoin="round"></path><path d="M19 2.5V66.5H4.5H26" stroke="#367CFF" stroke-width="4" stroke-linejoin="round"></path><path d="M21 20H112.5" stroke="#367CFF" stroke-width="4" stroke-linejoin="round"></path><path d="M98 19V4" stroke="#367CFF" stroke-width="4" stroke-linejoin="round"></path><path d="M41 17V4.5" stroke="#367CFF" stroke-width="4" stroke-linejoin="round"></path><rect x="23.5" y="9.5" width="3" height="3" fill="#367CFF" stroke="#367CFF"></rect><path d="M31.5 9.5H34.5V12.5H31.5V9.5Z" fill="#367CFF" stroke="#367CFF"></path><circle cx="65" cy="81" r="3.41667" fill="white" stroke="#56AAFB" stroke-width="1.16667"></circle><circle cx="65" cy="81" r="6.5" stroke="#367CFF" stroke-width="3"></circle><rect x="34" y="28" width="64" height="38" fill="#57ADFA"></rect><rect x="74.5" y="49" width="3" height="3" fill="#367CFF" stroke="#367CFF"></rect><rect x="80.5" y="49" width="3" height="3" fill="#367CFF" stroke="#367CFF"></rect><rect x="86.5" y="49" width="3" height="3" fill="#367CFF" stroke="#367CFF"></rect><path d="M34 66.5V27H98V66.5H34Z" stroke="#367CFF" stroke-width="4" stroke-linejoin="round"></path><path d="M40.5 50.5H68" stroke="#367CFF" stroke-width="4" stroke-linejoin="round"></path><path d="M40.5 58H92" stroke="#367CFF" stroke-width="4" stroke-linejoin="round"></path><circle cx="86" cy="38.5" r="4.5" fill="white" stroke="#367CFF" stroke-width="3"></circle><path d="M41.5 42.5V33.5H63.5V42.5H41.5Z" stroke="#367CFF" stroke-width="4" stroke-linejoin="round"></path></svg>