<svg xmlns="http://www.w3.org/2000/svg" width="384" height="384" viewBox="0 0 384 384" fill="none"><path d="M150.889 283.236L135.85 355.425H233.606H120.811L111.787 377.984H87.7241H277.22M301.283 377.984H277.22M277.22 377.984L266.693 355.425H254.661L233.606 283.236" stroke="#367CFF" stroke-width="12.0315" stroke-linejoin="round"></path><path d="M310.307 27.5669H319.33V36.5905H310.307V27.5669Z" fill="#367CFF" stroke="#367CFF" stroke-width="3.00787"></path><path d="M214.055 147.882H223.079V156.905H214.055V147.882Z" fill="#367CFF" stroke="#367CFF" stroke-width="3.00787"></path><path d="M262.181 147.882H271.205V156.905H262.181V147.882Z" fill="#367CFF" stroke="#367CFF" stroke-width="3.00787"></path><path d="M161.417 101.26H119.307V132.842H161.417V101.26Z" stroke="#367CFF" stroke-width="12.0315" stroke-linejoin="round"></path><rect x="2" y="2" width="382" height="279.732" fill="white"></rect><rect x="11.0234" y="14.0315" width="39.1024" height="180.472" fill="#56AAFB"></rect><rect x="11.0234" y="14.0315" width="39.1024" height="180.472" fill="#56AAFB"></rect><rect x="11.0234" y="14.0315" width="39.1024" height="180.472" fill="#56AAFB"></rect><rect x="11.0234" y="14.0315" width="39.1024" height="180.472" fill="#56AAFB"></rect><rect x="344.898" y="14.0315" width="27.0709" height="180.472" fill="#56AAFB"></rect><rect x="344.898" y="14.0315" width="27.0709" height="180.472" fill="#56AAFB"></rect><rect x="344.898" y="14.0315" width="27.0709" height="180.472" fill="#56AAFB"></rect><rect x="344.898" y="14.0315" width="27.0709" height="180.472" fill="#56AAFB"></rect><rect x="313.315" y="27.5669" width="9.02362" height="9.02362" fill="#367CFF" stroke="#367CFF" stroke-width="3.00787"></rect><path d="M30.5747 8.01562H6.51172V68.1731V269.701V283.236H377.984V8.01562H359.937" stroke="#367CFF" stroke-width="12.0315" stroke-linejoin="round"></path><path d="M53.1338 6.51172H338.882V199.016H376.48H310.307" stroke="#367CFF" stroke-width="12.0315" stroke-linejoin="round"></path><path d="M56.1415 6.51172V199.016H12.5273H77.1966" stroke="#367CFF" stroke-width="12.0315" stroke-linejoin="round"></path><path d="M62.1572 59.1494H337.378" stroke="#367CFF" stroke-width="12.0315" stroke-linejoin="round"></path><path d="M293.764 56.1418V11.0237" stroke="#367CFF" stroke-width="12.0315" stroke-linejoin="round"></path><path d="M122.314 50.126V12.5276" stroke="#367CFF" stroke-width="12.0315" stroke-linejoin="round"></path><rect x="69.6768" y="27.5669" width="9.02362" height="9.02362" fill="#367CFF" stroke="#367CFF" stroke-width="3.00787"></rect><path d="M93.7398 27.5669H102.763V36.5905H93.7398V27.5669Z" fill="#367CFF" stroke="#367CFF" stroke-width="3.00787"></path><circle cx="194.504" cy="242.63" r="10.2769" fill="white" stroke="#56AAFB" stroke-width="3.50919"></circle><circle cx="194.504" cy="242.63" r="19.5512" stroke="#367CFF" stroke-width="9.02362"></circle><rect x="101.26" y="83.2126" width="192.504" height="114.299" fill="#57ADFA"></rect><rect x="223.079" y="146.378" width="9.02362" height="9.02362" fill="#367CFF" stroke="#367CFF" stroke-width="3.00787"></rect><rect x="241.126" y="146.378" width="9.02362" height="9.02362" fill="#367CFF" stroke="#367CFF" stroke-width="3.00787"></rect><rect x="259.173" y="146.378" width="9.02362" height="9.02362" fill="#367CFF" stroke="#367CFF" stroke-width="3.00787"></rect><path d="M101.26 199.016V80.2048H293.764V199.016H101.26Z" stroke="#367CFF" stroke-width="12.0315" stroke-linejoin="round"></path><path d="M120.811 150.89H203.527" stroke="#367CFF" stroke-width="12.0315" stroke-linejoin="round"></path><path d="M120.811 173.449H275.716" stroke="#367CFF" stroke-width="12.0315" stroke-linejoin="round"></path><circle cx="257.669" cy="114.795" r="13.5354" fill="white" stroke="#367CFF" stroke-width="9.02362"></circle><path d="M123.819 126.827V99.7559H189.993V126.827H123.819Z" stroke="#367CFF" stroke-width="12.0315" stroke-linejoin="round"></path></svg>