<svg xmlns="http://www.w3.org/2000/svg" width="30" height="31" viewBox="0 0 30 31" fill="none"><path d="M27.7708 3.22917H22.6042V0.645833C22.6042 0.474548 22.5361 0.310277 22.415 0.18916C22.2939 0.068043 22.1296 0 21.9583 0L9.04167 0C8.52781 0 8.035 0.204129 7.67165 0.567481C7.30829 0.930832 7.10417 1.42364 7.10417 1.9375V3.22917H1.9375C1.42364 3.22917 0.930832 3.4333 0.567481 3.79665C0.204129 4.16 0 4.65281 0 5.16667V23.8958C0 24.4097 0.204129 24.9025 0.567481 25.2659C0.930832 25.6292 1.42364 25.8333 1.9375 25.8333H12.9167L12.484 27.125H10.9792C10.6366 27.125 10.3081 27.2611 10.0658 27.5033C9.82358 27.7456 9.6875 28.0741 9.6875 28.4167V30.3542C9.6875 30.5255 9.75554 30.6897 9.87666 30.8108C9.99778 30.932 10.162 31 10.3333 31H19.375C19.5463 31 19.7106 30.932 19.8317 30.8108C19.9528 30.6897 20.0208 30.5255 20.0208 30.3542V28.4167C20.0208 28.0741 19.8847 27.7456 19.6425 27.5033C19.4003 27.2611 19.0717 27.125 18.7292 27.125H17.2567L16.824 25.8333H27.7708C28.2847 25.8333 28.7775 25.6292 29.1408 25.2659C29.5042 24.9025 29.7083 24.4097 29.7083 23.8958V5.16667C29.7083 4.65281 29.5042 4.16 29.1408 3.79665C28.7775 3.4333 28.2847 3.22917 27.7708 3.22917ZM21.3125 16.7917V18.0833H9.04167C8.87038 18.0833 8.70611 18.0153 8.58499 17.8942C8.46388 17.7731 8.39583 17.6088 8.39583 17.4375C8.39583 17.2662 8.46388 17.1019 8.58499 16.9808C8.70611 16.8597 8.87038 16.7917 9.04167 16.7917H21.3125ZM21.3125 15.5H10.9792V1.29167H21.3125V15.5ZM8.39583 1.9375C8.39583 1.76621 8.46388 1.60194 8.58499 1.48083C8.70611 1.35971 8.87038 1.29167 9.04167 1.29167H9.6875V15.5C9.25348 15.4541 8.81468 15.4936 8.39583 15.6163V1.9375ZM1.29167 5.16667C1.29167 4.99538 1.35971 4.83111 1.48083 4.70999C1.60194 4.58888 1.76621 4.52083 1.9375 4.52083H7.10417V17.4375C7.10417 17.9514 7.30829 18.4442 7.67165 18.8075C8.035 19.1709 8.52781 19.375 9.04167 19.375H21.9583C22.1296 19.375 22.2939 19.307 22.415 19.1858C22.5361 19.0647 22.6042 18.9005 22.6042 18.7292V4.52083H27.7708C27.9421 4.52083 28.1064 4.58888 28.2275 4.70999C28.3486 4.83111 28.4167 4.99538 28.4167 5.16667V20.6667H1.29167V5.16667ZM18.7292 29.7083H10.9792V28.4167H18.7292V29.7083ZM15.894 27.125H13.8144L14.2406 25.8333H15.5L15.894 27.125ZM28.4167 23.8958C28.4167 24.0671 28.3486 24.2314 28.2275 24.3525C28.1064 24.4736 27.9421 24.5417 27.7708 24.5417H1.9375C1.76621 24.5417 1.60194 24.4736 1.48083 24.3525C1.35971 24.2314 1.29167 24.0671 1.29167 23.8958V21.9583H28.4167V23.8958Z" fill="white"></path><path d="M14.396 23.7086C14.4865 23.7984 14.6016 23.8594 14.7267 23.8839C14.8518 23.9084 14.9814 23.8953 15.0991 23.8462C15.2168 23.7972 15.3174 23.7144 15.3881 23.6083C15.4588 23.5022 15.4966 23.3776 15.4966 23.2501C15.4966 23.1226 15.4588 22.9979 15.3881 22.8918C15.3174 22.7857 15.2168 22.703 15.0991 22.6539C14.9814 22.6049 14.8518 22.5918 14.7267 22.6163C14.6016 22.6408 14.4865 22.7017 14.396 22.7915C14.3354 22.8516 14.2874 22.923 14.2546 23.0017C14.2218 23.0804 14.2049 23.1648 14.2049 23.2501C14.2049 23.3353 14.2218 23.4198 14.2546 23.4985C14.2874 23.5772 14.3354 23.6486 14.396 23.7086ZM13.5628 10.9792H18.7295C18.9008 10.9792 19.065 10.9112 19.1862 10.7901C19.3073 10.669 19.3753 10.5047 19.3753 10.3334C19.3753 10.1621 19.3073 9.99786 19.1862 9.87674C19.065 9.75562 18.9008 9.68758 18.7295 9.68758H13.5628C13.3915 9.68758 13.2273 9.75562 13.1062 9.87674C12.985 9.99786 12.917 10.1621 12.917 10.3334C12.917 10.5047 12.985 10.669 13.1062 10.7901C13.2273 10.9112 13.3915 10.9792 13.5628 10.9792ZM17.4378 12.2709H14.8545C14.6832 12.2709 14.5189 12.339 14.3978 12.4601C14.2767 12.5812 14.2087 12.7455 14.2087 12.9167C14.2087 13.088 14.2767 13.2523 14.3978 13.3734C14.5189 13.4945 14.6832 13.5626 14.8545 13.5626H17.4378C17.6091 13.5626 17.7734 13.4945 17.8945 13.3734C18.0156 13.2523 18.0837 13.088 18.0837 12.9167C18.0837 12.7455 18.0156 12.5812 17.8945 12.4601C17.7734 12.339 17.6091 12.2709 17.4378 12.2709ZM13.5628 7.10425H18.7295C18.9008 7.10425 19.065 7.0362 19.1862 6.91509C19.3073 6.79397 19.3753 6.6297 19.3753 6.45841V3.87508C19.3753 3.7038 19.3073 3.53953 19.1862 3.41841C19.065 3.29729 18.9008 3.22925 18.7295 3.22925H13.5628C13.3915 3.22925 13.2273 3.29729 13.1062 3.41841C12.985 3.53953 12.917 3.7038 12.917 3.87508V6.45841C12.917 6.6297 12.985 6.79397 13.1062 6.91509C13.2273 7.0362 13.3915 7.10425 13.5628 7.10425ZM14.2087 4.52091H18.0837V5.81258H14.2087V4.52091Z" fill="white"></path></svg>