<svg xmlns="http://www.w3.org/2000/svg" width="44" height="44" viewBox="0 0 44 44" fill="none"><path d="M22 44C34.1503 44 44 34.1503 44 22C44 9.8498 34.1503 0 22 0C9.84974 0 0 9.8498 0 22C0 34.1503 9.84974 44 22 44Z" fill="#02B969"></path><path fill-rule="evenodd" clip-rule="evenodd" d="M25.1929 43.7441C25.3757 43.7248 25.5572 43.7029 25.7387 43.6809C27.1852 43.4307 28.603 43.0364 29.971 42.5039C30.6547 42.2387 31.3247 41.9395 31.9785 41.6074C33.2866 40.9411 34.5248 40.1456 35.6745 39.2327C37.9802 37.4031 39.8954 35.1293 41.3065 32.5461C41.4825 32.2051 41.6489 31.8614 41.8056 31.5121L32.8227 22.5293C32.9451 22.3959 33.0097 22.8579 33.0029 22.6764L41.7932 31.552C41.8276 31.4832 42.0916 30.9236 42.126 30.8535L22.4759 11.2062C22.4118 11.1417 22.3357 11.0905 22.2518 11.0556C22.1679 11.0207 22.0779 11.0027 21.9871 11.0027C21.8962 11.0027 21.8062 11.0207 21.7223 11.0556C21.6384 11.0905 21.5623 11.1417 21.4982 11.2062L11.1967 21.5791C10.5422 22.2295 11.5212 23.2085 12.1716 22.5554L13.7611 24.1449V32.3124C13.7611 32.4947 13.8335 32.6696 13.9625 32.7985C14.0914 32.9274 14.2663 32.9999 14.4486 32.9999L25.1929 43.7441Z" fill="#017F47"></path><path fill-rule="evenodd" clip-rule="evenodd" d="M21.9821 11C21.8001 11.0017 21.626 11.0752 21.4981 11.2048L11.1966 21.5792C11.0677 21.7088 10.9956 21.8843 10.9961 22.0671C10.9966 22.25 11.0697 22.4251 11.1994 22.554C11.329 22.683 11.5046 22.7551 11.6874 22.7546C11.8702 22.7541 12.0453 22.6808 12.1742 22.5512L13.761 20.9535V32.3125C13.761 32.4948 13.8334 32.6696 13.9624 32.7986C14.0913 32.9275 14.2662 33 14.4485 33H29.5735C29.7558 33 29.9307 32.9275 30.0596 32.7986C30.1886 32.6696 30.261 32.4948 30.261 32.3125V20.999L31.8037 22.5512C31.8679 22.6151 31.9441 22.6658 32.0278 22.7002C32.1116 22.7347 32.2013 22.7524 32.2919 22.7521C32.4746 22.7581 32.6522 22.6912 32.7856 22.5663C32.9191 22.4414 32.9974 22.2686 33.0034 22.0859C33.0095 21.9032 32.9426 21.7256 32.8177 21.5921C32.6928 21.4587 32.52 21.3803 32.3372 21.3743H32.5793L22.4758 11.2048C22.4113 11.1395 22.3344 11.0877 22.2496 11.0525C22.1648 11.0174 22.0739 10.9996 21.9821 11ZM21.9876 12.6677L28.886 19.6157V31.625H24.761V25.4375C24.761 25.2551 24.6886 25.0802 24.5596 24.9512C24.4307 24.8223 24.2558 24.75 24.0735 24.75H19.9485C19.7662 24.75 19.5913 24.8223 19.4624 24.9512C19.3334 25.0802 19.261 25.2551 19.261 25.4375V31.625H15.136V19.5662L21.9876 12.6677ZM22.011 16.5C20.5012 16.5 19.261 17.7402 19.261 19.25C19.261 20.7611 20.5012 22 22.011 22C23.5235 22 24.761 20.7611 24.761 19.25C24.761 17.7402 23.5235 16.5 22.011 16.5ZM22.011 17.875C22.7796 17.875 23.386 18.4827 23.386 19.25C23.386 20.0172 22.7796 20.625 22.011 20.625C21.2437 20.625 20.636 20.0172 20.636 19.25C20.636 18.4827 21.2437 17.875 22.011 17.875ZM20.636 26.125H23.386V31.625H20.636V26.125Z" fill="white"></path></svg>