<svg xmlns="http://www.w3.org/2000/svg" width="48" height="48" viewBox="0 0 48 48" fill="none"><path d="M37.856 0H10.144C4.54162 0 0 4.54167 0 10.144V37.8561C0 43.4585 4.54162 48 10.144 48H37.856C43.4584 48 48 43.4585 48 37.8561V10.144C48 4.54167 43.4584 0 37.856 0Z" fill="url(#paint0_linear_48_82)"></path><path d="M35.7488 17.781L34.798 17.3397L33.2402 10.9795C33.0065 10.0255 32.2147 9.54523 31.2607 9.7789C30.3067 10.0126 29.8264 10.8044 30.0601 11.7584L30.2548 12.5534C27.4252 14.7633 23.2782 18.4757 18.508 19.6441L14.5329 20.6177C12.3068 21.1629 11.0251 23.4993 11.5314 25.5664C11.8819 26.9975 12.9884 28.0748 14.2573 28.4382L18.304 37.3911C18.4209 37.8681 18.9758 38.0693 19.6118 37.9135L19.9298 37.8356L25.3814 35.3206C25.9784 35.0058 26.1796 34.4509 25.9038 34.0128C25.1931 33.1756 24.0476 31.9393 23.2947 31.6181C22.9378 31.537 22.1492 30.3818 21.4807 29.0286L22.4347 28.7949L22.0842 27.3639C26.4942 26.7894 32.2476 27.5713 34.1492 28.4539L34.344 29.2489C34.5776 30.203 35.3694 30.6832 36.3234 30.4495C37.2775 30.2159 37.7577 29.4241 37.5241 28.4701L35.9663 22.1099L36.4855 21.4771C37.0047 20.8443 37.1669 20.1304 37.0111 19.4943L36.9332 19.1763C36.7775 18.5403 36.3426 18.1412 35.7488 17.781ZM14.1273 22.4024L18.8975 21.2341L19.2869 22.8242L14.5168 23.9925L14.1273 22.4024ZM22.8112 33.0848C22.9703 33.0459 23.4051 33.445 23.8789 34.0032L19.6993 36.2066L16.1621 28.6458L19.1832 27.9059C20.0075 29.8951 21.3834 32.7604 22.8112 33.0848ZM33.6819 26.5459C30.8263 25.8969 25.9068 25.0793 21.6558 25.6148L20.4875 20.8447C24.5048 19.3551 28.5286 16.5156 30.7221 14.4615L33.6819 26.5459Z" fill="white"></path><defs><linearGradient id="paint0_linear_48_82" x1="8.27388" y1="8.74425" x2="115.005" y2="112.368" gradientUnits="userSpaceOnUse"><stop stop-color="#FD6B02"></stop><stop offset="0.394" stop-color="#F6921E"></stop><stop offset="0.507" stop-color="#F05A28"></stop><stop offset="0.813" stop-color="#F05828"></stop><stop offset="1" stop-color="#FF4949"></stop></linearGradient></defs></svg>