<svg xmlns="http://www.w3.org/2000/svg" width="44" height="44" viewBox="0 0 44 44" fill="none"><path d="M22 44C34.1503 44 44 34.1503 44 22C44 9.84974 34.1503 0 22 0C9.84973 0 0 9.84974 0 22C0 34.1503 9.84973 44 22 44Z" fill="#02B969"></path><path d="M14.2124 10.9998C14.0908 10.9998 13.9743 11.048 13.8883 11.134C13.8024 11.22 13.7541 11.3365 13.7541 11.4581V13.2914H13.2957C13.1742 13.2914 13.0576 13.3397 12.9716 13.4257C12.8857 13.5116 12.8374 13.6282 12.8374 13.7498C12.8374 13.8713 12.8857 13.9879 12.9716 14.0738C13.0576 14.1598 13.1742 14.2081 13.2957 14.2081L13.7541 14.6664V15.1248H13.2957C13.1742 15.1248 13.0576 15.173 12.9716 15.259C12.8857 15.345 12.8374 15.4615 12.8374 15.5831C12.8374 15.7046 12.8857 15.8212 12.9716 15.9072C13.0576 15.9931 13.1742 16.0414 13.2957 16.0414L13.7541 16.4998V16.9581H13.2957C13.1742 16.9581 13.0576 17.0064 12.9716 17.0923C12.8857 17.1783 12.8374 17.2949 12.8374 17.4164C12.8374 17.538 12.8857 17.6546 12.9716 17.7405C13.0576 17.8265 13.1742 17.8748 13.2957 17.8748L13.7541 18.3331V18.7914H13.2957C13.1742 18.7914 13.0576 18.8397 12.9716 18.9257C12.8857 19.0116 12.8374 19.1282 12.8374 19.2498C12.8374 19.3713 12.8857 19.4879 12.9716 19.5738C13.0576 19.6598 13.1742 19.7081 13.2957 19.7081L13.7541 20.1664V20.6248H13.2957C13.1742 20.6248 13.0576 20.673 12.9716 20.759C12.8857 20.845 12.8374 20.9615 12.8374 21.0831C12.8374 21.2046 12.8857 21.3212 12.9716 21.4072C13.0576 21.4931 13.1742 21.5414 13.2957 21.5414L13.7541 21.9998V22.4581H13.2957C13.1742 22.4581 13.0576 22.5064 12.9716 22.5923C12.8857 22.6783 12.8374 22.7949 12.8374 22.9164C12.8374 23.038 12.8857 23.1546 12.9716 23.2405C13.0576 23.3265 13.1742 23.3748 13.2957 23.3748L13.7541 23.8331V24.2914H13.2957C13.1742 24.2914 13.0576 24.3397 12.9716 24.4257C12.8857 24.5116 12.8374 24.6282 12.8374 24.7498C12.8374 24.8713 12.8857 24.9879 12.9716 25.0738C13.0576 25.1598 13.1742 25.2081 13.2957 25.2081L13.7541 25.6664V26.1248H13.2957C13.1742 26.1248 13.0576 26.173 12.9716 26.259C12.8857 26.345 12.8374 26.4615 12.8374 26.5831C12.8374 26.7046 12.8857 26.8212 12.9716 26.9072C13.0576 26.9931 13.1742 27.0414 13.2957 27.0414L13.7541 27.4998V27.9581H13.2957C13.1742 27.9581 13.0576 28.0064 12.9716 28.0923C12.8857 28.1783 12.8374 28.2949 12.8374 28.4164C12.8374 28.538 12.8857 28.6546 12.9716 28.7405C13.0576 28.8265 13.1742 28.8748 13.2957 28.8748L13.7541 29.3331V29.7914H13.2957C13.1742 29.7914 13.0576 29.8397 12.9716 29.9257C12.8857 30.0116 12.8374 30.1282 12.8374 30.2498C12.8374 30.3713 12.8857 30.4879 12.9716 30.5738C13.0576 30.6598 13.1742 30.7081 13.2957 30.7081L13.7541 31.1664V31.6248H13.2957C13.1742 31.6248 13.0576 31.673 12.9716 31.759C12.8857 31.845 12.8374 31.9615 12.8374 32.0831C12.8374 32.2046 12.8857 32.3212 12.9716 32.4072C13.0576 32.4931 13.1742 32.5414 13.2957 32.5414L13.7541 32.9998V34.3748C13.7541 34.4963 13.8024 34.6129 13.8883 34.6988C13.9743 34.7848 14.0908 34.8331 14.2124 34.8331L23.3305 43.9512C28.4671 43.6364 33.3309 41.5309 37.0756 38.0009C40.8204 34.4708 43.2091 29.7397 43.8262 24.6306L30.6675 11.4728C30.321 11.1437 29.8333 10.9998 29.2797 10.9998H14.2124Z" fill="#017F47"></path><path d="M14.2124 10.9998C14.0908 10.9998 13.9743 11.048 13.8883 11.134C13.8024 11.2199 13.7541 11.3365 13.7541 11.4581V13.2914H13.2957C13.1742 13.2914 13.0576 13.3397 12.9716 13.4256C12.8857 13.5116 12.8374 13.6282 12.8374 13.7498C12.8374 13.8713 12.8857 13.9879 12.9716 14.0739C13.0576 14.1598 13.1742 14.2081 13.2957 14.2081H13.7541V15.1248H13.2957C13.1742 15.1248 13.0576 15.173 12.9716 15.259C12.8857 15.3449 12.8374 15.4615 12.8374 15.5831C12.8374 15.7046 12.8857 15.8212 12.9716 15.9072C13.0576 15.9932 13.1742 16.0414 13.2957 16.0414H13.7541V16.9581H13.2957C13.1742 16.9581 13.0576 17.0064 12.9716 17.0923C12.8857 17.1783 12.8374 17.2949 12.8374 17.4164C12.8374 17.538 12.8857 17.6546 12.9716 17.7405C13.0576 17.8265 13.1742 17.8748 13.2957 17.8748H13.7541V18.7915H13.2957C13.1742 18.7915 13.0576 18.8397 12.9716 18.9256C12.8857 19.0116 12.8374 19.1283 12.8374 19.2498C12.8374 19.3714 12.8857 19.4879 12.9716 19.5739C13.0576 19.6598 13.1742 19.7081 13.2957 19.7081H13.7541V20.6248H13.2957C13.1742 20.6248 13.0576 20.673 12.9716 20.759C12.8857 20.8449 12.8374 20.9616 12.8374 21.0831C12.8374 21.2047 12.8857 21.3212 12.9716 21.4072C13.0576 21.4932 13.1742 21.5415 13.2957 21.5415H13.7541V22.4581H13.2957C13.1742 22.4581 13.0576 22.5064 12.9716 22.5923C12.8857 22.6783 12.8374 22.7949 12.8374 22.9165C12.8374 23.038 12.8857 23.1546 12.9716 23.2405C13.0576 23.3265 13.1742 23.3748 13.2957 23.3748H13.7541V24.2915H13.2957C13.1742 24.2915 13.0576 24.3397 12.9716 24.4256C12.8857 24.5116 12.8374 24.6283 12.8374 24.7498C12.8374 24.8714 12.8857 24.9879 12.9716 25.0739C13.0576 25.1598 13.1742 25.2081 13.2957 25.2081H13.7541V26.1248H13.2957C13.1742 26.1248 13.0576 26.173 12.9716 26.259C12.8857 26.3449 12.8374 26.4616 12.8374 26.5831C12.8374 26.7047 12.8857 26.8212 12.9716 26.9072C13.0576 26.9932 13.1742 27.0415 13.2957 27.0415H13.7541V27.9581H13.2957C13.1742 27.9581 13.0576 28.0064 12.9716 28.0923C12.8857 28.1783 12.8374 28.2949 12.8374 28.4165C12.8374 28.538 12.8857 28.6546 12.9716 28.7405C13.0576 28.8265 13.1742 28.8748 13.2957 28.8748H13.7541V29.7915H13.2957C13.1742 29.7915 13.0576 29.8397 12.9716 29.9256C12.8857 30.0116 12.8374 30.1283 12.8374 30.2498C12.8374 30.3714 12.8857 30.4879 12.9716 30.5739C13.0576 30.6598 13.1742 30.7081 13.2957 30.7081H13.7541V31.6248H13.2957C13.1742 31.6248 13.0576 31.673 12.9716 31.759C12.8857 31.8449 12.8374 31.9616 12.8374 32.0831C12.8374 32.2047 12.8857 32.3212 12.9716 32.4072C13.0576 32.4932 13.1742 32.5415 13.2957 32.5415H13.7541V34.3748C13.7541 34.4964 13.8024 34.6129 13.8883 34.6989C13.9743 34.7848 14.0908 34.8331 14.2124 34.8331H29.2742C29.8287 34.8331 30.3265 34.6892 30.6748 34.3427C31.0222 33.9962 31.1698 33.4976 31.1698 32.943V12.7955C31.1698 12.2803 31.014 11.8009 30.6675 11.4727C30.3201 11.1437 29.8324 10.9998 29.2797 10.9998H14.2124ZM14.6707 11.9164H29.2787C29.6784 11.9164 29.9048 12.0136 30.0359 12.1383C30.1679 12.2638 30.2532 12.4517 30.2532 12.7955V32.943C30.2532 33.3436 30.1587 33.5617 30.0267 33.6928C29.8957 33.8239 29.6747 33.9165 29.2732 33.9165H14.6707V32.5415H15.1291C15.2506 32.5415 15.3672 32.4932 15.4532 32.4072C15.5391 32.3212 15.5874 32.2047 15.5874 32.0831C15.5874 31.9616 15.5391 31.8449 15.4532 31.759C15.3672 31.673 15.2506 31.6248 15.1291 31.6248H14.6707V30.7081H15.1291C15.2506 30.7081 15.3672 30.6598 15.4532 30.5739C15.5391 30.4879 15.5874 30.3714 15.5874 30.2498C15.5874 30.1283 15.5391 30.0116 15.4532 29.9256C15.3672 29.8397 15.2506 29.7915 15.1291 29.7915H14.6707V28.8748H15.1291C15.2506 28.8748 15.3672 28.8265 15.4532 28.7405C15.5391 28.6546 15.5874 28.538 15.5874 28.4165C15.5874 28.2949 15.5391 28.1783 15.4532 28.0923C15.3672 28.0064 15.2506 27.9581 15.1291 27.9581H14.6707V27.0415H15.1291C15.2506 27.0415 15.3672 26.9932 15.4532 26.9072C15.5391 26.8212 15.5874 26.7047 15.5874 26.5831C15.5874 26.4616 15.5391 26.3449 15.4532 26.259C15.3672 26.173 15.2506 26.1248 15.1291 26.1248H14.6707V25.2081H15.1291C15.2506 25.2081 15.3672 25.1598 15.4532 25.0739C15.5391 24.9879 15.5874 24.8714 15.5874 24.7498C15.5874 24.6283 15.5391 24.5116 15.4532 24.4256C15.3672 24.3397 15.2506 24.2915 15.1291 24.2915H14.6707V23.3748H15.1291C15.2506 23.3748 15.3672 23.3265 15.4532 23.2405C15.5391 23.1546 15.5874 23.038 15.5874 22.9165C15.5874 22.7949 15.5391 22.6783 15.4532 22.5923C15.3672 22.5064 15.2506 22.4581 15.1291 22.4581H14.6707V21.5415H15.1291C15.2506 21.5415 15.3672 21.4932 15.4532 21.4072C15.5391 21.3212 15.5874 21.2047 15.5874 21.0831C15.5874 20.9616 15.5391 20.8449 15.4532 20.759C15.3672 20.673 15.2506 20.6248 15.1291 20.6248H14.6707V19.7081H15.1291C15.2506 19.7081 15.3672 19.6598 15.4532 19.5739C15.5391 19.4879 15.5874 19.3714 15.5874 19.2498C15.5874 19.1283 15.5391 19.0116 15.4532 18.9256C15.3672 18.8397 15.2506 18.7915 15.1291 18.7915H14.6707V17.8748H15.1291C15.2506 17.8748 15.3672 17.8265 15.4532 17.7405C15.5391 17.6546 15.5874 17.538 15.5874 17.4164C15.5874 17.2949 15.5391 17.1783 15.4532 17.0923C15.3672 17.0064 15.2506 16.9581 15.1291 16.9581H14.6707V16.0414H15.1291C15.2506 16.0414 15.3672 15.9932 15.4532 15.9072C15.5391 15.8212 15.5874 15.7046 15.5874 15.5831C15.5874 15.4615 15.5391 15.3449 15.4532 15.259C15.3672 15.173 15.2506 15.1248 15.1291 15.1248H14.6707V14.2081H15.1291C15.2506 14.2081 15.3672 14.1598 15.4532 14.0739C15.5391 13.9879 15.5874 13.8713 15.5874 13.7498C15.5874 13.6282 15.5391 13.5116 15.4532 13.4256C15.3672 13.3397 15.2506 13.2914 15.1291 13.2914H14.6707V11.9164ZM21.5384 17.4045C21.4168 17.4045 21.3003 17.4528 21.2143 17.5387C21.1284 17.6247 21.0801 17.7413 21.0801 17.8628V21.5359C21.0801 21.6574 21.1284 21.7741 21.2143 21.8601C21.3003 21.946 21.4168 21.9942 21.5384 21.9942C21.66 21.9942 21.7765 21.946 21.8625 21.8601C21.9484 21.7741 21.9967 21.6574 21.9967 21.5359V20.1665H22.9226V21.5359C22.9226 21.6574 22.9709 21.7741 23.0568 21.8601C23.1428 21.946 23.2593 21.9942 23.3809 21.9942C23.5025 21.9942 23.619 21.946 23.705 21.8601C23.7909 21.7741 23.8392 21.6574 23.8392 21.5359V19.7998C23.8525 19.7372 23.8525 19.6726 23.8392 19.61V17.8619C23.8392 17.7404 23.7909 17.6238 23.705 17.5378C23.619 17.4519 23.5025 17.4036 23.3809 17.4036L21.5384 17.4045ZM27.9551 17.4137C27.8337 17.4156 27.718 17.4656 27.6334 17.5528C27.5489 17.6399 27.5024 17.757 27.5041 17.8784V20.172L26.9522 19.4386C26.9095 19.3818 26.8542 19.3358 26.7907 19.3041C26.7271 19.2724 26.6571 19.2559 26.586 19.2559C26.515 19.2559 26.445 19.2724 26.3814 19.3041C26.3178 19.3358 26.2625 19.3818 26.2198 19.4386L25.6689 20.172V17.8784C25.6696 17.8172 25.6581 17.7564 25.6349 17.6996C25.6118 17.6429 25.5775 17.5914 25.5341 17.5481C25.4906 17.5049 25.439 17.4708 25.3822 17.4479C25.3254 17.4249 25.2645 17.4136 25.2032 17.4146C25.082 17.4165 24.9665 17.4664 24.8819 17.5533C24.7974 17.6403 24.7508 17.7572 24.7522 17.8784V21.5451C24.752 21.6413 24.7822 21.7352 24.8383 21.8134C24.8945 21.8916 24.9739 21.9501 25.0652 21.9807C25.1565 22.0112 25.2551 22.0122 25.347 21.9836C25.4389 21.9549 25.5195 21.898 25.5772 21.821L26.5874 20.4762L27.5957 21.821C27.6535 21.898 27.7339 21.9548 27.8257 21.9835C27.9176 22.0122 28.0161 22.0112 28.1073 21.9808C28.1986 21.9504 28.278 21.892 28.3342 21.8139C28.3905 21.7359 28.4207 21.6422 28.4207 21.546V17.8793C28.4217 17.8179 28.4104 17.7569 28.3873 17.7C28.3643 17.643 28.33 17.5913 28.2866 17.5478C28.2431 17.5044 28.1914 17.4701 28.1344 17.4471C28.0775 17.424 28.0165 17.4127 27.9551 17.4137ZM17.8754 17.4137C17.8152 17.4145 17.7558 17.4272 17.7005 17.451C17.6452 17.4748 17.5951 17.5093 17.5532 17.5524C17.5112 17.5956 17.4782 17.6466 17.4559 17.7025C17.4337 17.7585 17.4226 17.8183 17.4235 17.8784V21.5387C17.4235 21.6602 17.4718 21.7768 17.5577 21.8627C17.6437 21.9487 17.7603 21.997 17.8818 21.997H19.7051C19.8266 21.997 19.9432 21.9487 20.0292 21.8627C20.1151 21.7768 20.1634 21.6602 20.1634 21.5387C20.1634 21.4171 20.1151 21.3006 20.0292 21.2146C19.9432 21.1287 19.8266 21.0803 19.7051 21.0803H18.3402V17.8784C18.341 17.8172 18.3296 17.7564 18.3065 17.6996C18.2835 17.6428 18.2493 17.5912 18.206 17.5478C18.1626 17.5045 18.111 17.4704 18.0543 17.4473C17.9975 17.4243 17.9367 17.4128 17.8754 17.4137ZM21.9967 18.3175H22.9226V19.247H21.9967V18.3175Z" fill="white"></path></svg>