<svg xmlns="http://www.w3.org/2000/svg" width="48" height="48" viewBox="0 0 48 48" fill="none"><path d="M37.856 0H10.144C4.54164 0 0 4.54154 0 10.1439V37.856C0 43.4583 4.54164 48 10.144 48H37.856C43.4584 48 48 43.4583 48 37.856V10.1439C48 4.54154 43.4584 0 37.856 0Z" fill="url(#paint0_linear_48_91)"></path><path d="M19.813 10.938L19.781 11.407C19.771 11.565 19.693 11.667 19.531 11.782C19.377 11.892 19.148 11.982 18.938 12.001H16.719C15.216 12.001 14 13.239 14 14.751V17.594C13.9734 17.6858 13.9734 17.7832 14 17.875V19.5C14 20.578 14.38 21.561 15 22.344V24.719L10.094 27.532C8.81399 28.264 8 29.619 8 31.094V36H37.25C38.73 36 40 34.909 40 33.5C39.9951 33.369 39.9408 33.2446 39.8481 33.1519C39.7554 33.0591 39.631 33.0049 39.5 33H38V18.5C37.9951 18.369 37.9408 18.2446 37.8481 18.1519C37.7554 18.0591 37.631 18.0049 37.5 18H23C23.0003 17.99 23.0003 17.98 23 17.97V13.751C22.901 12.991 22.67 12.308 22.219 11.783C21.768 11.257 21.089 10.935 20.281 10.939L19.813 10.938ZM20.469 12.001C20.893 12.044 21.237 12.168 21.469 12.438C21.73 12.742 21.912 13.219 22 13.813V16.907C21.8028 16.8053 21.5925 16.7313 21.375 16.687C20.78 16.578 20.173 16.6 19.594 16.626C19.015 16.65 18.47 16.653 18.031 16.532C17.593 16.411 17.26 16.223 16.969 15.719C16.9146 15.6222 16.8304 15.5455 16.729 15.5005C16.6275 15.4554 16.5142 15.4444 16.406 15.469C16.3152 15.4913 16.2323 15.538 16.1662 15.6041C16.1 15.6702 16.0533 15.7532 16.031 15.844C16.05 15.776 15.979 15.934 15.844 16.094C15.708 16.254 15.541 16.449 15.344 16.625C15.23 16.727 15.117 16.793 15 16.875V14.751C15 13.769 15.76 13.001 16.719 13.001H18.968C19.3833 12.9722 19.7831 12.8316 20.125 12.594C20.306 12.466 20.347 12.207 20.469 12.001ZM16.688 16.657C17.034 16.986 17.34 17.387 17.75 17.501C18.384 17.675 19.03 17.651 19.625 17.626C20.22 17.601 20.775 17.581 21.188 17.656C21.569 17.726 21.798 17.876 22 18.188V19.5C22 21.48 20.445 23.063 18.5 23.063C16.556 23.063 15 21.479 15 19.5V18.063C15.087 18.013 15.194 17.963 15.281 17.907C15.517 17.757 15.771 17.58 16.001 17.375C16.223 17.1811 16.4315 16.9723 16.625 16.75C16.651 16.72 16.663 16.686 16.688 16.657ZM23 19.001H37V32.969L35.125 33H29V31C29 29.585 28.26 28.265 27.031 27.563L22.001 24.719V22.313C22.604 21.536 23.001 20.562 23.001 19.5L23 19.001ZM21 23.281V25.281C20.602 26.021 20.22 26.786 19.344 27.531L19.313 27.563L18.531 28.282L17.781 27.562L17.719 27.501C17.002 26.727 16.319 25.808 16 24.938V23.313C16.711 23.793 17.582 24.063 18.5 24.063C19.433 24.063 20.282 23.775 21 23.283V23.281ZM14.625 26.063L14.031 28.313L14.001 28.344V28.375C13.906 29.153 14.751 29.81 15.469 29.469V29.438L17.344 28.532L18 29.157V35H13V32H12V35H9V31.094C9.0045 30.5409 9.15409 29.9987 9.43381 29.5216C9.71353 29.0445 10.1136 28.6491 10.594 28.375L14.625 26.063ZM15.656 26.157C15.971 26.711 16.278 27.243 16.688 27.72L15.031 28.563H15.001V28.533C14.998 28.521 14.996 28.532 15.001 28.501L15.656 26.157ZM22.531 26.157L26.531 28.438C26.9806 28.6972 27.3535 29.0709 27.6118 29.5211C27.87 29.9713 28.0043 30.482 28.001 31.001V35.001H25.031V32.001H24.031V35.001H19.031V29.188L19.751 28.532L21.719 29.47C22.447 29.8 23.319 29.169 23.219 28.376L23.188 28.314V28.283C23.188 28.283 22.911 27.47 22.656 26.627C22.606 26.46 22.574 26.322 22.531 26.157ZM21.563 26.313C21.62 26.513 21.657 26.7 21.719 26.907C21.962 27.714 22.16 28.415 22.188 28.501C22.185 28.525 22.181 28.567 22.156 28.563H22.126L20.438 27.75C20.904 27.24 21.316 26.772 21.563 26.313ZM20.5 31.001C20.3674 31.001 20.2402 31.0537 20.1464 31.1475C20.0527 31.2412 20 31.3684 20 31.501C20 31.6336 20.0527 31.7607 20.1464 31.8545C20.2402 31.9483 20.3674 32.001 20.5 32.001C20.6326 32.001 20.7598 31.9483 20.8535 31.8545C20.9473 31.7607 21 31.6336 21 31.501C21 31.3684 20.9473 31.2412 20.8535 31.1475C20.7598 31.0537 20.6326 31.001 20.5 31.001ZM20.5 33.001C20.3674 33.001 20.2402 33.0537 20.1464 33.1475C20.0527 33.2412 20 33.3684 20 33.501C20 33.6336 20.0527 33.7607 20.1464 33.8545C20.2402 33.9483 20.3674 34.001 20.5 34.001C20.6326 34.001 20.7598 33.9483 20.8535 33.8545C20.9473 33.7607 21 33.6336 21 33.501C21 33.3684 20.9473 33.2412 20.8535 33.1475C20.7598 33.0537 20.6326 33.001 20.5 33.001ZM29 34.001H38.75C38.5 34.543 38.007 35.001 37.25 35.001H29V34.001Z" fill="white"></path><defs><linearGradient id="paint0_linear_48_91" x1="8.27488" y1="8.74425" x2="115.006" y2="112.368" gradientUnits="userSpaceOnUse"><stop stop-color="#FD6B02"></stop><stop offset="0.3941" stop-color="#F6921E"></stop><stop offset="0.507" stop-color="#F05A28"></stop><stop offset="0.813" stop-color="#F05828"></stop><stop offset="1" stop-color="#FF4949"></stop></linearGradient></defs></svg>