<svg xmlns="http://www.w3.org/2000/svg" width="24" height="32" viewBox="0 0 24 32" fill="none"><path d="M6.7627 0C4.95286 1.56853 1.26077 4.778 0.971191 5.06757H6.7627V0Z" fill="#7D4300"></path><path d="M6.76266 0V5.06757H23.7752V0H6.76266Z" fill="#F05A28"></path><path d="M23.7752 31.8534V5.06763H6.76263V31.8534L15.0879 23.5281L23.7752 31.8534Z" fill="#F05A28"></path><path d="M19.4039 10.6596C19.4509 10.4201 19.2629 10.1327 19.0278 10.1327L16.3476 9.74959L15.1251 7.25909C15.0781 7.1633 15.0311 7.1154 14.937 7.06751C14.7019 6.92383 14.4198 7.01961 14.2788 7.25909L13.1033 9.74959L10.4231 10.1327C10.2821 10.1327 10.188 10.1806 10.141 10.2764C9.95295 10.468 9.95295 10.7554 10.141 10.947L12.0688 12.8627L11.5986 15.5927C11.5986 15.6885 11.5986 15.7843 11.6457 15.8801C11.7867 16.1195 12.0688 16.2153 12.3039 16.0716L14.7019 14.7785L17.1 16.0716C17.147 16.1195 17.241 16.1195 17.3351 16.1195C17.3821 16.1195 17.3821 16.1195 17.4291 16.1195C17.6642 16.0716 17.8523 15.8322 17.8053 15.5448L17.3351 12.8148L19.2629 10.8991C19.3569 10.8512 19.4039 10.7554 19.4039 10.6596Z" fill="white"></path></svg>