<svg xmlns="http://www.w3.org/2000/svg" width="54" height="54" viewBox="0 0 54 54" fill="none"><circle cx="27" cy="27" r="27" fill="#0D6D42"></circle><path d="M35 19H34V16C34 15.7348 33.8946 15.4804 33.7071 15.2929C33.5196 15.1054 33.2652 15 33 15H21C20.2044 15 19.4413 15.3161 18.8787 15.8787C18.3161 16.4413 18 17.2044 18 18V34C18 34.7956 18.3161 35.5587 18.8787 36.1213C19.4413 36.6839 20.2044 37 21 37H35C35.2652 37 35.5196 36.8946 35.7071 36.7071C35.8946 36.5196 36 36.2652 36 36V20C36 19.7348 35.8946 19.4804 35.7071 19.2929C35.5196 19.1054 35.2652 19 35 19ZM32 25H22V23H32V25ZM32 19H21.05C20.8029 19.0045 20.5622 18.9218 20.3702 18.7663C20.1781 18.6108 20.047 18.3926 20 18.15C19.9782 18.0067 19.9879 17.8603 20.0283 17.7211C20.0687 17.5819 20.1389 17.4531 20.2341 17.3438C20.3292 17.2344 20.447 17.147 20.5792 17.0876C20.7115 17.0283 20.855 16.9984 21 17H32V19Z" fill="white"></path></svg>