<svg xmlns="http://www.w3.org/2000/svg" width="44" height="45" viewBox="0 0 44 45" fill="none"><path d="M22 44.8185C34.1503 44.8185 44 34.7855 44 22.4093C44 10.033 34.1503 0 22 0C9.84974 0 0 10.033 0 22.4093C0 34.7855 9.84974 44.8185 22 44.8185Z" fill="#02B969"></path><path d="M21.9984 8.39966L20.6234 10.2671V10.6705C19.4476 10.9915 18.3947 11.6672 17.6029 12.6089H14.291C14.2383 12.5994 14.1843 12.5994 14.1315 12.6089H14.1031V12.6182C14.0012 12.6423 13.9104 12.7012 13.8458 12.7851C13.7813 12.869 13.7469 12.9729 13.7484 13.0795C13.7487 13.2635 13.7134 13.4458 13.6444 13.6159C13.5755 13.786 13.4742 13.9405 13.3464 14.0706C13.2187 14.2008 13.067 14.304 12.9 14.3742C12.733 14.4445 12.554 14.4804 12.3734 14.48L10.9984 13.0795C10.9993 13.0169 10.988 12.9548 10.9649 12.8968C10.9419 12.8388 10.9076 12.7861 10.8642 12.7418C10.8207 12.6976 10.769 12.6626 10.7121 12.6392C10.6551 12.6157 10.5941 12.6041 10.5327 12.6051C10.4725 12.6061 10.4131 12.6191 10.3578 12.6435C10.3026 12.6679 10.2526 12.7031 10.2107 12.7472C10.1688 12.7912 10.1359 12.8432 10.1138 12.9002C10.0916 12.9573 10.0807 13.0182 10.0817 13.0795C10.0817 13.2531 10.1064 13.4222 10.144 13.5865C10.1569 13.6407 10.1761 13.692 10.1926 13.7452C10.243 13.9118 10.3122 14.0719 10.3989 14.2223C10.4569 14.3221 10.5222 14.4173 10.5941 14.5071C10.628 14.5501 10.6583 14.594 10.6959 14.6351C10.7151 14.6565 10.7307 14.6817 10.7509 14.7022L11.0469 15.0029L8.27677 23.0637C8.24753 23.141 8.23899 23.2248 8.25202 23.3065C8.25012 23.321 8.2489 23.3357 8.24835 23.3504C8.24835 23.6053 8.27769 23.8545 8.32169 24.1001C8.33085 24.1543 8.34369 24.2075 8.3556 24.2616C8.40877 24.5016 8.47385 24.7378 8.56552 24.9619C8.56919 24.9712 8.57469 24.9788 8.57744 24.9881C8.69149 25.257 8.83282 25.513 8.9991 25.7519C9.1366 25.9526 9.28419 26.144 9.45469 26.3177L9.45652 26.3205L16.6166 33.6138H15.1234V35.4813L24.1617 44.6877C29.4363 44.1512 34.3433 41.6927 37.9803 37.7647C41.6174 33.8367 43.7397 28.7032 43.9571 23.3083L33.915 13.0795C33.916 13.0182 33.9051 12.9573 33.883 12.9002C33.8608 12.8432 33.8279 12.7912 33.786 12.7472C33.7441 12.7031 33.6941 12.6679 33.6389 12.6435C33.5836 12.6191 33.5242 12.6061 33.464 12.6051C33.4026 12.6041 33.3416 12.6157 33.2847 12.6392C33.2277 12.6626 33.176 12.6976 33.1325 12.7418C33.0891 12.7861 33.0548 12.8388 33.0318 12.8968C33.0087 12.9548 32.9974 13.0169 32.9984 13.0795C32.9984 13.5809 32.7371 14.0412 32.3109 14.2924C32.1275 14.3998 31.924 14.4521 31.7205 14.467L30.2337 12.9534C30.213 12.8738 30.1719 12.8013 30.1148 12.7431C30.0576 12.6848 29.9864 12.6431 29.9083 12.622L29.8954 12.6089H29.8652C29.8124 12.5994 29.7584 12.5994 29.7057 12.6089H26.4029L26.1004 12.3008C26.0354 12.2345 25.962 12.1794 25.8942 12.1168C25.8053 12.0328 25.7173 11.9506 25.6238 11.874C25.4906 11.7661 25.3529 11.6639 25.2113 11.5678C25.1187 11.5024 25.0261 11.4352 24.9289 11.3764L24.9014 11.3558L21.9984 8.39966ZM12.3734 12.607C12.2518 12.607 12.1352 12.6562 12.0493 12.7437C11.9633 12.8313 11.915 12.9501 11.915 13.0739C11.915 13.1977 11.9633 13.3164 12.0493 13.404C12.1352 13.4915 12.2518 13.5407 12.3734 13.5407C12.4949 13.5407 12.6115 13.4915 12.6974 13.404C12.7834 13.3164 12.8317 13.1977 12.8317 13.0739C12.8317 12.9501 12.7834 12.8313 12.6974 12.7437C12.6115 12.6562 12.4949 12.607 12.3734 12.607ZM31.6234 12.607C31.5018 12.607 31.3852 12.6562 31.2993 12.7437C31.2133 12.8313 31.165 12.9501 31.165 13.0739C31.165 13.1977 31.2133 13.3164 31.2993 13.404C31.3852 13.4915 31.5018 13.5407 31.6234 13.5407C31.7449 13.5407 31.8615 13.4915 31.9474 13.404C32.0334 13.3164 32.0817 13.1977 32.0817 13.0739C32.0817 12.9501 32.0334 12.8313 31.9474 12.7437C31.8615 12.6562 31.7449 12.607 31.6234 12.607ZM30.241 12.9917L31.693 14.4688C31.6701 14.4698 31.6472 14.48 31.6234 14.48L30.2484 13.0795C30.2486 13.05 30.2462 13.0207 30.241 12.9917Z" fill="#004426" fill-opacity="0.5"></path><path d="M21.9984 8.39966L20.6234 10.2671V10.6705C19.4475 10.9912 18.3945 11.667 17.6029 12.6089H14.291C14.2383 12.5994 14.1843 12.5994 14.1315 12.6089H14.1031V12.6182C14.0012 12.6423 13.9104 12.7012 13.8458 12.7851C13.7813 12.869 13.7469 12.9729 13.7484 13.0795C13.7484 13.2634 13.7128 13.4455 13.6437 13.6155C13.5746 13.7854 13.4733 13.9398 13.3456 14.0698C13.2179 14.1999 13.0664 14.303 12.8995 14.3734C12.7327 14.4438 12.5539 14.48 12.3734 14.48C12.1928 14.48 12.014 14.4438 11.8472 14.3734C11.6803 14.303 11.5288 14.1999 11.4011 14.0698C11.2734 13.9398 11.1721 13.7854 11.103 13.6155C11.0339 13.4455 10.9984 13.2634 10.9984 13.0795C10.9993 13.0169 10.988 12.9548 10.9649 12.8968C10.9419 12.8388 10.9076 12.7861 10.8642 12.7418C10.8207 12.6976 10.769 12.6626 10.7121 12.6392C10.6551 12.6157 10.5941 12.6041 10.5327 12.6051C10.4725 12.6061 10.4131 12.6191 10.3578 12.6435C10.3026 12.6679 10.2526 12.7031 10.2107 12.7472C10.1688 12.7912 10.1359 12.8432 10.1138 12.9002C10.0916 12.9573 10.0807 13.0182 10.0817 13.0795C10.0817 13.8386 10.4575 14.5323 11.0598 14.9665L8.27677 23.0637C8.24753 23.141 8.23899 23.2248 8.25202 23.3065C8.25012 23.321 8.2489 23.3357 8.24835 23.3504C8.24835 24.4647 8.68295 25.5335 9.45654 26.3215C10.2301 27.1094 11.2793 27.5521 12.3734 27.5521C13.4674 27.5521 14.5166 27.1094 15.2902 26.3215C16.0638 25.5335 16.4984 24.4647 16.4984 23.3504C16.4982 23.3388 16.4976 23.3273 16.4965 23.3158C16.5118 23.2312 16.5039 23.144 16.4736 23.0637L13.6915 14.9656C14.1636 14.622 14.4881 14.1196 14.6045 13.5463H20.6234V14.9394H21.0854V31.8342C19.7754 32.076 18.6837 32.8192 17.9595 33.6138H15.1234V35.4813H28.8789V33.6138H26.3562C25.5734 32.8323 24.2928 32.0983 22.9187 31.8472V14.9394H23.3734V13.5463H29.3931C29.5104 14.1214 29.8381 14.6295 30.3098 14.9675L27.5268 23.0646C27.4975 23.1419 27.489 23.2257 27.502 23.3074C27.5002 23.3216 27.4989 23.336 27.4984 23.3504C27.4984 24.4647 27.933 25.5335 28.7065 26.3215C29.4801 27.1094 30.5293 27.5521 31.6234 27.5521C32.7174 27.5521 33.7666 27.1094 34.5402 26.3215C35.3138 25.5335 35.7484 24.4647 35.7484 23.3504C35.7482 23.3388 35.7475 23.3273 35.7465 23.3158C35.7618 23.2312 35.7539 23.144 35.7236 23.0637L32.9415 14.9656C33.2399 14.7533 33.484 14.4712 33.6534 14.1431C33.8228 13.8149 33.9125 13.4502 33.915 13.0795C33.916 13.0182 33.9051 12.9573 33.883 12.9002C33.8608 12.8432 33.8279 12.7912 33.786 12.7472C33.7441 12.7031 33.6941 12.6679 33.6389 12.6435C33.5836 12.6191 33.5242 12.6061 33.464 12.6051C33.4026 12.6041 33.3416 12.6157 33.2847 12.6392C33.2277 12.6626 33.176 12.6976 33.1325 12.7418C33.0891 12.7861 33.0548 12.8388 33.0318 12.8968C33.0087 12.9548 32.9974 13.0169 32.9984 13.0795C32.9989 13.3255 32.9357 13.5674 32.8152 13.7807C32.6946 13.9939 32.521 14.171 32.3118 14.294C32.1025 14.4171 31.8652 14.4817 31.6236 14.4814C31.382 14.4811 31.1448 14.4159 30.9359 14.2924C30.7267 14.1696 30.553 13.9928 30.4323 13.7799C30.3116 13.5669 30.2482 13.3254 30.2484 13.0795C30.2499 12.9731 30.2158 12.8695 30.1516 12.7856C30.0874 12.7017 29.997 12.6426 29.8954 12.6182V12.6089H29.8652C29.8124 12.5994 29.7584 12.5994 29.7057 12.6089H26.3828C25.5885 11.6808 24.5408 11.0148 23.3734 10.6957V10.2671L21.9984 8.39966ZM20.6234 11.649V12.6089H18.9C19.4079 12.1782 19.9932 11.8521 20.6234 11.649ZM23.3734 11.6705C23.9935 11.8708 24.5708 12.1888 25.0747 12.6079H23.3734V11.6705ZM12.3734 12.6061C12.2518 12.6061 12.1352 12.6553 12.0493 12.7428C11.9633 12.8304 11.915 12.9491 11.915 13.0729C11.915 13.1967 11.9633 13.3155 12.0493 13.4031C12.1352 13.4906 12.2518 13.5398 12.3734 13.5398C12.4949 13.5398 12.6115 13.4906 12.6974 13.4031C12.7834 13.3155 12.8317 13.1967 12.8317 13.0729C12.8317 12.9491 12.7834 12.8304 12.6974 12.7428C12.6115 12.6553 12.4949 12.6061 12.3734 12.6061ZM31.6234 12.6061C31.5018 12.6061 31.3852 12.6553 31.2993 12.7428C31.2133 12.8304 31.165 12.9491 31.165 13.0729C31.165 13.1967 31.2133 13.3155 31.2993 13.4031C31.3852 13.4906 31.5018 13.5398 31.6234 13.5398C31.7449 13.5398 31.8615 13.4906 31.9474 13.4031C32.0334 13.3155 32.0817 13.1967 32.0817 13.0729C32.0817 12.9491 32.0334 12.8304 31.9474 12.7428C31.8615 12.6553 31.7449 12.6061 31.6234 12.6061ZM11.8994 15.3437C12.2139 15.4119 12.5374 15.4119 12.8519 15.3437L15.4405 22.8788H9.30985L11.8994 15.3437ZM31.1513 15.3437C31.4647 15.4114 31.7885 15.4114 32.1019 15.3437L34.6905 22.8788H28.5599L31.1513 15.3437Z" fill="white"></path></svg>