<svg xmlns="http://www.w3.org/2000/svg" width="48" height="48" viewBox="0 0 48 48" fill="none"><path d="M37.856 0H10.144C4.54162 0 0 4.54167 0 10.144V37.856C0 43.4584 4.54162 48.0001 10.144 48.0001H37.856C43.4584 48.0001 48 43.4584 48 37.856V10.144C48 4.54167 43.4584 0 37.856 0Z" fill="url(#paint0_linear_24_17)"></path><path d="M31.584 10.774C31.442 10.6855 31.2954 10.6043 31.145 10.531C28.845 9.36995 26.09 10.179 24.725 12.298L25.489 12.7849C25.563 12.6719 25.649 12.567 25.734 12.459C27.537 10.262 30.026 10.251 31.563 11.389C31.648 11.456 31.714 11.539 31.793 11.609C30.8909 11.2442 29.8947 11.1822 28.9543 11.4321C28.0139 11.6821 27.18 12.2305 26.578 12.995C26.486 13.112 26.396 13.2249 26.317 13.3479L33.069 17.755C33.18 17.585 33.27 17.4169 33.361 17.2369C34.525 14.9309 33.715 12.137 31.584 10.773V10.774ZM24.135 13.109L14.681 27.9089L15.525 28.4469L24.962 13.672L24.135 13.109ZM25.805 14.209L16.369 28.9829L18.029 30.0399L27.45 15.292L25.805 14.209ZM28.294 15.829L18.874 30.5769L20.587 31.667L29.991 16.945L28.294 15.829ZM30.834 17.4819L21.431 32.204L23.145 33.294L32.505 18.5819L30.834 17.4819ZM14.171 28.7699C14.155 28.8079 14.136 28.85 14.131 28.892C14.121 28.928 14.105 28.9509 14.106 28.9879C14.106 29.0179 14.118 29.045 14.126 29.074L14.146 37.309C14.146 37.644 14.554 37.904 14.857 37.762L22.308 34.317C22.356 34.307 22.384 34.267 22.428 34.245C22.441 34.245 22.459 34.235 22.471 34.235C22.517 34.206 22.57 34.178 22.608 34.137L15.911 29.877L14.996 33.7019L15.015 29.3059L14.171 28.7699ZM15.063 34.411L17.093 35.703L14.823 37L15.063 34.411Z" fill="white"></path><defs><linearGradient id="paint0_linear_24_17" x1="8.27488" y1="8.74426" x2="115.006" y2="112.368" gradientUnits="userSpaceOnUse"><stop stop-color="#FD6B02"></stop><stop offset="0.394" stop-color="#F6921E"></stop><stop offset="0.507" stop-color="#F05A28"></stop><stop offset="0.813" stop-color="#F05828"></stop><stop offset="1" stop-color="#FF4949"></stop></linearGradient></defs></svg>