<svg xmlns="http://www.w3.org/2000/svg" width="48" height="48" viewBox="0 0 48 48" fill="none"><path d="M37.856 0H10.144C4.54164 0 0 4.54154 0 10.1439V37.856C0 43.4583 4.54164 48 10.144 48H37.856C43.4584 48 48 43.4583 48 37.856V10.1439C48 4.54154 43.4584 0 37.856 0Z" fill="url(#paint0_linear_48_88)"></path><path d="M10.344 14.0039C10.2411 14.0401 10.1523 14.1081 10.0905 14.1979C10.0287 14.2878 9.99701 14.3949 10 14.5039V29.0039H8.50001C8.44849 28.994 8.39553 28.994 8.34401 29.0039C8.24111 29.0401 8.15235 29.1081 8.09053 29.1979C8.0287 29.2878 7.99701 29.3949 8.00001 29.5039C8.00001 30.9129 9.27001 32.0039 10.75 32.0039H31V33.5039C31 33.7659 31.238 34.0039 31.5 34.0039H39.5C39.631 33.999 39.7553 33.9448 39.8481 33.8521C39.9408 33.7594 39.9951 33.635 40 33.5039V20.5039C39.9951 20.3729 39.9408 20.2486 39.8481 20.1559C39.7553 20.0632 39.631 20.0089 39.5 20.0039H35V14.5039C34.9951 14.3729 34.9408 14.2486 34.8481 14.1559C34.7553 14.0632 34.631 14.0089 34.5 14.0039H10.5C10.4485 13.994 10.3955 13.994 10.344 14.0039ZM11 15.0039H34V20.0039H31.5C31.4485 19.994 31.3955 19.994 31.344 20.0039C31.2411 20.0401 31.1523 20.1081 31.0905 20.1979C31.0287 20.2878 30.997 20.3949 31 20.5039V24.0039H27.688L28.844 22.8479C29.176 22.5679 28.866 21.8999 28.438 21.9729C28.3298 21.993 28.2312 22.0477 28.157 22.1289L26.25 24.035C25.752 24.533 26.074 25.0039 26.625 25.0039H33.5C33.632 25 33.7577 24.9463 33.8518 24.8536C33.9458 24.7608 34.0012 24.6359 34.007 24.5039C34.002 24.3717 33.9467 24.2465 33.8525 24.1536C33.7583 24.0607 33.6323 24.0072 33.5 24.0039H32V23.0039H39V31.0039H32V27.0039H34.282L33.157 28.1289C33.1042 28.1736 33.0607 28.2284 33.0292 28.29C32.9978 28.3516 32.9789 28.4187 32.9737 28.4877C32.9685 28.5567 32.9771 28.6261 32.9989 28.6917C33.0208 28.7573 33.0555 28.818 33.101 28.87C33.294 29.072 33.663 29.0599 33.844 28.8479L35.782 26.9419C35.8449 26.9021 35.8982 26.8489 35.938 26.7859C36.028 26.6959 36.135 26.0039 35.5 26.0039H28.5C28.4485 25.994 28.3955 25.994 28.344 26.0039C28.2137 26.0293 28.0978 26.1029 28.0196 26.2101C27.9413 26.3173 27.9064 26.4501 27.922 26.582C27.963 26.844 28.238 27.0449 28.5 27.0039H31V29.0039H11V15.0039ZM32 21.0039H39V22.0039H32V21.0039ZM9.25001 30.0039H31V31.0039H10.75C9.99301 31.0039 9.50101 30.5459 9.25001 30.0039ZM32 32.0039H39V33.0039H32V32.0039Z" fill="white"></path><defs><linearGradient id="paint0_linear_48_88" x1="8.27488" y1="8.74425" x2="115.006" y2="112.368" gradientUnits="userSpaceOnUse"><stop stop-color="#FD6B02"></stop><stop offset="0.394" stop-color="#F6921E"></stop><stop offset="0.507" stop-color="#F05A28"></stop><stop offset="0.813" stop-color="#F05828"></stop><stop offset="1" stop-color="#FF4949"></stop></linearGradient></defs></svg>