<svg xmlns="http://www.w3.org/2000/svg" width="54" height="54" viewBox="0 0 54 54" fill="none"><circle cx="27" cy="27" r="27" fill="#0D6D42"></circle><path fill-rule="evenodd" clip-rule="evenodd" d="M23.586 30.1619C23.4457 29.8765 23.1286 29.7222 22.8195 29.7976C19.4973 30.608 16.1318 32.2605 16.1318 34.7464V39H22.2794V32.8524C22.2794 32.5128 22.5546 32.2376 22.8942 32.2376C23.2337 32.2376 23.5089 32.5128 23.5089 32.8524V39H30.886V32.8524C30.886 32.5128 31.1613 32.2376 31.5008 32.2376C31.8403 32.2376 32.1155 32.5128 32.1155 32.8524V39H38.2631V34.7464C38.2631 32.2605 34.8976 30.608 31.5754 29.7976C31.2663 29.7222 30.9493 29.8765 30.8089 30.1619L28.3105 30.3293L26.0843 30.3291L23.586 30.1619Z" fill="white"></path><path fill-rule="evenodd" clip-rule="evenodd" d="M27.8117 14.9717C28.4679 15.0561 29.0894 15.2713 29.6559 15.5748V17.4833C29.6559 17.8228 29.9312 18.098 30.2707 18.098C30.6102 18.098 30.8855 17.8228 30.8855 17.4833V16.4389C31.6437 17.116 32.2137 17.938 32.5074 18.723C32.5186 19.0113 32.4873 19.3093 32.4308 19.599C32.3592 19.9669 32.251 20.2977 32.1602 20.5374C32.1149 20.6567 32.0744 20.7524 32.0456 20.8174C32.0311 20.8498 32.0197 20.8746 32.0121 20.8908L32.0036 20.9085L32.0015 20.9128C31.9187 21.0801 31.987 21.2827 32.1541 21.3657C32.3214 21.4488 32.5243 21.3805 32.6073 21.2132L32.3091 21.0652C32.6073 21.2132 32.6073 21.2133 32.6073 21.2132L32.6079 21.2121L32.6089 21.21L32.6122 21.2031L32.6237 21.179C32.6335 21.1585 32.647 21.1291 32.6637 21.0916C32.6969 21.0167 32.7423 20.9095 32.7925 20.7771C32.8926 20.5131 33.0136 20.1443 33.0946 19.7284C33.1086 19.6565 33.1216 19.5823 33.1331 19.5063C33.6598 20.1951 33.9592 20.9087 33.9592 21.5254C33.9592 23.4861 30.9316 23.7232 27.1969 23.7232C23.4622 23.7232 20.4346 23.4861 20.4346 21.5254C20.4346 20.9475 20.6976 20.2844 21.1642 19.6364C21.1441 20.1878 21.254 20.7685 21.6253 21.2801C21.7361 21.4328 21.9474 21.4688 22.0971 21.3606C22.2469 21.2524 22.2785 21.0408 22.1676 20.8881C21.7267 20.2805 21.7836 19.4716 22.0058 18.7386C22.114 18.3817 22.2546 18.0662 22.369 17.839C22.426 17.7259 22.4758 17.6358 22.511 17.5747C22.5286 17.5442 22.5425 17.521 22.5516 17.5058L22.5618 17.4893L22.5643 17.4852C22.5672 17.4807 22.5699 17.4761 22.5726 17.4715C22.8367 17.1079 23.1517 16.7574 23.5084 16.4389V17.4833C23.5084 17.8228 23.7836 18.098 24.1231 18.098C24.4626 18.098 24.7379 17.8228 24.7379 17.4833V15.5748C25.3044 15.2713 25.926 15.0561 26.5821 14.9717V16.2538C26.5821 16.5933 26.8574 16.8685 27.1969 16.8685C27.5364 16.8685 27.8117 16.5933 27.8117 16.2538V14.9717Z" fill="white"></path><path fill-rule="evenodd" clip-rule="evenodd" d="M22.8936 23.0164C22.8936 25.393 24.8202 27.3197 27.1969 27.3197C29.5735 27.3197 31.5002 25.393 31.5002 23.0164H32.7297C32.7297 26.0721 30.2526 28.5492 27.1969 28.5492C24.1412 28.5492 21.6641 26.0721 21.6641 23.0164H22.8936Z" fill="white"></path></svg>