<svg xmlns="http://www.w3.org/2000/svg" width="30" height="26" viewBox="0 0 30 26" fill="none"><path d="M22.7344 6.32812H7.26562C7.1413 6.32812 7.02208 6.37751 6.93417 6.46542C6.84626 6.55333 6.79688 6.67255 6.79688 6.79688C6.79688 6.9212 6.84626 7.04042 6.93417 7.12833C7.02208 7.21624 7.1413 7.26562 7.26562 7.26562H22.7344C22.8587 7.26562 22.9779 7.21624 23.0658 7.12833C23.1537 7.04042 23.2031 6.9212 23.2031 6.79688C23.2031 6.67255 23.1537 6.55333 23.0658 6.46542C22.9779 6.37751 22.8587 6.32812 22.7344 6.32812ZM23.2031 9.14065C23.2031 9.01633 23.1537 8.89711 23.0658 8.8092C22.9779 8.7213 22.8587 8.67191 22.7344 8.6719H7.26562C7.1413 8.6719 7.02208 8.72129 6.93417 8.80919C6.84626 8.8971 6.79688 9.01633 6.79688 9.14065C6.79688 9.26497 6.84626 9.3842 6.93417 9.47211C7.02208 9.56001 7.1413 9.6094 7.26562 9.6094H22.7344C22.8587 9.60939 22.9779 9.56001 23.0658 9.4721C23.1537 9.38419 23.2031 9.26497 23.2031 9.14065ZM14.2969 11.4844C14.2969 11.3601 14.2475 11.2409 14.1596 11.153C14.0717 11.0651 13.9524 11.0157 13.8281 11.0157H7.26562C7.1413 11.0157 7.02208 11.0651 6.93417 11.153C6.84626 11.2409 6.79688 11.3601 6.79688 11.4844C6.79688 11.6087 6.84626 11.728 6.93417 11.8159C7.02208 11.9038 7.1413 11.9532 7.26562 11.9532H13.8281C13.9524 11.9532 14.0717 11.9038 14.1596 11.8159C14.2475 11.728 14.2969 11.6087 14.2969 11.4844ZM6.79688 15.9376C6.79688 16.3084 6.90685 16.6709 7.11288 16.9793C7.31891 17.2876 7.61174 17.5279 7.95435 17.6698C8.29697 17.8118 8.67397 17.8489 9.03768 17.7765C9.40139 17.7042 9.73548 17.5256 9.99771 17.2634C10.2599 17.0012 10.4385 16.6671 10.5108 16.3034C10.5832 15.9396 10.5461 15.5626 10.4041 15.22C10.2622 14.8774 10.0219 14.5846 9.71357 14.3786C9.40523 14.1725 9.04271 14.0626 8.67188 14.0626C8.17476 14.0631 7.69818 14.2609 7.34667 14.6124C6.99516 14.9639 6.79744 15.4405 6.79688 15.9376ZM9.60938 15.9376C9.60938 16.123 9.55439 16.3043 9.45138 16.4584C9.34836 16.6126 9.20195 16.7328 9.03064 16.8037C8.85934 16.8747 8.67084 16.8932 8.48898 16.8571C8.30712 16.8209 8.14007 16.7316 8.00896 16.6005C7.87785 16.4694 7.78856 16.3023 7.75239 16.1205C7.71622 15.9386 7.73478 15.7501 7.80574 15.5788C7.8767 15.4075 7.99686 15.2611 8.15103 15.1581C8.3052 15.0551 8.48645 15.0001 8.67188 15.0001C8.92052 15.0001 9.15897 15.0989 9.33479 15.2747C9.5106 15.4505 9.60938 15.6889 9.60938 15.9376Z" fill="white"></path><path d="M28.5938 0H1.40625C1.03341 0.00040883 0.675963 0.1487 0.412329 0.412337C0.148694 0.675974 0.000405723 1.03342 0 1.40626L0 20.6252C0.000405723 20.998 0.148694 21.3555 0.412329 21.6191C0.675963 21.8828 1.03341 22.031 1.40625 22.0315H15.6089L16.2781 21.094H1.40625C1.28198 21.0938 1.16285 21.0443 1.07497 20.9565C0.9871 20.8686 0.937662 20.7495 0.9375 20.6252V1.40626C0.937662 1.28199 0.9871 1.16286 1.07497 1.07498C1.16285 0.987112 1.28198 0.937674 1.40625 0.937512H28.5938C28.718 0.937674 28.8372 0.987112 28.925 1.07498C29.0129 1.16286 29.0623 1.28199 29.0625 1.40626V20.6252C29.0623 20.7495 29.0129 20.8686 28.925 20.9565C28.8372 21.0443 28.718 21.0938 28.5938 21.0939H25.4408L26.1101 22.0314H28.5938C28.9666 22.031 29.324 21.8827 29.5877 21.6191C29.8513 21.3555 29.9996 20.998 30 20.6252V1.40626C29.9996 1.03342 29.8513 0.675974 29.5877 0.412337C29.324 0.1487 28.9666 0.00040883 28.5938 0Z" fill="white"></path><path d="M19.4317 22.8139L18.613 23.9462L18.5201 23.4877C18.4999 23.3293 18.4198 23.1847 18.2962 23.0835C18.2283 23.028 18.1498 22.987 18.0654 22.963C17.9811 22.9389 17.8927 22.9323 17.8057 22.9437L17.2193 23.0027L18.1121 21.7521C17.7956 21.6883 17.4969 21.5561 17.2368 21.3649L16.0578 23.0165C15.9853 23.115 15.9438 23.2329 15.9386 23.3551C15.9333 23.4773 15.9645 23.5982 16.0282 23.7026C16.0929 23.8081 16.1868 23.8925 16.2986 23.9456C16.4103 23.9986 16.5351 24.0181 16.6577 24.0016L17.6473 23.9018L17.8218 24.7621C17.8362 24.8831 17.886 24.9972 17.9648 25.0901C18.0436 25.183 18.1481 25.2507 18.2651 25.2847C18.3261 25.3032 18.3895 25.3126 18.4532 25.3126C18.5541 25.3127 18.6535 25.289 18.7435 25.2435C18.8334 25.198 18.9115 25.132 18.9712 25.0508L20.6579 22.7177C20.4119 22.8175 20.1496 22.8707 19.8842 22.8746C19.7314 22.8741 19.5792 22.8537 19.4317 22.8139ZM24.4822 21.3649C24.222 21.556 23.9233 21.6882 23.6068 21.7521L24.4996 23.0027L23.9132 22.9437C23.8262 22.9323 23.7379 22.9389 23.6535 22.9629C23.5692 22.987 23.4906 23.028 23.4227 23.0835C23.2992 23.1847 23.2191 23.3293 23.1989 23.4877L23.1059 23.946L22.2857 22.8115C21.8776 22.9126 21.4478 22.8792 21.0602 22.7165L22.75 25.054C22.8097 25.1345 22.8874 25.1998 22.9769 25.2447C23.0665 25.2896 23.1653 25.3129 23.2655 25.3126C23.3293 25.3126 23.3928 25.3032 23.4539 25.2847C23.5709 25.2507 23.6753 25.1831 23.7542 25.0901C23.833 24.9972 23.8827 24.8832 23.8972 24.7622L24.0716 23.9018L25.0613 24.0016C25.1839 24.0182 25.3087 23.9988 25.4205 23.9457C25.5322 23.8926 25.6261 23.8082 25.6907 23.7027C25.7542 23.5991 25.7856 23.4791 25.7809 23.3577C25.7762 23.2364 25.7357 23.1191 25.6644 23.0208L24.4822 21.3649ZM22.0911 21.8961C22.3986 21.7622 22.6415 21.5131 22.7677 21.2023C22.8107 21.1127 22.8637 21.0282 22.9256 20.9503C23.0207 20.9137 23.1197 20.8882 23.2206 20.8743C23.3876 20.8786 23.5532 20.8423 23.7031 20.7685C23.8529 20.6947 23.9827 20.5857 24.0811 20.4507C24.1796 20.3157 24.2439 20.1589 24.2684 19.9937C24.2929 19.8284 24.277 19.6597 24.222 19.5019C24.2038 19.4004 24.1975 19.2971 24.2032 19.1941C24.2571 19.1131 24.3197 19.0384 24.39 18.9712C24.649 18.7534 24.812 18.4426 24.8439 18.1058C24.812 17.7689 24.649 17.4581 24.39 17.2403C24.3202 17.1735 24.2578 17.0994 24.2039 17.0192C24.1975 16.9157 24.2036 16.8117 24.222 16.7096C24.3024 16.3882 24.2524 16.048 24.0828 15.7634C23.863 15.513 23.553 15.3597 23.2206 15.3372C23.1202 15.3232 23.0217 15.2981 22.927 15.2621C22.8644 15.184 22.8109 15.0991 22.7674 15.009C22.6414 14.6981 22.3985 14.4491 22.0909 14.3154C21.7706 14.2435 21.435 14.3009 21.1568 14.475C21.0629 14.5257 20.963 14.5644 20.8595 14.5901C20.7559 14.5644 20.656 14.5257 20.5622 14.475C20.2838 14.301 19.9482 14.2437 19.6279 14.3154C19.3203 14.4494 19.0775 14.6984 18.9513 15.0092C18.9082 15.0988 18.8552 15.1833 18.7934 15.2612C18.6983 15.2978 18.5993 15.3233 18.4983 15.3372C18.1659 15.3596 17.856 15.5128 17.6361 15.7631C17.4666 16.0479 17.4166 16.3881 17.497 16.7096C17.5151 16.8111 17.5214 16.9144 17.5157 17.0174C17.4619 17.0984 17.3993 17.1731 17.329 17.2404C17.07 17.4581 16.907 17.7689 16.8751 18.1058C16.907 18.4426 17.07 18.7534 17.329 18.9712C17.3987 19.038 17.4611 19.1121 17.5151 19.1923C17.5214 19.2959 17.5153 19.3998 17.497 19.502C17.442 19.6597 17.4261 19.8284 17.4507 19.9936C17.4752 20.1589 17.5395 20.3157 17.6379 20.4506C17.7364 20.5856 17.8661 20.6946 18.016 20.7684C18.1658 20.8422 18.3313 20.8786 18.4983 20.8743C18.5987 20.8883 18.6972 20.9135 18.792 20.9494C18.8546 21.0275 18.9081 21.1124 18.9515 21.2026C19.0776 21.5134 19.3205 21.7624 19.6281 21.8961C19.7115 21.9231 19.7986 21.9368 19.8863 21.9366C20.1236 21.9207 20.3544 21.8524 20.5622 21.7365C20.656 21.6858 20.7559 21.6471 20.8595 21.6214C20.963 21.6471 21.0629 21.6858 21.1568 21.7365C21.4351 21.9105 21.7708 21.9679 22.0911 21.8961ZM20.1621 20.8888C20.0832 20.9284 20.0017 20.9629 19.9183 20.992C19.865 20.9163 19.8172 20.8369 19.775 20.7544C19.6882 20.5285 19.5378 20.3326 19.342 20.1904C19.1461 20.0482 18.9133 19.9658 18.6716 19.9531C18.5811 19.9383 18.4917 19.9174 18.404 19.8904C18.4055 19.7999 18.4131 19.7097 18.4269 19.6203C18.4741 19.3826 18.4672 19.1374 18.4068 18.9027C18.3195 18.6829 18.1835 18.4857 18.009 18.3259C17.9403 18.2578 17.8773 18.1841 17.8206 18.1057C17.8773 18.0273 17.9403 17.9537 18.009 17.8856C18.1835 17.7258 18.3195 17.5286 18.4068 17.3088C18.4672 17.074 18.4741 16.8287 18.4269 16.591C18.4132 16.5016 18.4056 16.4113 18.404 16.3209C18.4917 16.2941 18.5811 16.2732 18.6716 16.2584C18.9133 16.2459 19.1463 16.1636 19.3421 16.0214C19.538 15.8791 19.6884 15.6831 19.775 15.4571C19.8171 15.3746 19.865 15.2952 19.9183 15.2195C20.0017 15.2486 20.0832 15.2831 20.1621 15.3227C20.3701 15.4565 20.6122 15.5276 20.8595 15.5276C21.1068 15.5276 21.3489 15.4565 21.5569 15.3227C21.6358 15.2831 21.7172 15.2486 21.8006 15.2195C21.8539 15.2952 21.9018 15.3746 21.9439 15.4571C22.0307 15.683 22.1812 15.8789 22.377 16.0211C22.5728 16.1633 22.8057 16.2457 23.0473 16.2584C23.1379 16.2731 23.2273 16.2941 23.3149 16.3211C23.3135 16.4116 23.3058 16.5018 23.292 16.5912C23.2449 16.8289 23.2518 17.0741 23.3122 17.3088C23.3995 17.5286 23.5355 17.7258 23.71 17.8856C23.7786 17.9537 23.8416 18.0273 23.8983 18.1057C23.8416 18.1841 23.7786 18.2578 23.71 18.3259C23.5355 18.4857 23.3995 18.6829 23.3122 18.9027C23.2518 19.1375 23.2449 19.3828 23.292 19.6205C23.3057 19.7099 23.3134 19.8002 23.3149 19.8906C23.2272 19.9174 23.1378 19.9383 23.0473 19.9531C22.8056 19.9655 22.5727 20.0479 22.3768 20.1901C22.181 20.3324 22.0306 20.5284 21.9439 20.7544C21.9018 20.8369 21.8539 20.9163 21.8006 20.992C21.7172 20.9629 21.6358 20.9284 21.5569 20.8888C21.3489 20.755 21.1068 20.6839 20.8595 20.6839C20.6122 20.6839 20.3701 20.755 20.1621 20.8888Z" fill="white"></path><path d="M22.5 18.1057C22.5 17.7812 22.4038 17.464 22.2235 17.1942C22.0432 16.9244 21.787 16.7141 21.4872 16.59C21.1874 16.4658 20.8575 16.4333 20.5393 16.4966C20.221 16.5599 19.9287 16.7162 19.6993 16.9456C19.4698 17.1751 19.3136 17.4674 19.2503 17.7856C19.187 18.1039 19.2195 18.4338 19.3436 18.7336C19.4678 19.0333 19.6781 19.2896 19.9479 19.4698C20.2177 19.6501 20.5349 19.7463 20.8594 19.7463C21.2943 19.7458 21.7113 19.5728 22.0189 19.2652C22.3265 18.9577 22.4995 18.5407 22.5 18.1057ZM20.8594 18.8088C20.7203 18.8088 20.5844 18.7676 20.4687 18.6903C20.3531 18.6131 20.263 18.5033 20.2098 18.3748C20.1566 18.2463 20.1426 18.1049 20.1698 17.9685C20.1969 17.8321 20.2639 17.7068 20.3622 17.6085C20.4605 17.5102 20.5858 17.4432 20.7222 17.4161C20.8586 17.389 21 17.4029 21.1284 17.4561C21.2569 17.5093 21.3667 17.5994 21.444 17.7151C21.5213 17.8307 21.5625 17.9666 21.5625 18.1057C21.5623 18.2921 21.4882 18.4708 21.3563 18.6027C21.2245 18.7345 21.0458 18.8086 20.8594 18.8088Z" fill="white"></path><path d="M27.1875 20.1564C27.4361 20.1562 27.6744 20.0573 27.8501 19.8815C28.0259 19.7058 28.1248 19.4675 28.125 19.2189V2.8125C28.1248 2.56394 28.0259 2.32562 27.8501 2.14986C27.6744 1.9741 27.4361 1.87525 27.1875 1.875H2.8125C2.56394 1.87525 2.32562 1.9741 2.14986 2.14986C1.9741 2.32562 1.87525 2.56394 1.875 2.8125V19.2189C1.87525 19.4675 1.9741 19.7058 2.14986 19.8815C2.32562 20.0573 2.56394 20.1561 2.8125 20.1564H16.5486C16.5237 19.9423 16.5245 19.726 16.5511 19.5121C16.4658 19.4192 16.3862 19.3213 16.3127 19.2189H2.8125V6.46365L6.42517 2.85095C6.43632 2.83871 6.44681 2.82587 6.45658 2.8125H23.5434C23.5532 2.82587 23.5637 2.83871 23.5748 2.85095L27.1877 6.4638L27.1882 19.2189H25.4059C25.3324 19.3213 25.2529 19.4192 25.1676 19.5121C25.1942 19.726 25.1951 19.9423 25.1701 20.1564L27.1875 20.1564ZM2.8125 5.13796V2.81249H5.13794L2.8125 5.13796ZM24.8621 2.81249H27.1875L27.1876 5.13805L24.8621 2.81249Z" fill="white"></path></svg>