<svg xmlns="http://www.w3.org/2000/svg" width="44" height="44" viewBox="0 0 44 44" fill="none"><path d="M22 44C34.1503 44 44 34.1503 44 22C44 9.84978 34.1503 0 22 0C9.84974 0 0 9.84978 0 22C0 34.1503 9.84974 44 22 44Z" fill="#02B969"></path><path d="M21.9212 43.9962C21.9474 43.9974 21.9737 43.9987 22 43.9998C22.519 43.9999 23.0379 43.9815 23.5556 43.9448C24.2877 43.8927 25.0168 43.804 25.74 43.679C26.4626 43.5544 27.1785 43.3938 27.885 43.1978C28.5919 43.0017 29.2885 42.7704 29.9722 42.5048C30.656 42.239 31.326 41.9391 31.9798 41.6064C32.6332 41.2736 33.2695 40.9083 33.8864 40.5119C34.5035 40.116 35.1004 39.6896 35.6748 39.2341C36.2496 38.778 36.8012 38.2934 37.3276 37.7821C37.8534 37.2708 38.3533 36.7336 38.8254 36.1724C39.2986 35.6114 39.7435 35.0271 40.1582 34.4216C40.5724 33.8163 40.9561 33.1906 41.3078 32.547C41.6589 31.9033 41.9777 31.2425 42.2629 30.567C42.5487 29.8913 42.8005 29.2017 43.0173 28.5009C43.2339 27.8002 43.4153 27.0893 43.5609 26.3705C43.7071 25.6517 43.8172 24.926 43.8909 24.1962C43.9049 23.977 43.9156 23.7576 43.923 23.538L34.9424 14.5575C34.6878 14.3016 34.3851 14.0985 34.0518 13.9599C33.7184 13.8213 33.361 13.7499 33 13.7499H27.8456L25.8436 11.7479L25.8335 11.7378C25.7367 11.6429 25.6325 11.5558 25.5218 11.4775C25.5035 11.4655 25.4898 11.449 25.4714 11.4371H25.4696C25.3999 11.3885 25.3229 11.3546 25.2477 11.3134C25.1772 11.2749 25.1103 11.2309 25.0369 11.1988C24.729 11.0671 24.3974 10.9994 24.0625 10.9999H19.9375C18.546 10.9999 17.4167 12.1475 17.4167 13.5482V13.7499H11C9.48475 13.7499 8.25 14.9846 8.25 16.4999V29.7915C8.25 30.1738 8.42692 30.5019 8.67075 30.7458L21.9212 43.9962Z" fill="#017F47"></path><path d="M19.9375 11C18.546 11 17.4167 12.1477 17.4167 13.5483V13.75H11C9.48475 13.75 8.25 14.9847 8.25 16.5V29.7916C8.25 30.1739 8.42692 30.5021 8.67075 30.7459C8.91458 30.9897 9.24275 31.1666 9.625 31.1666H34.375C34.7572 31.1666 35.0854 30.9897 35.3293 30.7459C35.5731 30.5021 35.75 30.1739 35.75 29.7916V16.5C35.75 14.9847 34.5153 13.75 33 13.75H26.5833V13.5483C26.5833 12.1467 25.454 11 24.0625 11H19.9375ZM19.9375 11.9167H24.0625C24.9563 11.9167 25.6667 12.6335 25.6667 13.5483V13.75H18.3333V13.5483C18.3333 12.6335 19.0437 11.9167 19.9375 11.9167ZM11 14.6667H12.8333V20.1667C12.7118 20.1667 12.5952 20.2149 12.5092 20.3009C12.4233 20.3869 12.375 20.5034 12.375 20.625V21.0833H11C9.97608 21.0833 9.16667 20.2739 9.16667 19.25V16.5C9.16667 15.4761 9.97608 14.6667 11 14.6667ZM13.75 14.6667H15.5833V20.1667H13.75V14.6667ZM16.5 14.6667H27.5V20.1667C27.3784 20.1667 27.2619 20.2149 27.1759 20.3009C27.09 20.3869 27.0417 20.5034 27.0417 20.625V21.0833H16.9583V20.625C16.9583 20.5034 16.91 20.3869 16.8241 20.3009C16.7381 20.2149 16.6216 20.1667 16.5 20.1667V14.6667ZM28.4167 14.6667H30.25V20.1667H28.4167V14.6667ZM31.1667 14.6667H33C34.0239 14.6667 34.8333 15.4761 34.8333 16.5V19.25C34.8333 20.2739 34.0239 21.0833 33 21.0833H31.625V20.625C31.625 20.5034 31.5767 20.3869 31.4908 20.3009C31.4048 20.2149 31.2882 20.1667 31.1667 20.1667V14.6667ZM13.2917 21.0833H16.0417V22.9167H15.125V22H14.2083V22.9167H13.2917V21.0833ZM27.9583 21.0833H30.7083V22.9167H29.7917V22H28.875V22.9167H27.9583V21.0833ZM9.16667 21.2841C9.65433 21.7241 10.2942 22 11 22H12.375V23.375C12.375 23.4965 12.4233 23.6131 12.5092 23.6991C12.5952 23.785 12.7118 23.8333 12.8333 23.8333V30.25H9.625C9.5082 30.2369 9.39977 30.183 9.31883 30.0978C9.23362 30.0169 9.17973 29.9084 9.16667 29.7916V21.2841ZM34.8333 21.2841V29.7916C34.8202 29.9084 34.7663 30.0168 34.6812 30.0978C34.6002 30.183 34.4918 30.2369 34.375 30.25H31.1667V23.8333C31.2882 23.8333 31.4048 23.785 31.4908 23.6991C31.5767 23.6131 31.625 23.4965 31.625 23.375V22H33C33.7058 22 34.3457 21.7241 34.8333 21.2841ZM16.9583 22H27.0417V23.375C27.0417 23.4965 27.09 23.6131 27.1759 23.6991C27.2619 23.785 27.3784 23.8333 27.5 23.8333V30.25H16.5V23.8333C16.6216 23.8333 16.7381 23.785 16.8241 23.6991C16.91 23.6131 16.9583 23.4965 16.9583 23.375V22ZM13.75 23.8333H15.5833V30.25H13.75V23.8333ZM28.4167 23.8333H30.25V30.25H28.4167V23.8333Z" fill="white"></path></svg>