<svg xmlns="http://www.w3.org/2000/svg" width="54" height="54" viewBox="0 0 54 54" fill="none"><circle cx="27" cy="27" r="27" fill="#0D6D42"></circle><path d="M29.5359 30.2143C29.5359 30.3943 29.4644 30.5669 29.3371 30.6941C29.2098 30.8214 29.0373 30.8929 28.8573 30.8929H26.143C25.963 30.8929 25.7904 30.8214 25.6632 30.6941C25.5359 30.5669 25.4644 30.3943 25.4644 30.2143V28.8572H18.6787V37H36.3216V28.8572H29.5359V30.2143Z" fill="white"></path><path d="M28.1784 26.8214H26.8213V29.5357H28.1784V26.8214Z" fill="white"></path><path d="M32.25 20.7143V19.3571C32.25 18.9972 32.107 18.652 31.8525 18.3975C31.598 18.143 31.2528 18 30.8929 18H24.1071C23.7472 18 23.402 18.143 23.1475 18.3975C22.893 18.652 22.75 18.9972 22.75 19.3571V20.7143H18V27.5H25.4643V26.1429C25.4643 25.9629 25.5358 25.7903 25.663 25.663C25.7903 25.5358 25.9629 25.4643 26.1429 25.4643H28.8571C29.0371 25.4643 29.2097 25.5358 29.337 25.663C29.4642 25.7903 29.5357 25.9629 29.5357 26.1429V27.5H37V20.7143H32.25ZM24.1071 19.3571H30.8929V20.7143H24.1071V19.3571Z" fill="white"></path></svg>