<svg xmlns="http://www.w3.org/2000/svg" width="44" height="45" viewBox="0 0 44 45" fill="none"><path d="M0 22C0 9.84972 9.84973 0 22 0V0C34.1503 0 44 9.84974 44 22V22.8184C44 34.9687 34.1503 44.8184 22 44.8184V44.8184C9.84973 44.8184 0 34.9687 0 22.8184V22Z" fill="#02B969"></path><path d="M43.9998 24.0425L31.9452 11.7674V11.7767C31.5556 11.3332 31.111 10.9364 30.6023 10.6236C30.5332 10.5808 30.4541 10.5576 30.3733 10.5562C30.2925 10.5549 30.2127 10.5754 30.1423 10.6158C30.0718 10.6562 30.0132 10.715 29.9724 10.7861C29.9316 10.8572 29.9101 10.9381 29.9102 11.0204V14.4285L29.2456 15.012L25.0152 10.7029C25.0085 10.6956 25.0008 10.6893 24.9923 10.6843V10.6796C24.9688 10.6543 24.9408 10.6337 24.9098 10.6189C24.7677 10.5395 24.5889 10.5395 24.4468 10.6282C22.6593 11.7347 21.596 13.6628 21.596 15.7917C21.596 17.5844 22.3752 19.1951 23.6035 20.3062L25.0931 21.8235V26.282L21.1377 22.2577C21.0731 22.1932 20.9915 22.1491 20.9028 22.1309C20.8142 22.1127 20.7222 22.121 20.6381 22.155L19.2768 22.7246C19.0503 22.6048 18.8142 22.5048 18.571 22.4258L17.9981 21.0439C17.9631 20.9594 17.9044 20.8874 17.8294 20.8368C17.7544 20.7861 17.6664 20.7591 17.5764 20.7591L16.4123 20.7544H16.4077C16.2243 20.7544 16.0593 20.8665 15.986 21.0392L15.4085 22.4258C15.1702 22.5051 14.9364 22.6078 14.7073 22.7246L13.3368 22.155C13.1673 22.085 12.9748 22.127 12.8418 22.2577L12.0123 23.1027C11.8839 23.2381 11.8427 23.4388 11.9114 23.6116L12.466 24.9982C12.3514 25.2316 12.2552 25.4744 12.1773 25.7218L10.8206 26.3007C10.651 26.3754 10.541 26.5435 10.541 26.7302V27.9207C10.541 28.0561 10.6006 28.1775 10.6968 28.2662L12.3468 29.9515L11.9114 31.0486C11.8427 31.2214 11.8839 31.4221 12.0123 31.5575L24.8502 44.6342C24.8502 44.6342 32.1368 43.7643 37.7765 38.0216C43.4161 32.2789 43.9998 24.0425 43.9998 24.0425Z" fill="#017F47"></path><path d="M23.1594 26.483L21.8028 25.9041C21.7248 25.652 21.6286 25.4139 21.5094 25.1805L22.0686 23.7939C22.1373 23.6212 22.0961 23.4205 21.9678 23.2851L21.1382 22.4401C21.0736 22.3755 20.992 22.3315 20.9033 22.3133C20.8147 22.295 20.7227 22.3034 20.6386 22.3373L19.2773 22.9069C19.0508 22.7871 18.8147 22.6871 18.5715 22.6081L17.9986 21.2262C17.9636 21.1418 17.9049 21.0697 17.8299 21.019C17.7549 20.9684 17.6669 20.9414 17.5769 20.9414L16.4128 20.9368H16.4082C16.2248 20.9368 16.0598 21.0488 15.9865 21.2216L15.409 22.6081C15.1707 22.6875 14.9369 22.7902 14.7078 22.9069L13.3373 22.3373C13.1678 22.2673 12.9753 22.3093 12.8423 22.4401L12.0128 23.2851C11.8844 23.4205 11.8432 23.6212 11.9119 23.7939L12.4665 25.1805C12.3519 25.4139 12.2557 25.6567 12.1778 25.9041L10.8211 26.483C10.6515 26.5577 10.5415 26.7258 10.5415 26.9126V28.103C10.5415 28.2898 10.6515 28.4625 10.8211 28.5326L12.1778 29.1161C12.2557 29.3682 12.3519 29.611 12.4665 29.8398L11.9119 31.231C11.8432 31.4037 11.8844 31.6045 12.0128 31.7399L12.8423 32.5756C12.9753 32.7063 13.1678 32.7483 13.3373 32.6783L14.6986 32.1134C14.9278 32.2347 15.1661 32.3328 15.409 32.4168L15.9819 33.7941C16.0507 33.9668 16.2203 34.0788 16.4036 34.0788H17.5723C17.7557 34.0788 17.9207 33.9668 17.994 33.7941L18.5623 32.4168C18.8098 32.3328 19.0528 32.2301 19.2819 32.1134L20.6386 32.6783C20.8128 32.7483 21.0053 32.7063 21.1382 32.5756L21.9678 31.7399C22.0961 31.6045 22.1373 31.4037 22.0686 31.231L21.514 29.8398C21.624 29.611 21.7248 29.3682 21.8028 29.1161L23.1594 28.5326C23.329 28.4625 23.439 28.2898 23.439 28.103V26.9126C23.439 26.7258 23.329 26.5577 23.1594 26.483ZM16.9903 29.9098C15.6886 29.9098 14.6344 28.836 14.6344 27.5101C14.6344 26.1889 15.6886 25.1105 16.9903 25.1105C18.2873 25.1105 19.3461 26.1889 19.3461 27.5101C19.3461 28.836 18.2873 29.9098 16.9903 29.9098Z" fill="white"></path><path d="M30.6034 10.806C30.5343 10.7632 30.4553 10.74 30.3745 10.7386C30.2936 10.7372 30.2139 10.7578 30.1434 10.7982C30.073 10.8386 30.0144 10.8974 29.9736 10.9685C29.9328 11.0396 29.9113 11.1204 29.9113 11.2028V14.6108L27.528 16.7024L25.1447 14.6108V11.2121C25.1447 11.0394 25.053 10.8853 24.9109 10.8013C24.7688 10.7219 24.5901 10.7219 24.448 10.8106C22.6605 11.9171 21.5972 13.8452 21.5972 15.9741C21.5972 18.4185 23.0363 20.5236 25.0933 21.4718V31.6017C25.0933 32.9687 26.1851 34.0807 27.5271 34.0807C28.8691 34.0807 29.9608 32.9687 29.9608 31.6017V21.4737C32.0206 20.5264 33.4588 18.4204 33.4588 15.9741C33.4588 13.8732 32.3634 11.8937 30.6034 10.806Z" fill="white"></path></svg>