<svg xmlns="http://www.w3.org/2000/svg" width="30" height="31" viewBox="0 0 30 31" fill="none"><path d="M29.1651 26.2418L26.6729 22.5646C27.4404 21.4936 27.8929 20.1819 27.8929 18.7663C27.8929 17.3713 27.4533 16.0771 26.7059 15.0147V0.950076C26.7059 0.622079 26.4402 0.356201 26.1125 0.356201H5.93465C5.60688 0.356201 5.34119 0.622079 5.34119 0.950076V4.51333H0.593465C0.265694 4.51333 0 4.7792 0 5.1072V30.0499C0 30.3779 0.265694 30.6438 0.593465 30.6438H20.7713C21.099 30.6438 21.3647 30.3779 21.3647 30.0499V25.299C21.8209 25.299 22.2662 25.2517 22.6962 25.1622L25.2356 28.9086C25.5915 29.4338 26.1305 29.7888 26.7533 29.9083C26.904 29.9372 27.0551 29.9515 27.2053 29.9515C27.6755 29.9515 28.135 29.8113 28.5329 29.5414C29.0577 29.1852 29.4124 28.6459 29.5318 28.0227C29.6512 27.3994 29.521 26.7671 29.1651 26.2418ZM6.52812 1.54395H25.519V13.7308C24.3895 12.796 22.9415 12.2337 21.3647 12.2337V5.1072C21.3647 4.7792 21.099 4.51333 20.7713 4.51333H6.52812V1.54395ZM20.1778 29.4561H1.18693V5.70108H20.1778V12.3423C17.143 12.9024 14.8366 15.5698 14.8366 18.7663C14.8366 21.9629 17.143 24.6302 20.1778 25.1904V29.4561ZM16.0236 18.7663C16.0236 16.0606 18.0432 13.8182 20.6532 13.469C20.6913 13.4767 20.7309 13.4808 20.7713 13.4808C20.8534 13.4808 20.9315 13.4642 21.0026 13.434C21.1223 13.4259 21.243 13.4215 21.3647 13.4215C24.3099 13.4215 26.7059 15.8192 26.7059 18.7663C26.7059 21.7135 24.3099 24.1112 21.3647 24.1112C18.4196 24.1112 16.0236 21.7135 16.0236 18.7663ZM27.8666 28.5583C27.6043 28.7364 27.2882 28.8016 26.9768 28.7419C26.6654 28.6821 26.396 28.5046 26.218 28.242L24.448 25.6307C24.4238 25.5814 24.3928 25.5356 24.3558 25.4946L23.8809 24.794C24.622 24.483 25.2942 24.0393 25.8672 23.4923L28.1828 26.9085C28.5501 27.4506 28.4083 28.1906 27.8666 28.5583Z" fill="white"></path><path d="M3.56075 19.3602H12.4627C12.7905 19.3602 13.0562 19.0942 13.0562 18.7663C13.0562 18.4384 12.7905 18.1724 12.4627 18.1724H3.56075C3.23298 18.1724 2.96729 18.4384 2.96729 18.7663C2.96729 19.0942 3.23298 19.3602 3.56075 19.3602ZM3.56075 8.67042H16.0235C16.3512 8.67042 16.617 8.40454 16.617 8.07654C16.617 7.74854 16.3512 7.48267 16.0235 7.48267H3.56075C3.23298 7.48267 2.96729 7.74854 2.96729 8.07654C2.96729 8.40454 3.23298 8.67042 3.56075 8.67042ZM16.0235 27.0805H9.79213H3.56075C3.56075 26.7526 3.56075 26.7526 3.56075 27.0805C3.56075 27.4085 3.56075 27.4085 3.56075 27.0805H16.0235C16.0235 27.4085 16.0235 27.3902 16.0235 27.0805C16.0235 26.7526 16.0235 26.7526 16.0235 27.0805ZM3.56075 12.2337H13.0562C13.384 12.2337 13.6497 11.9678 13.6497 11.6398C13.6497 11.3118 13.384 11.0459 13.0562 11.0459H3.56075C3.23298 11.0459 2.96729 11.3118 2.96729 11.6398C2.96729 11.9678 3.23298 12.2337 3.56075 12.2337ZM3.56075 15.7969H9.4954C9.82317 15.7969 10.0889 15.531 10.0889 15.203C10.0889 14.875 9.82317 14.6092 9.4954 14.6092H3.56075C3.23298 14.6092 2.96729 14.875 2.96729 15.203C2.96729 15.531 3.23298 15.7969 3.56075 15.7969ZM3.56075 22.9234H13.0562C13.384 22.9234 13.6497 22.6575 13.6497 22.3295C13.6497 22.0016 13.384 21.7357 13.0562 21.7357H3.56075C3.23298 21.7357 2.96729 22.0016 2.96729 22.3295C2.96729 22.6575 3.23298 22.9234 3.56075 22.9234ZM23.9759 16.5096L19.703 19.7165L18.2787 17.8161C18.0821 17.5537 17.7101 17.5006 17.4478 17.6973C17.1856 17.8941 17.1325 18.2664 17.3291 18.5287L19.1095 20.9042C19.2262 21.0598 19.4043 21.1419 19.5848 21.1419C19.7087 21.1419 19.8336 21.1031 19.9404 21.023L24.6881 17.4598C24.9503 17.263 25.0034 16.8907 24.8068 16.6283C24.6102 16.366 24.2381 16.3128 23.9759 16.5096Z" fill="white"></path></svg>