<svg xmlns="http://www.w3.org/2000/svg" width="48" height="48" viewBox="0 0 48 48" fill="none"><path d="M37.856 0H10.144C4.54162 0 0 4.54167 0 10.144V37.8561C0 43.4585 4.54162 48 10.144 48H37.856C43.4584 48 48 43.4585 48 37.8561V10.144C48 4.54167 43.4584 0 37.856 0Z" fill="url(#paint0_linear_48_79)"></path><path d="M14.435 11.6581H28.435V16.1581C28.435 16.2907 28.4877 16.4178 28.5814 16.5116C28.6752 16.6054 28.8024 16.6581 28.935 16.6581H33.435V21.2781C33.215 21.4121 33.001 21.5691 32.808 21.7621L31.982 22.5861C31.962 22.6061 31.952 22.634 31.933 22.656H15.435V23.6581H30.951L28.802 25.6581H15.435V26.6581H27.726L25.578 28.6581H15.434V29.6581H24.503L22.356 31.656H15.434V32.6581H21.28L19.348 34.4551C19.253 34.5437 19.1963 34.6657 19.1898 34.7954C19.1832 34.9251 19.2274 35.0523 19.313 35.15L19.758 35.6581H14.434V12.191L14.435 11.6581ZM29.435 12.3651L32.728 15.6581H29.435V12.3651ZM13.435 12.764V15.8571L13 12.827L13.435 12.764ZM15.435 16.6581V17.6581H24.435V16.6581H15.935H15.435ZM15.435 19.6581V20.6581H31.935V19.6581H15.435ZM36.404 20.9921L35.418 23.1621C35.3 23.4221 35.093 23.719 34.834 23.979L34.556 24.2561C34.452 24.3627 34.3279 24.4476 34.191 24.5061L32.834 23.1481L33.515 22.468C33.6929 22.2864 33.9006 22.1366 34.129 22.025L36.404 20.9921ZM32.148 23.9121L33.378 25.1421L23.38 34.7721L22.02 33.338L32.148 23.9121ZM33.435 26.4771V35.6581H23.904L27.017 32.6581H32.435V31.656H28.058L30.132 29.6581H31.935V28.6581H31.17L33.435 26.4771ZM34.435 28.432L35.216 33.8821L34.436 33.9961L34.435 28.432ZM21.287 34.02L22.662 35.4651L21.716 36.375L20.386 34.8571L21.287 34.02Z" fill="white"></path><defs><linearGradient id="paint0_linear_48_79" x1="8.27388" y1="8.74425" x2="115.005" y2="112.368" gradientUnits="userSpaceOnUse"><stop stop-color="#FD6B02"></stop><stop offset="0.394" stop-color="#F6921E"></stop><stop offset="0.507" stop-color="#F05A28"></stop><stop offset="0.813" stop-color="#F05828"></stop><stop offset="1" stop-color="#FF4949"></stop></linearGradient></defs></svg>