<svg xmlns="http://www.w3.org/2000/svg" width="44" height="44" viewBox="0 0 44 44" fill="none"><path d="M22 44C34.1503 44 44 34.1503 44 22C44 9.84978 34.1503 0 22 0C9.84974 0 0 9.84978 0 22C0 34.1503 9.84974 44 22 44Z" fill="#02B969"></path><path d="M20.5533 43.9285C21.0346 43.9682 21.517 43.992 21.9998 44C22.5189 44 23.0377 43.9816 23.5554 43.945C24.2875 43.8928 25.0166 43.8041 25.7398 43.6791C26.4624 43.5546 27.1783 43.3939 27.8848 43.1979C28.5917 43.0018 29.2883 42.7705 29.9721 42.5049C30.6558 42.2391 31.3258 41.9393 31.9796 41.6065C32.633 41.2737 33.2693 40.9084 33.8863 40.512C34.5033 40.1162 35.1002 39.6897 35.6747 39.2342C36.2495 38.7781 36.8011 38.2935 37.3274 37.7822C37.8532 37.271 38.3531 36.7337 38.8253 36.1725C39.2985 35.6115 39.7433 35.0272 40.1581 34.4217C40.5723 33.8164 40.9559 33.1908 41.3076 32.5471C41.6588 31.9035 41.9776 31.2426 42.2628 30.5671C42.5485 29.8914 42.8003 29.2018 43.0172 28.501C43.2338 27.8004 43.4152 27.0894 43.5608 26.3706C43.7069 25.6518 43.8171 24.9261 43.8908 24.1963C43.9117 23.9015 43.9266 23.6063 43.9357 23.3108L32.0832 11.4583C32.0832 11.3368 32.0349 11.2202 31.9489 11.1342C31.863 11.0483 31.7464 11 31.6248 11H27.0415L26.5832 10.5417C26.5832 10.4201 26.5349 10.3035 26.4489 10.2176C26.363 10.1316 26.2464 10.0833 26.1248 10.0833H24.6563L23.3748 8.80183C23.3602 8.78625 23.34 8.77617 23.3244 8.76242C23.2755 8.71771 23.2241 8.67578 23.1704 8.63683C23.1301 8.60658 23.0907 8.57633 23.0476 8.54883C22.9898 8.51308 22.9284 8.48467 22.8661 8.45442C22.8184 8.4315 22.7735 8.40492 22.7231 8.38567C22.6571 8.36092 22.5865 8.3435 22.5168 8.32517C22.4683 8.31233 22.4206 8.29492 22.3702 8.28575C22.2481 8.26256 22.1241 8.2506 21.9998 8.25C21.0291 8.25 20.1665 8.943 20.1665 9.88166C20.1665 9.95041 20.1821 10.0155 20.1913 10.0833H17.8748C17.7533 10.0833 17.6367 10.1316 17.5507 10.2176C17.4648 10.3035 17.4165 10.4201 17.4165 10.5417V11H12.3748C12.2533 11 12.1367 11.0483 12.0507 11.1342C11.9648 11.2202 11.9165 11.3368 11.9165 11.4583V35.2916C11.9165 35.4132 11.9648 35.5298 12.0507 35.6157C12.1367 35.7017 12.2533 35.75 12.3748 35.75L20.5533 43.9285ZM12.8332 11.9167L13.8837 12.9672L13.8828 12.969L12.8332 11.9203V11.9167Z" fill="#017F47"></path><path d="M21.9998 8.25C21.0291 8.25 20.1665 8.943 20.1665 9.88166C20.1665 9.95041 20.1821 10.0155 20.1913 10.0833H17.8748C17.7533 10.0833 17.6367 10.1316 17.5507 10.2176C17.4648 10.3035 17.4165 10.4201 17.4165 10.5417V11H12.3748C12.2533 11 12.1367 11.0483 12.0507 11.1342C11.9648 11.2202 11.9165 11.3368 11.9165 11.4583V35.2916C11.9165 35.4132 11.9648 35.5298 12.0507 35.6157C12.1367 35.7017 12.2533 35.75 12.3748 35.75H31.6248C31.7464 35.75 31.863 35.7017 31.9489 35.6157C32.0349 35.5298 32.0832 35.4132 32.0832 35.2916V11.4583C32.0832 11.3368 32.0349 11.2202 31.9489 11.1342C31.863 11.0483 31.7464 11 31.6248 11H26.5832V10.5417C26.5832 10.4201 26.5349 10.3035 26.4489 10.2176C26.363 10.1316 26.2464 10.0833 26.1248 10.0833H23.8084C23.8176 10.0155 23.8332 9.95041 23.8332 9.88166C23.8332 8.94208 22.9706 8.25 21.9998 8.25ZM21.9998 9.16667C22.548 9.16667 22.9165 9.52416 22.9165 9.88166C22.9165 9.96966 22.8954 10.0549 22.856 10.1356C22.8352 10.1775 22.81 10.2172 22.7808 10.2538C22.7209 10.3256 22.6844 10.4139 22.6761 10.5069C22.6678 10.6 22.6882 10.6934 22.7345 10.7746C22.7807 10.8558 22.8507 10.9208 22.935 10.9611C23.0193 11.0014 23.1139 11.015 23.2062 11H25.6665V13.75H18.3332V11H20.7917C20.884 11.0155 20.9789 11.0022 21.0636 10.9621C21.1482 10.922 21.2186 10.8569 21.2651 10.7757C21.3116 10.6944 21.3321 10.6008 21.3239 10.5075C21.3156 10.4142 21.2789 10.3257 21.2188 10.2538C21.1897 10.2168 21.1645 10.1769 21.1437 10.1347C21.1041 10.0562 21.0834 9.96956 21.0832 9.88166C21.0832 9.52416 21.4517 9.16667 21.9998 9.16667ZM12.8332 11.9167H17.4165V12.8333H14.2082C14.0866 12.8333 13.97 12.8816 13.8841 12.9676C13.7981 13.0535 13.7498 13.1701 13.7498 13.2917V33.4583C13.7498 33.5799 13.7981 33.6964 13.8841 33.7824C13.97 33.8683 14.0866 33.9166 14.2082 33.9166H26.9251C26.9435 33.9165 26.9618 33.9153 26.9801 33.913C27.0498 33.9226 27.1208 33.916 27.1876 33.8937C27.2543 33.8715 27.3151 33.8341 27.3651 33.7846L30.1151 31.0328C30.1616 30.9862 30.1976 30.9302 30.2205 30.8685C30.2434 30.8068 30.2528 30.7409 30.248 30.6753C30.2494 30.6595 30.2501 30.6435 30.2498 30.6276V13.2917C30.2498 13.1701 30.2015 13.0535 30.1156 12.9676C30.0296 12.8816 29.9131 12.8333 29.7915 12.8333H26.5832V11.9167H31.1665V34.8333H12.8332V11.9167ZM14.6665 13.75H17.4165V14.2083C17.4165 14.3299 17.4648 14.4465 17.5507 14.5324C17.6367 14.6184 17.7533 14.6667 17.8748 14.6667H26.1248C26.2464 14.6667 26.363 14.6184 26.4489 14.5324C26.5349 14.4465 26.5832 14.3299 26.5832 14.2083V13.75H29.3332V30.25H27.0415C26.9199 30.25 26.8034 30.2983 26.7174 30.3842C26.6315 30.4702 26.5832 30.5867 26.5832 30.7083V33H14.6665V13.75ZM20.5708 15.5833C20.5106 15.5864 20.4516 15.6013 20.3971 15.6272C20.3427 15.653 20.2939 15.6894 20.2535 15.7341C20.2131 15.7788 20.1819 15.8311 20.1617 15.8879C20.1415 15.9446 20.1327 16.0048 20.1358 16.065C20.1389 16.1252 20.1538 16.1842 20.1796 16.2386C20.2055 16.2931 20.2418 16.3419 20.2866 16.3823C20.3313 16.4227 20.3835 16.4538 20.4403 16.474C20.4971 16.4942 20.5573 16.5031 20.6175 16.5H27.9508C28.0724 16.5 28.189 16.4517 28.2749 16.3657C28.3609 16.2798 28.4092 16.1632 28.4092 16.0417C28.4092 15.9201 28.3609 15.8035 28.2749 15.7176C28.189 15.6316 28.0724 15.5833 27.9508 15.5833H20.6175C20.6022 15.5826 20.5869 15.5826 20.5717 15.5833H20.5708ZM18.6604 15.5852C18.5417 15.5912 18.4299 15.6431 18.3488 15.73L16.9243 17.215L16.3779 16.6448C16.3361 16.6014 16.2862 16.5666 16.231 16.5424C16.1758 16.5182 16.1163 16.5052 16.0561 16.504C15.9344 16.5016 15.8167 16.5476 15.7289 16.632C15.6412 16.7163 15.5905 16.8321 15.5881 16.9538C15.5857 17.0755 15.6317 17.1932 15.7161 17.281L16.5933 18.1958C16.6361 18.2405 16.6875 18.276 16.7444 18.3003C16.8012 18.3245 16.8624 18.337 16.9243 18.337C16.9861 18.337 17.0473 18.3245 17.1041 18.3003C17.161 18.276 17.2124 18.2405 17.2552 18.1958L19.0097 16.3643C19.0743 16.2986 19.1176 16.215 19.1339 16.1243C19.1503 16.0336 19.1389 15.9401 19.1013 15.8559C19.0637 15.7718 19.0016 15.701 18.9231 15.6527C18.8446 15.6044 18.7525 15.5808 18.6604 15.5852ZM20.579 17.4167C20.4574 17.4229 20.3433 17.4771 20.2618 17.5674C20.1802 17.6578 20.1378 17.7768 20.144 17.8984C20.1502 18.0199 20.2045 18.134 20.2948 18.2156C20.3852 18.2972 20.5042 18.3395 20.6258 18.3333H24.2924C24.414 18.3333 24.5306 18.285 24.6165 18.1991C24.7025 18.1131 24.7508 17.9965 24.7508 17.875C24.7508 17.7534 24.7025 17.6369 24.6165 17.5509C24.5306 17.4649 24.414 17.4167 24.2924 17.4167H20.6258C20.6105 17.4159 20.5952 17.4159 20.5799 17.4167H20.579ZM20.5717 20.1667C20.4501 20.1728 20.336 20.2271 20.2544 20.3174C20.1729 20.4078 20.1305 20.5268 20.1367 20.6484C20.1429 20.7699 20.1971 20.884 20.2875 20.9656C20.3778 21.0472 20.4969 21.0895 20.6184 21.0833H27.9518C28.0733 21.0833 28.1899 21.035 28.2758 20.9491C28.3618 20.8631 28.4101 20.7465 28.4101 20.625C28.4101 20.5034 28.3618 20.3868 28.2758 20.3009C28.1899 20.2149 28.0733 20.1667 27.9518 20.1667H20.6184C20.6032 20.1659 20.5869 20.1659 20.5717 20.1667ZM18.6613 20.1685C18.5426 20.1745 18.4308 20.2264 18.3497 20.3133L16.9252 21.7983L16.3788 21.2281C16.3371 21.1847 16.2871 21.1499 16.2319 21.1257C16.1767 21.1016 16.1173 21.0885 16.057 21.0873C15.9353 21.0849 15.8176 21.131 15.7298 21.2153C15.6421 21.2997 15.5914 21.4154 15.589 21.5372C15.5866 21.6589 15.6326 21.7766 15.717 21.8643L16.5943 22.7791C16.637 22.8238 16.6884 22.8593 16.7453 22.8836C16.8021 22.9079 16.8633 22.9204 16.9252 22.9204C16.987 22.9204 17.0482 22.9079 17.1051 22.8836C17.1619 22.8593 17.2133 22.8238 17.2561 22.7791L19.0106 20.9476C19.0752 20.8819 19.1185 20.7983 19.1348 20.7076C19.1512 20.6169 19.1398 20.5234 19.1022 20.4393C19.0646 20.3551 19.0025 20.2843 18.924 20.236C18.8455 20.1877 18.7543 20.1642 18.6623 20.1685H18.6613ZM20.7165 22C20.5949 22.0061 20.4808 22.0602 20.3991 22.1504C20.3175 22.2407 20.275 22.3597 20.2811 22.4812C20.2872 22.6028 20.3413 22.717 20.4315 22.7986C20.5218 22.8803 20.6408 22.9227 20.7623 22.9166H25.6665C25.7881 22.9166 25.9046 22.8684 25.9906 22.7824C26.0765 22.6965 26.1248 22.5799 26.1248 22.4583C26.1248 22.3368 26.0765 22.2202 25.9906 22.1342C25.9046 22.0483 25.7881 22 25.6665 22H20.7623C20.7471 21.9992 20.7318 21.9992 20.7165 22ZM16.9582 24.75C16.2047 24.75 15.5832 25.3715 15.5832 26.125C15.5832 26.8785 16.2047 27.5 16.9582 27.5C17.7117 27.5 18.3332 26.8785 18.3332 26.125C18.3332 25.3715 17.7117 24.75 16.9582 24.75ZM20.5708 24.75C20.5106 24.753 20.4516 24.7679 20.3971 24.7938C20.3427 24.8197 20.2939 24.856 20.2535 24.9007C20.2131 24.9455 20.1819 24.9977 20.1617 25.0545C20.1415 25.1113 20.1327 25.1715 20.1358 25.2317C20.1389 25.2919 20.1538 25.3509 20.1796 25.4053C20.2055 25.4597 20.2418 25.5085 20.2866 25.5489C20.3313 25.5893 20.3835 25.6205 20.4403 25.6407C20.4971 25.6609 20.5573 25.6697 20.6175 25.6666H27.9508C28.0724 25.6666 28.189 25.6184 28.2749 25.5324C28.3609 25.4464 28.4092 25.3299 28.4092 25.2083C28.4092 25.0868 28.3609 24.9702 28.2749 24.8842C28.189 24.7983 28.0724 24.75 27.9508 24.75H20.6175C20.6022 24.7492 20.5869 24.7492 20.5717 24.75H20.5708ZM16.9582 25.6666C17.2203 25.6666 17.4165 25.8628 17.4165 26.125C17.4165 26.3871 17.2203 26.5833 16.9582 26.5833C16.8976 26.5848 16.8373 26.574 16.781 26.5515C16.7247 26.529 16.6736 26.4953 16.6307 26.4524C16.5879 26.4096 16.5541 26.3584 16.5317 26.3021C16.5092 26.2459 16.4983 26.1856 16.4998 26.125C16.4998 25.8628 16.696 25.6666 16.9582 25.6666ZM20.579 26.5833C20.4574 26.5894 20.3433 26.6435 20.2616 26.7338C20.18 26.824 20.1375 26.943 20.1436 27.0646C20.1497 27.1861 20.2038 27.3003 20.294 27.3819C20.3843 27.4636 20.5033 27.5061 20.6248 27.5H22.4582C22.5797 27.5 22.6963 27.4517 22.7823 27.3657C22.8682 27.2798 22.9165 27.1632 22.9165 27.0416C22.9165 26.9201 22.8682 26.8035 22.7823 26.7176C22.6963 26.6316 22.5797 26.5833 22.4582 26.5833H20.6248C20.6096 26.5825 20.5943 26.5825 20.579 26.5833ZM16.9582 29.3333C16.2047 29.3333 15.5832 29.9548 15.5832 30.7083C15.5832 31.4618 16.2047 32.0833 16.9582 32.0833C17.7117 32.0833 18.3332 31.4618 18.3332 30.7083C18.3332 29.9548 17.7117 29.3333 16.9582 29.3333ZM20.579 29.3333C20.4574 29.3394 20.3433 29.3935 20.2616 29.4838C20.18 29.574 20.1375 29.693 20.1436 29.8146C20.1497 29.9361 20.2038 30.0503 20.294 30.1319C20.3843 30.2136 20.5033 30.256 20.6248 30.25H25.2082C25.3297 30.25 25.4463 30.2017 25.5323 30.1157C25.6182 30.0298 25.6665 29.9132 25.6665 29.7916C25.6665 29.6701 25.6182 29.5535 25.5323 29.4675C25.4463 29.3816 25.3297 29.3333 25.2082 29.3333H20.6248C20.6096 29.3325 20.5943 29.3325 20.579 29.3333ZM16.9582 30.25C17.2203 30.25 17.4165 30.4461 17.4165 30.7083C17.4165 30.9705 17.2203 31.1666 16.9582 31.1666C16.8976 31.1681 16.8373 31.1573 16.781 31.1348C16.7247 31.1123 16.6736 31.0786 16.6307 31.0358C16.5879 30.9929 16.5541 30.9418 16.5317 30.8855C16.5092 30.8292 16.4983 30.7689 16.4998 30.7083C16.4998 30.4461 16.696 30.25 16.9582 30.25ZM20.579 31.1666C20.4574 31.1727 20.3433 31.2268 20.2616 31.3171C20.18 31.4073 20.1375 31.5263 20.1436 31.6479C20.1497 31.7694 20.2038 31.8836 20.294 31.9653C20.3843 32.0469 20.5033 32.0894 20.6248 32.0833H23.3748C23.4964 32.0833 23.613 32.035 23.6989 31.9491C23.7849 31.8631 23.8332 31.7465 23.8332 31.625C23.8332 31.5034 23.7849 31.3868 23.6989 31.3009C23.613 31.2149 23.4964 31.1666 23.3748 31.1666H20.6248C20.6096 31.1659 20.5943 31.1659 20.579 31.1666ZM27.4998 31.1666H28.6851L27.4998 32.3519V31.1666Z" fill="white"></path></svg>