<svg xmlns="http://www.w3.org/2000/svg" width="44" height="44" viewBox="0 0 44 44" fill="none"><path d="M22 44C34.1503 44 44 34.1503 44 22C44 9.84974 34.1503 0 22 0C9.84973 0 0 9.84974 0 22C0 34.1503 9.84973 44 22 44Z" fill="#02B969"></path><path d="M26.8963 43.4276C27.4366 43.3113 27.9723 43.1747 28.5023 43.0181C29.2026 42.8016 29.8917 42.5502 30.5669 42.265C31.2425 41.9784 31.9033 41.6581 32.5469 41.3054C33.1907 40.9534 33.8165 40.5693 34.422 40.1547C35.0276 39.7413 35.6122 39.2979 36.1735 38.8262C36.7347 38.3536 37.2718 37.8531 37.7829 37.3268C38.2942 36.8003 38.7788 36.2484 39.2349 35.6734C39.6904 35.0989 40.1168 34.5019 40.5126 33.8847C40.9091 33.2676 41.2746 32.631 41.6075 31.9774C41.9403 31.3244 42.2402 30.6551 42.5061 29.9721C42.771 29.2879 43.0014 28.5909 43.1966 27.8837C43.3936 27.177 43.5552 26.4608 43.6806 25.7379C43.6835 25.7097 43.6863 25.6815 43.6891 25.6533L33.8466 15.8074L33.1883 15.6517C32.1791 15.4238 31.1763 15.1681 30.1811 14.8851C29.2783 14.6257 28.3893 14.3207 27.5174 13.9713C27.4785 13.9577 27.4395 13.9459 27.4006 13.929C27.1891 13.8444 26.9894 13.7445 26.7829 13.6514C26.5375 13.5414 26.2871 13.4314 26.0501 13.313C25.8928 13.2318 25.7455 13.1404 25.5932 13.0574C25.3461 12.9221 25.0974 12.7884 24.8621 12.6411C24.6878 12.5311 24.5254 12.4076 24.3578 12.2908C24.1412 12.1385 23.9246 11.9913 23.7198 11.8271C23.5828 11.7188 23.4575 11.5953 23.3255 11.4802C23.2494 11.4125 23.1766 11.3414 23.1005 11.2721L21.9801 10.1534L21.3692 10.8405C18.78 13.7479 15.1855 15.1204 10.8972 15.6433L10.1543 15.733V16.4827C10.1543 20.8488 11.0783 25.0847 12.9906 28.5573C13.3341 29.1817 13.7217 29.7724 14.1312 30.3427C14.2497 30.5068 14.3665 30.6744 14.4917 30.8334C14.7719 31.1943 15.0672 31.5432 15.3768 31.8793C15.4766 31.9876 15.5748 32.0993 15.678 32.2025C15.7186 32.2448 15.7575 32.2905 15.7998 32.3311L26.8963 43.4276Z" fill="#017F47"></path><path d="M21.9801 10.1551L21.3692 10.8405C18.78 13.7479 15.1855 15.1204 10.8972 15.6433L10.1543 15.733V16.4827C10.1543 20.8488 11.0783 25.0847 12.9906 28.5573C14.9029 32.0299 17.8374 34.7393 21.7585 35.9087L22.0106 35.9848L22.2611 35.8985C29.8392 33.4497 33.8466 25.4722 33.8466 16.4827V15.8091L33.1883 15.6534C29.0168 14.6922 25.1701 13.5245 22.6148 10.8253L21.9801 10.1534V10.1551ZM22.0208 12.4059C24.7606 14.9647 28.3585 16.1967 32.0849 17.0868C31.9072 25.1777 28.3669 31.9267 21.9937 34.1487C18.6751 33.0741 16.1688 30.8148 14.4748 27.7399C12.8231 24.7445 12.004 21.0011 11.916 17.1088C15.8337 16.5148 19.3317 15.1119 22.0191 12.4059H22.0208ZM26.5189 19.6507L20.3471 25.0542L17.5209 22.2314L16.3245 23.4279L20.2675 27.371L27.6358 20.925L26.5189 19.6507Z" fill="white"></path></svg>