<svg xmlns="http://www.w3.org/2000/svg" width="54" height="54" viewBox="0 0 54 54" fill="none"><circle cx="27" cy="27" r="27" fill="#0D6D42"></circle><path fill-rule="evenodd" clip-rule="evenodd" d="M27.1997 19.2151C28.14 17.9868 29.6211 17.194 31.2857 17.194C32.9511 17.194 34.4314 17.9868 35.3726 19.2151H36.4286C37.1109 19.2151 37.7649 19.486 38.2474 19.9685C38.7291 20.4503 39 21.1043 39 21.7865C39 24.7548 39 30.8183 39 33.7865C39 34.4688 38.7291 35.1228 38.2474 35.6045C37.7649 36.0871 37.1109 36.358 36.4286 36.358C32.2774 36.358 21.7226 36.358 17.5714 36.358C16.89 36.358 16.236 36.0871 15.7534 35.6045C15.2709 35.1228 15 34.4688 15 33.7865C15 30.8183 15 24.7548 15 21.7865C15 21.1043 15.2709 20.4503 15.7534 19.9685C16.236 19.486 16.89 19.2151 17.5714 19.2151H27.1997ZM33 27.1865C32.4643 27.3768 31.8866 27.4797 31.2857 27.4797C30.6849 27.4797 30.108 27.3768 29.5714 27.1865V30.5954L31.0149 30.1145C31.1906 30.0563 31.3809 30.0563 31.5574 30.1145L33 30.5954V27.1865ZM18.4286 30.358H25.2857C25.7589 30.358 26.1429 29.974 26.1429 29.5008C26.1429 29.0277 25.7589 28.6437 25.2857 28.6437H18.4286C17.9554 28.6437 17.5714 29.0277 17.5714 29.5008C17.5714 29.974 17.9554 30.358 18.4286 30.358ZM18.4286 26.9294H24.4286C24.9017 26.9294 25.2857 26.5454 25.2857 26.0723C25.2857 25.5991 24.9017 25.2151 24.4286 25.2151H18.4286C17.9554 25.2151 17.5714 25.5991 17.5714 26.0723C17.5714 26.5454 17.9554 26.9294 18.4286 26.9294ZM31.2857 18.9083C33.1783 18.9083 34.7143 20.4443 34.7143 22.3368C34.7143 24.2294 33.1783 25.7654 31.2857 25.7654C29.394 25.7654 27.8571 24.2294 27.8571 22.3368C27.8571 20.4443 29.394 18.9083 31.2857 18.9083Z" fill="white"></path></svg>