<svg xmlns="http://www.w3.org/2000/svg" width="48" height="48" viewBox="0 0 48 48" fill="none"><path d="M37.856 0H10.144C4.54162 0 0 4.5416 0 10.144V37.856C0 43.4583 4.54162 48 10.144 48H37.856C43.4584 48 48 43.4583 48 37.856V10.144C48 4.5416 43.4584 0 37.856 0Z" fill="url(#paint0_linear_48_85)"></path><path d="M38.7539 8.547C36.0588 8.54567 33.391 9.08747 30.9099 10.14C30.1769 10.471 29.5149 10.85 28.9099 11.203C25.9359 12.92 23.4149 15.218 21.3469 17.765C20.9084 17.5764 20.4455 17.4501 19.9719 17.39C18.2629 17.18 16.4199 17.805 14.6919 19.015C12.3859 20.629 10.2289 23.291 8.78494 26.672C8.58294 27.084 9.22294 27.5699 9.56594 27.2649C11.6589 25.6419 13.2889 24.7749 14.4409 24.5779C15.5049 24.3969 16.1539 24.6979 16.6909 25.5149C16.6419 25.6299 16.5819 25.7449 16.5349 25.8589C16.4931 25.9515 16.4797 26.0545 16.4964 26.1547C16.5131 26.2549 16.5593 26.3481 16.6289 26.422L21.3789 31.1399C21.5119 31.2799 21.7289 31.3299 21.9089 31.2649C22.0239 31.2179 22.1389 31.1579 22.2539 31.1089C23.0939 31.6499 23.3739 32.2799 23.1909 33.3589C22.9949 34.5109 22.1579 36.1419 20.5349 38.2339C20.3149 38.5739 20.7089 39.0989 21.0969 38.9839C24.4779 37.5389 27.1709 35.4139 28.7849 33.1089C30.3199 30.9149 30.8879 28.5229 30.0349 26.4839C32.9479 24.1519 35.5469 21.223 37.3159 17.734C37.5839 17.27 37.5709 17.148 37.7219 16.828C38.7382 14.3596 39.2588 11.7154 39.2539 9.04602C39.249 8.91499 39.1947 8.79065 39.102 8.69794C39.0093 8.60522 38.885 8.55195 38.7539 8.547ZM38.1909 9.60901C38.1319 11.7222 37.7311 13.8119 37.0039 15.797L32.0039 10.797C33.9874 10.0652 36.0775 9.66391 38.1909 9.60901ZM31.0039 11.203L36.6289 16.828L36.1909 17.671L30.1289 11.671C30.6349 11.379 30.7029 11.367 31.0039 11.203ZM29.2219 12.203L35.6919 18.578C32.8609 23.349 28.3919 26.9429 23.9099 29.2339C23.3299 29.5239 22.7439 29.8109 22.1289 30.0779C22.0279 30.1219 21.9169 30.1599 21.8159 30.2029L17.5969 25.9529C19.7689 20.8289 23.7119 15.458 29.2219 12.203ZM28.7219 17.046C28.4312 17.0474 28.1435 17.1061 27.8755 17.2189C27.6074 17.3316 27.3643 17.4961 27.1599 17.703C26.2999 18.563 26.2999 19.9679 27.1599 20.8279C28.0199 21.6879 29.4249 21.6879 30.2849 20.8279C31.1449 19.9679 31.1449 18.562 30.2849 17.703C30.0804 17.4962 29.837 17.3317 29.5688 17.2192C29.3006 17.1066 29.0128 17.0471 28.7219 17.046ZM28.7219 18.046C29.0339 18.046 29.3589 18.152 29.5969 18.39C29.7105 18.5025 29.8006 18.6363 29.8621 18.7839C29.9236 18.9314 29.9553 19.0897 29.9553 19.2495C29.9553 19.4093 29.9236 19.5676 29.8621 19.7151C29.8006 19.8627 29.7105 19.9964 29.5969 20.1089C29.3635 20.3384 29.0493 20.4671 28.7219 20.4671C28.3946 20.4671 28.0803 20.3384 27.8469 20.1089C27.7334 19.9964 27.6433 19.8627 27.5818 19.7151C27.5203 19.5676 27.4886 19.4093 27.4886 19.2495C27.4886 19.0897 27.5203 18.9314 27.5818 18.7839C27.6433 18.6363 27.7334 18.5025 27.8469 18.39C28.0817 18.1644 28.3964 18.04 28.7219 18.046ZM18.9419 18.39C19.5039 18.4 20.0469 18.537 20.5659 18.703C20.1779 19.236 19.8089 19.8159 19.4409 20.3899C19.1989 20.7589 18.9459 21.1419 18.7219 21.5149C18.3819 22.0993 18.0591 22.6937 17.7539 23.297C17.5369 23.714 17.3539 24.129 17.1599 24.547C17.1439 24.581 17.1129 24.6049 17.0969 24.6399C16.3719 23.8599 15.4489 23.411 14.2849 23.61C13.2819 23.78 12.0889 24.4219 10.7849 25.2649C12.0719 22.9669 13.5879 20.9939 15.2539 19.8279C16.3109 19.0879 17.3729 18.604 18.3789 18.422C18.5739 18.387 18.7529 18.388 18.9409 18.391L18.9419 18.39ZM15.6919 26.9839L15.3469 27.5779L14.4409 29.2649L14.2849 29.5779L14.5349 29.8589L18.0039 33.297L18.2839 33.547L18.5969 33.3589L20.2219 32.4209L20.7849 32.0779L20.3159 31.6399L16.1599 27.4529L15.6919 26.9839ZM29.0969 27.2339C29.6009 28.8139 29.2869 30.667 27.9719 32.547C26.8059 34.213 24.8359 35.7269 22.5349 37.0149C23.3809 35.7079 24.0199 34.5199 24.1909 33.5149C24.3879 32.3599 23.9279 31.4269 23.1599 30.7029C23.6999 30.4529 24.2429 30.208 24.7849 29.922C25.2921 29.6537 25.7923 29.3721 26.2849 29.0779C27.2527 28.5109 28.1912 27.8955 29.0969 27.2339ZM15.9099 28.6399L19.1599 31.8589L18.4409 32.297L15.5039 29.3899L15.9099 28.6399ZM14.0349 31.3899L11.6599 33.7649L12.1599 34.2339L14.5039 31.8589L14.0349 31.3899ZM15.0039 32.3279L11.1909 36.1399L11.6599 36.6089L15.4719 32.7959L15.0039 32.3279ZM15.9409 33.297L13.0969 36.1399L13.5669 36.6089L16.4099 33.7649L15.9409 33.297ZM11.1909 34.2339L10.7219 34.7029L11.1919 35.172L11.6599 34.7019L11.1909 34.2339ZM10.7219 36.6089L10.2539 37.0779L10.7219 37.547L11.1919 37.0769L10.7219 36.6089ZM12.6289 36.6089L12.1589 37.0779L12.6289 37.547L13.0969 37.0769L12.6289 36.6089Z" fill="white"></path><defs><linearGradient id="paint0_linear_48_85" x1="8.27488" y1="8.74525" x2="115.006" y2="112.369" gradientUnits="userSpaceOnUse"><stop stop-color="#FD6B02"></stop><stop offset="0.394" stop-color="#F6921E"></stop><stop offset="0.507" stop-color="#F05A28"></stop><stop offset="0.813" stop-color="#F05828"></stop><stop offset="1" stop-color="#FF4949"></stop></linearGradient></defs></svg>