<svg xmlns="http://www.w3.org/2000/svg" width="44" height="44" viewBox="0 0 44 44" fill="none"><path d="M22 44C34.1503 44 44 34.1503 44 22C44 9.84974 34.1503 0 22 0C9.84974 0 0 9.84974 0 22C0 34.1503 9.84974 44 22 44Z" fill="#02B969"></path><path d="M19.2489 13.75V16.7878L18.3322 15.8711C17.7114 16.0947 17.113 16.3758 16.5447 16.7108C15.128 17.5612 13.9305 18.7313 13.0483 20.1274C12.166 21.5235 11.6236 23.1067 11.4645 24.75L12.3812 25.6667H10.0822C9.57436 25.6667 9.16553 26.0755 9.16553 26.5833V27.5C9.16553 27.7539 9.26819 27.9822 9.43411 28.1481L25.0477 43.7636C28.7228 43.247 32.2076 41.8091 35.1776 39.5837C38.1476 37.3583 40.5064 34.4177 42.0344 31.0356L30.3029 19.304C29.7521 18.5909 29.1123 17.9512 28.399 17.4002L24.7489 13.75H22.4251V14.6667L21.5084 13.75H19.2489Z" fill="#017F47"></path><path d="M19.2489 13.75V19.25H18.3322V15.8711C17.7121 16.0948 17.1142 16.3759 16.5465 16.7108C15.1296 17.5611 13.932 18.7312 13.0496 20.1273C12.1672 21.5234 11.6246 23.1066 11.4654 24.75H32.4809C32.5144 25.0545 32.5346 25.3604 32.5414 25.6667C32.5213 23.8189 32.0163 22.0088 31.077 20.4169C30.1376 18.825 28.7967 17.507 27.1881 16.5944C26.7001 16.3231 26.1912 16.0907 25.6664 15.8996V19.25H24.7498V13.75H22.426V16.5H21.5094V13.75H19.2489ZM24.7489 15.5925C24.9917 15.6606 25.232 15.7373 25.4694 15.8226C25.2323 15.737 24.9923 15.66 24.7498 15.5916L24.7489 15.5925ZM32.5414 25.6667H10.0822C9.57528 25.6667 9.16553 26.0755 9.16553 26.5833V27.5C9.16553 28.0078 9.57528 28.4167 10.0822 28.4167H33.9155C34.4243 28.4167 34.8322 28.0078 34.8322 27.5V26.5833C34.8322 26.0755 34.4243 25.6667 33.9155 25.6667H32.5414Z" fill="white"></path></svg>