<svg xmlns="http://www.w3.org/2000/svg" id="Layer_2" data-name="Layer 2" viewBox="0 0 126.13 96.54"><defs><style>      .cls-1 {        fill: #fff;        stroke-width: 0px;      }    </style></defs><g id="Layer_1-2" data-name="Layer 1"><g><path class="cls-1" d="m0,70.59h6.03c2.44,0,4.09.79,4.09,3.18,0,1.29-.59,2.12-1.74,2.67,1.58.45,2.35,1.65,2.35,3.25,0,2.6-2.21,3.71-4.52,3.71H0v-12.81Zm2.82,5.19h2.85c1,0,1.72-.45,1.72-1.53,0-1.2-.93-1.47-1.94-1.47h-2.64v3Zm0,5.44h3.01c1.09,0,2.08-.36,2.08-1.69s-.81-1.83-2.03-1.83h-3.07v3.52Z"></path><path class="cls-1" d="m22.74,78.56c0,3.46-2.05,5.15-5.47,5.15s-5.46-1.65-5.46-5.15v-7.97h2.82v7.97c0,1.4.36,2.78,2.64,2.78,2.01,0,2.66-.86,2.66-2.78v-7.97h2.82v7.97Z"></path><path class="cls-1" d="m23.01,83.41l5.81-12.79h2.83l5.72,12.79h-2.73l-1.26-2.83h-6.48l-1.35,2.83h-2.57Zm7.27-10.39l-2.15,4.95h4.25l-2.08-4.95h-.02Z"></path><path class="cls-1" d="m41.06,72.96h-4.07v-2.35h10.93v2.37h-4.04v10.43h-2.82v-10.44Z"></path><path class="cls-1" d="m48.36,83.32v-12.78h2.76v10.41h6.57v2.37h-9.33Z"></path><path class="cls-1" d="m57.62,83.41l5.81-12.79h2.83l5.72,12.79h-2.73l-1.26-2.83h-6.48l-1.35,2.83h-2.57Zm7.27-10.39l-2.15,4.95h4.25l-2.08-4.95h-.02Z"></path><path class="cls-1" d="m74.63,74.56v8.87h-2.46v-12.87h3.23l5.72,8v-8h2.39v12.87h-2.39l-6.5-8.87Z"></path><path class="cls-1" d="m84.83,70.59h5.53c3.32,0,5.81,2.1,5.81,6.33,0,3.71-1.9,6.48-5.81,6.48h-5.53v-12.81Zm2.82,10.44h2.51c1.63,0,3.19-1,3.19-3.84,0-2.58-.92-4.24-3.7-4.24h-2.01v8.08Z"></path><path class="cls-1" d="m97.33,70.59h2.82v12.81h-2.82v-12.81Z"></path><path class="cls-1" d="m103.81,74.56v8.87h-2.46v-12.87h3.23l5.72,8v-8h2.39v12.87h-2.39l-6.5-8.87Z"></path><path class="cls-1" d="m125.4,80.18c-1.09,2.06-3.32,3.45-5.81,3.45-3.64,0-6.62-2.98-6.62-6.64s2.98-6.62,6.62-6.62c2.48,0,4.65,1.38,5.8,3.37-1.13.57-1.22.63-2.48,1.26-.66-1.15-1.88-1.88-3.32-1.88-2.15,0-3.88,1.72-3.88,3.88s1.72,3.88,3.88,3.88c1.44,0,2.87-.72,3.39-1.94h-.29c-.57,0-1.88.02-2.6.02-.34,0-.5,0-.5-.02v-2.37c1.81,0,4.34.02,6.55.02,0,.38-.07,2.75-.74,3.61Z"></path></g><g><path class="cls-1" d="m14.63,92.76h-1.07v2.12h-.96v-5.52h1.94c.64,0,1.13.14,1.48.43s.52.7.52,1.24c0,.37-.09.68-.27.93-.18.25-.43.44-.75.58l1.24,2.3v.05h-1.03l-1.11-2.12Zm-1.07-.77h.99c.32,0,.58-.08.76-.24.18-.16.27-.39.27-.67s-.08-.52-.25-.69c-.17-.16-.42-.25-.75-.25h-1.01v1.85Z"></path><path class="cls-1" d="m20.63,94.48c-.27.32-.66.48-1.15.48-.45,0-.78-.13-1.01-.39s-.34-.64-.34-1.13v-2.66h.92v2.65c0,.52.22.78.65.78s.75-.16.91-.48v-2.95h.92v4.11h-.87l-.02-.4Z"></path><path class="cls-1" d="m24.1,90.78l.03.43c.29-.34.68-.5,1.18-.5.55,0,.92.21,1.13.63.3-.42.72-.63,1.26-.63.45,0,.79.13,1.01.38.22.25.33.62.34,1.11v2.7h-.92v-2.67c0-.26-.06-.45-.17-.57-.11-.12-.3-.18-.57-.18-.21,0-.38.06-.51.17-.13.11-.23.26-.28.44v2.82s-.92,0-.92,0v-2.7c-.01-.48-.26-.72-.74-.72-.37,0-.63.15-.79.45v2.98h-.92v-4.11h.87Z"></path><path class="cls-1" d="m33.23,94.88c-.04-.08-.08-.21-.11-.38-.29.31-.65.46-1.08.46s-.75-.12-1.01-.35c-.26-.24-.39-.53-.39-.87,0-.44.16-.77.49-1.01s.79-.35,1.39-.35h.57v-.27c0-.21-.06-.38-.18-.51-.12-.13-.3-.19-.54-.19-.21,0-.38.05-.52.16-.13.1-.2.24-.2.4h-.92c0-.23.07-.44.22-.63.15-.2.35-.35.61-.46s.54-.17.86-.17c.48,0,.86.12,1.15.36.29.24.43.58.44,1.02v1.85c0,.37.05.66.16.88v.06h-.94Zm-1.01-.66c.18,0,.35-.04.51-.13s.28-.21.36-.36v-.77h-.5c-.34,0-.6.06-.77.18-.17.12-.26.29-.26.5,0,.18.06.32.18.42s.28.16.47.16Z"></path><path class="cls-1" d="m36.67,91.22c.3-.35.68-.52,1.14-.52.88,0,1.32.5,1.33,1.5v2.68h-.92v-2.65c0-.28-.06-.48-.18-.6s-.3-.18-.54-.18c-.37,0-.65.16-.83.49v2.93h-.92v-5.83h.92v2.17Z"></path><path class="cls-1" d="m41.7,90.78l.03.47c.3-.37.7-.55,1.2-.55.85,0,1.29.49,1.31,1.47v2.71h-.92v-2.66c0-.26-.06-.45-.17-.58-.11-.12-.3-.19-.55-.19-.37,0-.65.17-.83.5v2.92h-.92v-4.11h.87Z"></path><path class="cls-1" d="m47.38,93.56l.83-2.79h.98l-1.63,4.73c-.25.69-.68,1.04-1.27,1.04-.13,0-.28-.02-.44-.07v-.72h.17c.23.01.41-.03.53-.12.12-.08.21-.23.28-.43l.13-.35-1.44-4.08h.99l.87,2.79Z"></path><path class="cls-1" d="m52.9,94.88c-.04-.08-.08-.21-.11-.38-.29.31-.65.46-1.08.46s-.75-.12-1.01-.35c-.26-.24-.39-.53-.39-.87,0-.44.16-.77.49-1.01s.79-.35,1.39-.35h.57v-.27c0-.21-.06-.38-.18-.51-.12-.13-.3-.19-.54-.19-.21,0-.38.05-.52.16-.13.1-.2.24-.2.4h-.92c0-.23.07-.44.22-.63.15-.2.35-.35.61-.46s.54-.17.86-.17c.48,0,.86.12,1.15.36.29.24.43.58.44,1.02v1.85c0,.37.05.66.16.88v.06h-.94Zm-1.01-.66c.18,0,.35-.04.51-.13s.28-.21.36-.36v-.77h-.5c-.34,0-.6.06-.77.18-.17.12-.26.29-.26.5,0,.18.06.32.18.42s.28.16.47.16Z"></path><path class="cls-1" d="m59.19,94.12h2.51v.77h-3.47v-5.52h.96v4.76Z"></path><path class="cls-1" d="m65.58,94.88c-.04-.08-.08-.21-.11-.38-.29.31-.65.46-1.08.46s-.75-.12-1.01-.35c-.26-.24-.39-.53-.39-.87,0-.44.16-.77.49-1.01s.79-.35,1.39-.35h.57v-.27c0-.21-.06-.38-.18-.51-.12-.13-.3-.19-.54-.19-.21,0-.38.05-.52.16-.13.1-.2.24-.2.4h-.92c0-.23.07-.44.22-.63.15-.2.35-.35.61-.46s.54-.17.86-.17c.48,0,.86.12,1.15.36.29.24.43.58.44,1.02v1.85c0,.37.05.66.16.88v.06h-.94Zm-1.01-.66c.18,0,.35-.04.51-.13s.28-.21.36-.36v-.77h-.5c-.34,0-.6.06-.77.18-.17.12-.26.29-.26.5,0,.18.06.32.18.42s.28.16.47.16Z"></path><path class="cls-1" d="m68.96,90.78l.03.47c.3-.37.7-.55,1.2-.55.85,0,1.29.49,1.31,1.47v2.71h-.92v-2.66c0-.26-.06-.45-.17-.58-.11-.12-.3-.19-.55-.19-.37,0-.65.17-.83.5v2.92h-.92v-4.11h.87Z"></path><path class="cls-1" d="m73.03,92.8c0-.63.15-1.14.44-1.52.29-.38.69-.58,1.18-.58.44,0,.79.15,1.06.46v-2.1h.92v5.83h-.83l-.05-.42c-.28.33-.64.5-1.1.5s-.87-.19-1.17-.58c-.3-.39-.45-.91-.45-1.58Zm.92.08c0,.42.08.74.24.98s.39.35.68.35c.38,0,.65-.17.83-.5v-1.75c-.17-.33-.44-.49-.82-.49-.3,0-.53.12-.69.35-.16.24-.24.59-.24,1.07Z"></path><path class="cls-1" d="m78.37,89.71c0-.14.04-.26.13-.35.09-.09.22-.14.39-.14s.3.05.39.14c.09.09.14.21.14.35s-.05.25-.14.35c-.09.09-.22.14-.39.14s-.3-.05-.39-.14-.13-.21-.13-.35Zm.98,5.17h-.92v-4.11h.92v4.11Z"></path><path class="cls-1" d="m81.99,90.78l.03.47c.3-.37.7-.55,1.2-.55.85,0,1.29.49,1.31,1.47v2.71h-.92v-2.66c0-.26-.06-.45-.17-.58-.11-.12-.3-.19-.55-.19-.37,0-.65.17-.83.5v2.92h-.92v-4.11h.87Z"></path><path class="cls-1" d="m86.07,92.8c0-.64.15-1.15.45-1.53s.7-.57,1.19-.57c.47,0,.84.16,1.1.49l.04-.41h.83v3.98c0,.54-.17.96-.5,1.27-.33.31-.79.47-1.36.47-.3,0-.6-.06-.88-.19-.29-.13-.51-.29-.65-.49l.44-.55c.28.34.63.5,1.05.5.31,0,.55-.08.73-.25.18-.17.27-.41.27-.73v-.28c-.27.3-.62.44-1.06.44-.48,0-.87-.19-1.18-.57-.31-.38-.46-.91-.46-1.59Zm.92.08c0,.41.08.74.25.97.17.24.4.35.7.35.37,0,.65-.16.83-.48v-1.81c-.17-.31-.45-.47-.82-.47-.3,0-.54.12-.71.36-.17.24-.25.59-.25,1.06Z"></path><path class="cls-1" d="m95.17,92.83v2.05h-.96v-5.52h2.11c.62,0,1.11.16,1.47.48.36.32.54.75.54,1.28s-.18.96-.53,1.27-.85.45-1.49.45h-1.14Zm0-.77h1.15c.34,0,.6-.08.78-.24.18-.16.27-.39.27-.7s-.09-.54-.27-.72-.43-.27-.75-.27h-1.18v1.93Z"></path><path class="cls-1" d="m102.28,94.88c-.04-.08-.08-.21-.11-.38-.29.31-.65.46-1.08.46s-.75-.12-1.01-.35c-.26-.24-.39-.53-.39-.87,0-.44.16-.77.49-1.01s.79-.35,1.39-.35h.57v-.27c0-.21-.06-.38-.18-.51-.12-.13-.3-.19-.54-.19-.21,0-.38.05-.52.16-.13.1-.2.24-.2.4h-.92c0-.23.07-.44.22-.63.15-.2.35-.35.61-.46s.54-.17.86-.17c.48,0,.86.12,1.15.36.29.24.43.58.44,1.02v1.85c0,.37.05.66.16.88v.06h-.94Zm-1.01-.66c.18,0,.35-.04.51-.13s.28-.21.36-.36v-.77h-.5c-.34,0-.6.06-.77.18-.17.12-.26.29-.26.5,0,.18.06.32.18.42s.28.16.47.16Z"></path><path class="cls-1" d="m104.65,92.8c0-.64.15-1.15.45-1.53s.7-.57,1.19-.57c.47,0,.84.16,1.1.49l.04-.41h.83v3.98c0,.54-.17.96-.5,1.27-.33.31-.79.47-1.36.47-.3,0-.6-.06-.88-.19-.29-.13-.51-.29-.65-.49l.44-.55c.28.34.63.5,1.05.5.31,0,.55-.08.73-.25.18-.17.27-.41.27-.73v-.28c-.27.3-.62.44-1.06.44-.48,0-.87-.19-1.18-.57-.31-.38-.46-.91-.46-1.59Zm.92.08c0,.41.08.74.25.97.17.24.4.35.7.35.37,0,.65-.16.83-.48v-1.81c-.17-.31-.45-.47-.82-.47-.3,0-.54.12-.71.36-.17.24-.25.59-.25,1.06Z"></path><path class="cls-1" d="m111.8,94.96c-.58,0-1.06-.18-1.42-.55-.36-.37-.54-.86-.54-1.47v-.11c0-.41.08-.78.24-1.1.16-.32.38-.57.67-.75.29-.18.6-.27.96-.27.56,0,.99.18,1.3.54.3.36.46.86.46,1.51v.37h-2.68c.03.34.14.61.34.8.2.2.45.3.75.3.42,0,.77-.17,1.03-.51l.5.47c-.16.25-.38.44-.66.57s-.58.2-.92.2Zm-.11-3.52c-.25,0-.46.09-.61.27-.16.18-.25.42-.3.74h1.76v-.07c-.02-.31-.1-.54-.25-.7-.14-.16-.34-.24-.6-.24Z"></path></g><g><path class="cls-1" d="m37.02,1.98l-16.83,16.83c-2.64,2.64-2.64,6.92,0,9.56,1.32,1.32,3.05,1.98,4.78,1.98s3.46-.66,4.78-1.98l12.05-12.05-4.78-4.78c-2.64-2.64-2.64-6.92,0-9.56Z"></path><path class="cls-1" d="m56.81,18.81l4.78-4.78L49.54,1.98c-2.64-2.64-6.92-2.64-9.56,0-2.64,2.64-2.64,6.92,0,9.56l4.78,4.78,12.05,12.05c-2.64-2.64-2.64-6.92,0-9.56Z"></path><path class="cls-1" d="m84.68,30.7c-2.64-2.64-6.92-2.64-9.56,0l-12.05,12.05,4.78,4.78c2.64,2.64,2.64,6.92,0,9.56l16.83-16.83c2.64-2.64,2.64-6.92,0-9.56Z"></path><path class="cls-1" d="m64.89,47.53l-4.78-4.78-12.05-12.05c-2.64-2.64-6.92-2.64-9.56,0-2.64,2.64-2.64,6.92,0,9.56l16.83,16.83c1.32,1.32,3.05,1.98,4.78,1.98s3.46-.66,4.78-1.98c2.64-2.64,2.64-6.92,0-9.56Z"></path><path class="cls-1" d="m76.6,1.98l-12.05,12.05-4.78,4.78c-2.64,2.64-2.64,6.92,0,9.56,0,0,0,0,0,0,1.32,1.32,3.05,1.98,4.78,1.98s3.46-.66,4.78-1.98h0s12.05-12.05,12.05-12.05l-4.78-4.78c-2.64-2.64-2.64-6.92,0-9.56Z"></path><path class="cls-1" d="m105.95,18.81L89.12,1.98h0C87.8.66,86.07,0,84.34,0s-3.46.66-4.78,1.98c0,0,0,0,0,0-2.64,2.64-2.64,6.92,0,9.56l4.78,4.78,12.05,12.05c1.32,1.32,3.05,1.98,4.78,1.98s3.46-.66,4.78-1.98c2.64-2.64,2.64-6.92,0-9.56Z"></path></g></g></svg>