<svg xmlns="http://www.w3.org/2000/svg" width="53" height="44" viewBox="0 0 53 44" fill="none"><g clip-path="url(#clip0_130_2)"><path d="M12.5609 28.6547V34.0819H11.0421V30.3048L9.98443 34.0819H9.10576L8.02033 30.3683V34.0819H7.49152V28.6547H9.08983L10.0202 31.9309L10.9466 28.6547H12.5609ZM14.3866 28.5195C14.8372 28.5195 15.0625 28.6945 15.0625 29.0444C15.0625 29.3942 14.8372 29.5692 14.3866 29.5692C13.936 29.5692 13.7107 29.3942 13.7107 29.0444C13.7107 28.6945 13.936 28.5195 14.3866 28.5195ZM13.6511 34.0819V30.0781C14.1043 30.0781 14.5881 30.0423 15.1023 29.9707V34.0819H13.6511ZM19.7232 28.5712V34.0819H18.2719V33.736C18.0281 34.0276 17.702 34.1733 17.2938 34.1733C16.3926 34.1733 15.942 33.4816 15.942 32.0979C15.942 30.6745 16.4191 29.9628 17.3733 29.9628C17.7497 29.9628 18.0493 30.1285 18.2719 30.4598V28.6547C18.7093 28.6547 19.193 28.6269 19.7232 28.5712ZM17.8425 30.5473C17.5987 30.5473 17.4767 30.7712 17.4767 31.2192L17.4489 32.0701L17.4648 32.8454C17.4648 33.341 17.6026 33.5889 17.8783 33.5889C18.146 33.5889 18.2799 33.3451 18.2799 32.8573L18.2998 31.8792L18.2679 31.2113C18.2255 30.7686 18.0837 30.5473 17.8425 30.5473ZM21.4733 28.5195C21.924 28.5195 22.1493 28.6945 22.1493 29.0444C22.1493 29.3942 21.924 29.5692 21.4733 29.5692C21.0228 29.5692 20.7974 29.3942 20.7974 29.0444C20.7974 28.6945 21.0228 28.5195 21.4733 28.5195ZM20.7378 34.0819V30.0781C21.1911 30.0781 21.6748 30.0423 22.189 29.9707V34.0819H20.7378ZM27.2592 33.9388C26.904 34.0766 26.5581 34.1455 26.2215 34.1455C25.7231 34.1455 25.4157 33.9905 25.2991 33.6804C25.0579 34.0037 24.7106 34.1654 24.2574 34.1654C23.4118 34.1654 22.989 33.7731 22.989 32.9885C22.989 32.3921 23.376 31.9733 24.15 31.7321C24.8603 31.5094 25.2155 31.2418 25.2155 30.929C25.2155 30.5181 25.0114 30.3127 24.6033 30.3127C24.1314 30.3127 23.8955 30.5115 23.8955 30.9091C23.8955 31.0337 23.9326 31.198 24.0069 31.4021L23.2872 31.2629C23.2687 31.1384 23.2593 31.0217 23.2593 30.9131C23.2593 30.2769 23.8399 29.9588 25.0009 29.9588C26.1035 29.9588 26.6548 30.2557 26.6548 30.8495V33.2828C26.6548 33.5319 26.7357 33.6565 26.8974 33.6565C26.9477 33.6565 27.0219 33.6287 27.12 33.573L27.2592 33.9388ZM25.2036 31.6725C25.1135 31.7759 25.0088 31.862 24.8895 31.9309C24.59 32.1058 24.4402 32.4001 24.4402 32.8136C24.4402 33.3437 24.5436 33.6088 24.7503 33.6088C25.0525 33.6088 25.2036 33.3464 25.2036 32.8215V31.6725ZM29.896 30.0861V30.5353H29.252V33.3702C29.252 33.5478 29.3089 33.6366 29.4229 33.6366C29.5051 33.6366 29.5541 33.5769 29.57 33.4577L29.9835 33.4974C29.8695 33.9163 29.5064 34.1257 28.8941 34.1257C28.1652 34.1257 27.8007 33.8155 27.8007 33.1953V30.5353H27.3157V30.0861H27.8007V29.3784C28.3017 29.2405 28.7854 29.0417 29.252 28.782V30.0861H29.896ZM34.6083 33.9388C34.2532 34.0766 33.9072 34.1455 33.5706 34.1455C33.0723 34.1455 32.7648 33.9905 32.6482 33.6804C32.407 34.0037 32.0598 34.1654 31.6065 34.1654C30.7609 34.1654 30.3381 33.7731 30.3381 32.9885C30.3381 32.3921 30.7252 31.9733 31.4991 31.7321C32.2095 31.5094 32.5647 31.2418 32.5647 30.929C32.5647 30.5181 32.3606 30.3127 31.9524 30.3127C31.4806 30.3127 31.2447 30.5115 31.2447 30.9091C31.2447 31.0337 31.2818 31.198 31.356 31.4021L30.6363 31.2629C30.6178 31.1384 30.6085 31.0217 30.6085 30.9131C30.6085 30.2769 31.189 29.9588 32.35 29.9588C33.4527 29.9588 34.004 30.2557 34.004 30.8495V33.2828C34.004 33.5319 34.0849 33.6565 34.2466 33.6565C34.2969 33.6565 34.3711 33.6287 34.4692 33.573L34.6083 33.9388ZM32.5528 31.6725C32.4627 31.7759 32.358 31.862 32.2387 31.9309C31.9391 32.1058 31.7894 32.4001 31.7894 32.8136C31.7894 33.3437 31.8928 33.6088 32.0995 33.6088C32.4017 33.6088 32.5528 33.3464 32.5528 32.8215V31.6725ZM40.9508 34.0819H39.4996V31.0721C39.4996 30.8097 39.4227 30.6785 39.269 30.6785C38.9138 30.6785 38.7362 31.0562 38.7362 31.8117V34.0819H37.285V31.1357C37.285 30.8362 37.216 30.6864 37.0782 30.6864C36.7177 30.6864 36.5375 31.0628 36.5375 31.8156V34.0819H35.0863V30.0622C35.5766 30.0622 36.0604 30.0291 36.5375 29.9628V30.6546C36.8794 30.1961 37.3009 29.9668 37.8019 29.9668C38.2206 29.9668 38.5321 30.1828 38.7362 30.6149C39.0596 30.1775 39.4638 29.9588 39.9489 29.9588C40.6168 29.9588 40.9508 30.2968 40.9508 30.9727V34.0819ZM46.013 33.9388C45.6578 34.0766 45.3119 34.1455 44.9753 34.1455C44.477 34.1455 44.1694 33.9905 44.0528 33.6804C43.8116 34.0037 43.4644 34.1654 43.0111 34.1654C42.1656 34.1654 41.7428 33.7731 41.7428 32.9885C41.7428 32.3921 42.1298 31.9733 42.9038 31.7321C43.6142 31.5094 43.9694 31.2418 43.9694 30.929C43.9694 30.5181 43.7652 30.3127 43.357 30.3127C42.8852 30.3127 42.6493 30.5115 42.6493 30.9091C42.6493 31.0337 42.6864 31.198 42.7606 31.4021L42.041 31.2629C42.0224 31.1384 42.0132 31.0217 42.0132 30.9131C42.0132 30.2769 42.5937 29.9588 43.7546 29.9588C44.8573 29.9588 45.4087 30.2557 45.4087 30.8495V33.2828C45.4087 33.5319 45.4895 33.6565 45.6512 33.6565C45.7015 33.6565 45.7758 33.6287 45.8738 33.573L46.013 33.9388ZM43.9574 31.6725C43.8673 31.7759 43.7626 31.862 43.6433 31.9309C43.3438 32.1058 43.1941 32.4001 43.1941 32.8136C43.1941 33.3437 43.2974 33.6088 43.5042 33.6088C43.8063 33.6088 43.9574 33.3464 43.9574 32.8215V31.6725ZM13.0308 35.0526L14.5417 40.4798H12.9593L12.6372 39.3029H11.0031L10.6571 40.4798H10.0409L11.6472 35.0526H13.0308ZM11.1581 38.7582H12.4901L11.8499 36.3528L11.1581 38.7582ZM17.9539 38.6906L18.5661 38.8775L18.5701 39.0405C18.5701 40.0584 18.0135 40.5673 16.9002 40.5673C15.5802 40.5673 14.9202 39.898 14.9202 38.5594C14.9202 37.8888 15.1123 37.3547 15.4967 36.9571C15.8811 36.5568 16.3966 36.3567 17.0433 36.3567C17.9737 36.3567 18.4389 36.7782 18.4389 37.6211L17.759 37.9511L17.767 37.5694C17.767 36.9968 17.5748 36.7106 17.1905 36.7106C16.6816 36.7106 16.4271 37.2725 16.4271 38.3964C16.4271 39.0909 16.4814 39.568 16.5901 39.8277C16.6988 40.0849 16.9002 40.2134 17.1944 40.2134C17.7325 40.2134 18.0016 39.8648 18.0016 39.1677C18.0016 39.0696 17.9856 38.9106 17.9539 38.6906ZM23.3301 40.3367C22.9749 40.4745 22.629 40.5434 22.2924 40.5434C21.7941 40.5434 21.4866 40.3884 21.37 40.0782C21.1288 40.4016 20.7816 40.5633 20.3283 40.5633C19.4827 40.5633 19.0599 40.171 19.0599 39.3864C19.0599 38.79 19.447 38.3712 20.2209 38.13C20.9313 37.9073 21.2865 37.6397 21.2865 37.3269C21.2865 36.916 21.0824 36.7106 20.6742 36.7106C20.2024 36.7106 19.9665 36.9094 19.9665 37.307C19.9665 37.4316 20.0036 37.5959 20.0778 37.8L19.3581 37.6608C19.3396 37.5362 19.3303 37.4196 19.3303 37.311C19.3303 36.6748 19.9108 36.3567 21.0718 36.3567C22.1744 36.3567 22.7258 36.6536 22.7258 37.2474V39.6806C22.7258 39.9298 22.8067 40.0544 22.9683 40.0544C23.0187 40.0544 23.0929 40.0265 23.191 39.9709L23.3301 40.3367ZM21.2745 38.0704C21.1845 38.1738 21.0798 38.2599 20.9605 38.3288C20.6609 38.5037 20.5112 38.798 20.5112 39.2114C20.5112 39.7416 20.6146 40.0066 20.8213 40.0066C21.1235 40.0066 21.2745 39.7443 21.2745 39.2194V38.0704ZM27.3944 34.9691V40.4798H25.9431V40.1339C25.6993 40.4255 25.3733 40.5712 24.9651 40.5712C24.0639 40.5712 23.6132 39.8794 23.6132 38.4958C23.6132 37.0724 24.0903 36.3607 25.0446 36.3607C25.421 36.3607 25.7205 36.5264 25.9431 36.8577V35.0526C26.3805 35.0526 26.8643 35.0248 27.3944 34.9691ZM25.5137 36.9452C25.2699 36.9452 25.1479 37.1691 25.1479 37.6171L25.1201 38.468L25.136 39.2433C25.136 39.7389 25.2739 39.9868 25.5495 39.9868C25.8172 39.9868 25.9511 39.7429 25.9511 39.2552L25.9709 38.2771L25.9392 37.6092C25.8967 37.1665 25.7549 36.9452 25.5137 36.9452ZM31.2637 39.0126L31.8482 39.1836C31.7873 40.1087 31.2412 40.5712 30.2101 40.5712C28.8742 40.5712 28.2063 39.9046 28.2063 38.5714C28.2063 37.9246 28.3838 37.3944 28.739 36.981C29.0942 36.5674 29.5488 36.3607 30.1028 36.3607C31.2611 36.3607 31.8403 37.1082 31.8403 38.6031H29.7251C29.7251 39.6528 29.9914 40.1776 30.5243 40.1776C31.0225 40.1776 31.2717 39.8808 31.2717 39.287C31.2717 39.2075 31.2691 39.1161 31.2637 39.0126ZM29.7211 38.1539H30.5878C30.5878 37.2208 30.4474 36.7543 30.1664 36.7543C29.9119 36.7543 29.7688 37.1003 29.737 37.792L29.7211 38.1539ZM38.5406 40.4798H37.0894V37.47C37.0894 37.2076 37.0125 37.0764 36.8588 37.0764C36.5036 37.0764 36.326 37.4541 36.326 38.2095V40.4798H34.8747V37.5336C34.8747 37.2341 34.8058 37.0843 34.668 37.0843C34.3075 37.0843 34.1273 37.4607 34.1273 38.2135V40.4798H32.676V36.4601C33.1664 36.4601 33.6502 36.427 34.1273 36.3607V37.0525C34.4692 36.594 34.8906 36.3647 35.3916 36.3647C35.8104 36.3647 36.1218 36.5807 36.326 37.0128C36.6493 36.5754 37.0535 36.3567 37.5386 36.3567C38.2066 36.3567 38.5406 36.6947 38.5406 37.3706V40.4798ZM42.9269 36.472L41.09 40.9967C40.8381 41.6169 40.4989 41.9271 40.0721 41.9271C39.6586 41.9271 39.3777 41.7508 39.2292 41.3982L39.7302 41.0364C39.77 41.3412 39.8826 41.4937 40.0681 41.4937C40.2776 41.4937 40.4472 41.3174 40.577 40.9649L40.6844 40.6786L39.0702 36.472H40.6645L41.4716 38.8298L42.3901 36.472H42.9269Z" fill="black"></path><path d="M31.4078 8.49048H5.92113L2.32651 15.47H27.8132L31.4078 8.49048Z" fill="#639F44"></path><path d="M6.97951 22.4495L18.6215 0.347656H26.7548L15.1128 22.4495H6.97951Z" fill="#639F44"></path><path d="M36.6425 0.347656H28.485L25.0099 6.74554H33.1674L36.6425 0.347656Z" fill="#2984AA"></path><path d="M47.6933 22.4495L36.3996 0.347656H28.4997L39.8077 22.4495H47.6933Z" fill="#1892C1"></path></g><defs><clipPath id="clip0_130_2"><rect width="52.928" height="43.0403" fill="white" transform="translate(0 0.347656)"></rect></clipPath></defs></svg>