<svg xmlns="http://www.w3.org/2000/svg" width="30" height="34" viewBox="0 0 30 34" fill="none"><path d="M27.7725 5.00211H23.7043C24.8137 3.86229 24.8523 2.01762 23.6376 0.852738C22.4485 -0.287568 20.5093 -0.283808 19.3151 0.861442L15.3324 4.68043L10.9343 0.49993C10.2771 -0.124777 9.20788 -0.124707 8.55087 0.49993L5.92518 2.99563C5.19108 3.69337 5.39705 4.59464 5.63866 5.00211H2.22749C0.999239 5.00211 0 6.00135 0 7.2296V25.3711C0 26.5993 0.999239 27.5986 2.22749 27.5986H11.2077V32.2642H8.80794C8.42338 32.2642 8.11165 32.576 8.11165 32.9605C8.11165 33.345 8.42338 33.6568 8.80794 33.6568H21.1921C21.5766 33.6568 21.8884 33.345 21.8884 32.9605C21.8884 32.576 21.5766 32.2642 21.1921 32.2642H18.7923V27.5986H27.7725C29.0008 27.5986 30 26.5993 30 25.3711V7.2296C30 6.00135 29.0007 5.00211 27.7725 5.00211ZM28.6074 25.3711C28.6074 25.8315 28.2329 26.206 27.7725 26.206H2.22749C1.7671 26.206 1.39257 25.8315 1.39257 25.3711V24.5695H28.6074L28.6074 25.3711ZM17.3997 32.2642H12.6003V27.5986H17.3997V32.2642ZM1.39257 23.1769V7.2296C1.39257 6.76921 1.7671 6.39468 2.22749 6.39468H7.01243L10.2928 9.51278L6.96626 12.7027C6.88208 12.783 6.82109 12.8848 6.78446 12.9944L5.51903 16.7789C5.37748 17.2019 5.48401 17.664 5.79692 17.9846C6.29282 18.4928 6.90966 18.3408 7.04508 18.2992L10.9904 17.0863C11.0982 17.054 11.1977 16.9974 11.2795 16.9197L14.6675 13.671L19.0657 17.8516C19.6517 18.4085 20.7263 18.5385 21.449 17.8515L24.0747 15.3558C24.6647 14.7949 24.8441 13.7219 24.0747 12.9902L19.707 8.83864L22.2556 6.39475H27.7724C28.2328 6.39475 28.6073 6.76928 28.6073 7.22967V23.177H1.39257V23.1769ZM6.88459 4.35185C6.7743 4.22164 6.77423 4.13524 6.88459 4.00503L9.51021 1.50934C9.63394 1.39173 9.85104 1.39166 9.97477 1.50934L12.3733 3.78918L11.3219 4.78863C11.0432 5.05357 11.0319 5.49424 11.2969 5.77297C11.5609 6.05072 12.0016 6.06381 12.2812 5.79796L13.384 4.74978L14.3261 5.64527L11.2991 8.54787L6.88459 4.35185ZM22.6738 1.8579C23.2566 2.41673 23.3607 3.40588 22.6646 4.0734L22.1318 4.58427L19.7883 2.33701L20.2788 1.8666C20.9416 1.23103 22.016 1.2272 22.6738 1.8579ZM18.7823 3.30164L19.5009 3.99076L9.12774 13.8511L8.45422 13.2052L18.7823 3.30164ZM21.1258 5.5489L10.7977 15.4524L10.1339 14.8159L20.5071 4.9556L21.1258 5.5489ZM18.5957 12.7105C18.8596 12.9883 19.3005 13.0014 19.5801 12.7355L20.6828 11.6873L23.1153 13.9994C23.2257 14.1297 23.2257 14.2161 23.1154 14.3464L20.4897 16.8421C20.366 16.9597 20.1489 16.9597 20.0252 16.8421L15.6738 12.7061L18.7008 9.80348L19.6721 10.7267L18.6206 11.7261C18.3419 11.9911 18.3308 12.4318 18.5957 12.7105ZM7.75996 14.4687L9.46071 16.0996L6.95721 16.8693L7.75996 14.4687Z" fill="white"></path></svg>