<svg xmlns="http://www.w3.org/2000/svg" width="30" height="30" viewBox="0 0 30 30" fill="none"><path d="M30 1.875V23.4375C30 24.4714 29.1591 25.3125 28.125 25.3125C27.8659 25.3125 27.6562 25.1026 27.6562 24.8438C27.6562 24.5849 27.8659 24.375 28.125 24.375C28.6418 24.375 29.0625 23.9545 29.0625 23.4375V1.875C29.0625 1.35796 28.6418 0.9375 28.125 0.9375H11.25C10.7332 0.9375 10.3125 1.35796 10.3125 1.875C10.3125 2.13387 10.1028 2.34375 9.84375 2.34375C9.58466 2.34375 9.375 2.13387 9.375 1.875C9.375 0.841141 10.2159 0 11.25 0H28.125C29.1591 0 30 0.841141 30 1.875ZM25.3125 2.8125H8.4375C7.40341 2.8125 6.5625 3.65364 6.5625 4.6875V20.1562C6.5625 20.4151 6.77216 20.625 7.03125 20.625C7.29034 20.625 7.5 20.4151 7.5 20.1562V4.6875C7.5 4.17046 7.92068 3.75 8.4375 3.75H25.3125C25.8293 3.75 26.25 4.17046 26.25 4.6875V26.25C26.25 26.767 25.8293 27.1875 25.3125 27.1875H13.5938C13.3347 27.1875 13.125 27.3974 13.125 27.6562C13.125 27.9151 13.3347 28.125 13.5938 28.125H25.3125C26.3466 28.125 27.1875 27.2839 27.1875 26.25V4.6875C27.1875 3.65364 26.3466 2.8125 25.3125 2.8125ZM8.90625 13.125V5.625C8.90625 5.36613 9.11591 5.15625 9.375 5.15625H15.9375C16.1966 5.15625 16.4062 5.36613 16.4062 5.625V13.125C16.4062 13.3839 16.1966 13.5938 15.9375 13.5938H9.375C9.11591 13.5938 8.90625 13.3839 8.90625 13.125ZM14.4717 12.6562C14.2635 11.8485 13.5283 11.25 12.6562 11.25C11.7842 11.25 11.049 11.8485 10.8408 12.6562H14.4717ZM12.6562 10.3125C13.1731 10.3125 13.5938 9.89204 13.5938 9.375C13.5938 8.85796 13.1731 8.4375 12.6562 8.4375C12.1394 8.4375 11.7188 8.85796 11.7188 9.375C11.7188 9.89204 12.1394 10.3125 12.6562 10.3125ZM9.84375 12.6562H9.88609C10.0311 11.7977 10.5637 11.0698 11.3 10.6626C10.9805 10.3263 10.7812 9.87445 10.7812 9.375C10.7812 8.34114 11.6222 7.5 12.6562 7.5C13.6903 7.5 14.5312 8.34114 14.5312 9.375C14.5312 9.87445 14.332 10.3263 14.0125 10.6626C14.7488 11.0698 15.2814 11.7977 15.4264 12.6562H15.4688V6.09375H9.84375V12.6562ZM17.8125 8.4375V5.625C17.8125 5.36613 18.0222 5.15625 18.2812 5.15625H24.8438C25.1028 5.15625 25.3125 5.36613 25.3125 5.625V8.4375C25.3125 8.69637 25.1028 8.90625 24.8438 8.90625H18.2812C18.0222 8.90625 17.8125 8.69637 17.8125 8.4375ZM18.75 7.96875H24.375V6.09375H18.75V7.96875ZM18.2812 11.25H24.8438C25.1028 11.25 25.3125 11.0401 25.3125 10.7812C25.3125 10.5224 25.1028 10.3125 24.8438 10.3125H18.2812C18.0222 10.3125 17.8125 10.5224 17.8125 10.7812C17.8125 11.0401 18.0222 11.25 18.2812 11.25ZM18.2812 13.5938H24.8438C25.1028 13.5938 25.3125 13.3839 25.3125 13.125C25.3125 12.8661 25.1028 12.6562 24.8438 12.6562H18.2812C18.0222 12.6562 17.8125 12.8661 17.8125 13.125C17.8125 13.3839 18.0222 13.5938 18.2812 13.5938ZM9.375 15.9375H24.8438C25.1028 15.9375 25.3125 15.7276 25.3125 15.4688C25.3125 15.2099 25.1028 15 24.8438 15H9.375C9.11591 15 8.90625 15.2099 8.90625 15.4688C8.90625 15.7276 9.11591 15.9375 9.375 15.9375ZM9.375 18.2812H24.8438C25.1028 18.2812 25.3125 18.0714 25.3125 17.8125C25.3125 17.5536 25.1028 17.3438 24.8438 17.3438H9.375C9.11591 17.3438 8.90625 17.5536 8.90625 17.8125C8.90625 18.0714 9.11591 18.2812 9.375 18.2812ZM9.375 20.625H24.8438C25.1028 20.625 25.3125 20.4151 25.3125 20.1562C25.3125 19.8974 25.1028 19.6875 24.8438 19.6875H9.375C9.11591 19.6875 8.90625 19.8974 8.90625 20.1562C8.90625 20.4151 9.11591 20.625 9.375 20.625ZM12.1875 22.9688V28.5938C12.1875 29.3692 11.5567 30 10.7812 30H1.40625C0.630798 30 0 29.3692 0 28.5938V22.9688C0 22.1933 0.630798 21.5625 1.40625 21.5625H10.7812C11.5567 21.5625 12.1875 22.1933 12.1875 22.9688ZM11.25 22.9688C11.25 22.7103 11.0399 22.5 10.7812 22.5H1.40625C1.14761 22.5 0.9375 22.7103 0.9375 22.9688V28.5938C0.9375 28.8522 1.14761 29.0625 1.40625 29.0625H10.7812C11.0399 29.0625 11.25 28.8522 11.25 28.5938V22.9688ZM4.21875 24.8438H4.6875C4.94659 24.8438 5.15625 24.6339 5.15625 24.375C5.15625 24.1161 4.94659 23.9062 4.6875 23.9062H4.21875C3.18466 23.9062 2.34375 24.7474 2.34375 25.7812C2.34375 26.8151 3.18466 27.6562 4.21875 27.6562H4.6875C4.94659 27.6562 5.15625 27.4464 5.15625 27.1875C5.15625 26.9286 4.94659 26.7188 4.6875 26.7188H4.21875C3.70193 26.7188 3.28125 26.2983 3.28125 25.7812C3.28125 25.2642 3.70193 24.8438 4.21875 24.8438ZM9.58466 23.9557C9.35303 23.8403 9.0715 23.9339 8.95569 24.1653L7.96875 26.1395L6.98181 24.1653C6.86554 23.9339 6.58447 23.8403 6.35284 23.9557C6.12122 24.0715 6.02737 24.353 6.14319 24.5847L7.54944 27.3972C7.62909 27.556 7.79114 27.6562 7.96875 27.6562C8.14636 27.6562 8.30841 27.556 8.38806 27.3972L9.79431 24.5847C9.91013 24.353 9.81628 24.0715 9.58466 23.9557Z" fill="white"></path></svg>