<svg xmlns="http://www.w3.org/2000/svg" width="35" height="30" viewBox="0 0 35 30" fill="none"><path d="M3.125 30H31.875C33.5975 30 35 28.5975 35 26.875V8.125C35 6.4025 33.5975 5 31.875 5H25.4875L24.83 2.3675C24.6616 1.69085 24.2715 1.09008 23.7219 0.660983C23.1723 0.231889 22.4948 -0.000808378 21.7975 2.11005e-06H13.2013C12.5041 -0.000747585 11.8268 0.231996 11.2774 0.661103C10.728 1.09021 10.3381 1.69096 10.17 2.3675L9.5125 5H3.125C2.2965 5.00099 1.50222 5.33055 0.916387 5.91639C0.330551 6.50222 0.000992411 7.2965 0 8.125V26.875C0 28.5975 1.4025 30 3.125 30ZM31.875 28.75H3.125C2.09125 28.75 1.25 27.9088 1.25 26.875V13.9625L14.375 17.8513V21.875C14.375 22.0408 14.4408 22.1997 14.5581 22.3169C14.6753 22.4342 14.8342 22.5 15 22.5H20C20.1658 22.5 20.3247 22.4342 20.4419 22.3169C20.5592 22.1997 20.625 22.0408 20.625 21.875V17.8513L33.75 13.9625V26.875C33.75 27.9088 32.9087 28.75 31.875 28.75ZM17.5 20C17.3342 20 17.1753 20.0658 17.0581 20.1831C16.9408 20.3003 16.875 20.4592 16.875 20.625V21.25H15.625V18.75H19.375V21.25H18.125V20.625C18.125 20.4592 18.0592 20.3003 17.9419 20.1831C17.8247 20.0658 17.6658 20 17.5 20ZM19.375 17.3838V17.5H15.625V16.25H19.375V17.3838ZM11.3825 2.67C11.4836 2.264 11.7178 1.90356 12.0477 1.64619C12.3775 1.38881 12.7841 1.24933 13.2025 1.25H21.7987C22.217 1.24977 22.6234 1.38941 22.9532 1.64672C23.283 1.90402 23.5172 2.26422 23.6188 2.67L24.2 5H10.8L11.3825 2.67ZM1.25 8.125C1.25 7.09125 2.09125 6.25 3.125 6.25H31.875C32.9087 6.25 33.75 7.09125 33.75 8.125V12.6575L20.625 16.5462V15.625C20.625 15.4592 20.5592 15.3003 20.4419 15.1831C20.3247 15.0658 20.1658 15 20 15H15C14.8342 15 14.6753 15.0658 14.5581 15.1831C14.4408 15.3003 14.375 15.4592 14.375 15.625V16.5475L1.25 12.6575V8.125Z" fill="white"></path></svg>